<svg xmlns="http://www.w3.org/2000/svg" version="1.1" xmlns:xlink="http://www.w3.org/1999/xlink" width="512" height="512" x="0" y="0" viewBox="0 0 24 24" style="enable-background:new 0 0 512 512" xml:space="preserve" class=""><g><path d="M22.968 1.035c-.986-.988-2.411-1.297-3.742-.793L2.154 7.789C.423 8.44-.11 10.055.128 11.365.366 12.677 1.436 14 3.285 14h6.71l-.068 6.788c0 1.849 1.322 2.917 2.634 3.156.195.036.397.055.603.055 1.169 0 2.42-.603 2.966-2.052l7.639-17.199a3.463 3.463 0 0 0-.8-3.713Zm-.125 3.333-7.639 17.199c-.479 1.273-1.63 1.547-2.464 1.394-.837-.152-1.813-.813-1.813-2.168L11 13.505a.501.501 0 0 0-.5-.504H3.285c-1.36 0-2.021-.977-2.174-1.813-.151-.836.122-1.982 1.421-2.473l17.072-7.548a2.486 2.486 0 0 1 2.658.574c.704.705.923 1.722.582 2.627Z" fill="#879b90" opacity="1" data-original="#000000" class=""></path></g></svg>