<svg xmlns="http://www.w3.org/2000/svg" version="1.1" xmlns:xlink="http://www.w3.org/1999/xlink" width="512" height="512" x="0" y="0" viewBox="0 0 512 512" style="enable-background:new 0 0 512 512" xml:space="preserve" class=""><g><path d="M496.987 479.867c-7.263 0-13.569-5.252-14.783-12.535-10.824-63.203-72.026-173.512-227.271-179.958v81.093a15 15 0 0 1-23.719 12.206L6.281 220.006a15.002 15.002 0 0 1 0-24.413L231.215 34.927a15 15 0 0 1 23.718 12.206v82.315C350.896 139.02 512 208.288 512 464.866c0 7.805-5.985 14.306-13.763 14.949-.419.034-.836.052-1.25.052z" fill="#b09763" opacity="1" data-original="#000000" class=""></path></g></svg>