<svg xmlns="http://www.w3.org/2000/svg" xmlns:xlink="http://www.w3.org/1999/xlink" width="500" zoomAndPan="magnify" viewBox="0 0 375 268.499992" height="358" preserveAspectRatio="xMidYMid meet" version="1.0"><defs><clipPath id="059f192d4a"><path d="M 203 44.597656 L 265 44.597656 L 265 133 L 203 133 Z M 203 44.597656 " clip-rule="nonzero"/></clipPath><clipPath id="478837404b"><path d="M 0.347656 134 L 72 134 L 72 250 L 0.347656 250 Z M 0.347656 134 " clip-rule="nonzero"/></clipPath><clipPath id="977d548f80"><path d="M 203 260 L 339 260 L 339 268 L 203 268 Z M 203 260 " clip-rule="nonzero"/></clipPath><clipPath id="8503185448"><path d="M 334 154 L 374.652344 154 L 374.652344 162 L 334 162 Z M 334 154 " clip-rule="nonzero"/></clipPath><clipPath id="e674642da9"><path d="M 32 266 L 132 266 L 132 268 L 32 268 Z M 32 266 " clip-rule="nonzero"/></clipPath><clipPath id="3e09e6f32c"><path d="M 149.332031 0 L 270.605469 0 L 270.605469 244.792969 L 149.332031 244.792969 Z M 149.332031 0 " clip-rule="nonzero"/></clipPath></defs><g clip-path="url(#059f192d4a)"><path fill="#28183b" d="M 264.632812 44.6875 C 263.664062 49.175781 262.527344 53.617188 261.320312 58.050781 C 260.078125 62.472656 258.769531 66.875 257.210938 71.21875 C 256.429688 73.386719 255.617188 75.554688 254.582031 77.667969 C 254.0625 78.726562 253.523438 79.773438 252.742188 80.796875 L 252.410156 81.183594 L 252.242188 81.375 C 252.183594 81.4375 252.128906 81.476562 252.074219 81.53125 L 251.425781 82.136719 C 251.214844 82.347656 250.992188 82.539062 250.773438 82.726562 L 250.113281 83.296875 C 246.566406 86.289062 242.894531 89.019531 239.253906 91.800781 C 237.433594 93.183594 235.609375 94.5625 233.808594 95.96875 C 232.007812 97.359375 230.207031 98.769531 228.480469 100.226562 C 228.046875 100.585938 227.632812 100.964844 227.203125 101.328125 C 226.988281 101.511719 226.785156 101.703125 226.582031 101.894531 L 225.980469 102.464844 C 225.167969 103.25 224.367188 104.074219 223.578125 104.890625 C 222.785156 105.703125 222.003906 106.535156 221.230469 107.367188 C 220.445312 108.195312 219.679688 109.035156 218.917969 109.882812 C 218.152344 110.726562 217.410156 111.589844 216.667969 112.453125 C 215.929688 113.324219 215.207031 114.199219 214.488281 115.078125 C 213.050781 116.847656 211.679688 118.664062 210.375 120.527344 C 209.070312 122.394531 207.84375 124.3125 206.738281 126.308594 C 205.636719 128.300781 204.675781 130.375 203.9375 132.546875 C 204.191406 131.429688 204.523438 130.328125 204.898438 129.238281 C 205.292969 128.15625 205.722656 127.085938 206.207031 126.039062 C 206.683594 124.988281 207.207031 123.960938 207.757812 122.945312 C 208.304688 121.925781 208.894531 120.933594 209.488281 119.945312 C 210.707031 117.984375 212.003906 116.078125 213.367188 114.214844 C 214.730469 112.355469 216.167969 110.554688 217.644531 108.78125 C 218.378906 107.890625 219.125 107.015625 219.886719 106.152344 C 220.648438 105.285156 221.421875 104.433594 222.203125 103.585938 C 222.992188 102.742188 223.769531 101.90625 224.585938 101.074219 L 225.214844 100.453125 C 225.425781 100.246094 225.636719 100.035156 225.851562 99.847656 C 226.285156 99.457031 226.710938 99.054688 227.148438 98.675781 C 230.652344 95.636719 234.304688 92.863281 237.949219 90.082031 L 243.421875 85.933594 C 245.242188 84.554688 247.050781 83.164062 248.804688 81.734375 L 249.453125 81.195312 C 249.671875 81.019531 249.886719 80.839844 250.085938 80.652344 L 250.707031 80.097656 C 250.753906 80.050781 250.816406 80.003906 250.855469 79.960938 L 251.210938 79.574219 C 251.839844 78.789062 252.390625 77.808594 252.898438 76.820312 C 253.160156 76.332031 253.390625 75.8125 253.632812 75.308594 C 253.867188 74.796875 254.097656 74.285156 254.324219 73.765625 C 254.550781 73.246094 254.78125 72.726562 254.996094 72.203125 C 255.21875 71.679688 255.429688 71.152344 255.644531 70.621094 C 256.488281 68.511719 257.269531 66.363281 258.050781 64.21875 C 258.828125 62.070312 259.574219 59.90625 260.3125 57.738281 C 261.792969 53.40625 263.203125 49.050781 264.632812 44.6875 " fill-opacity="1" fill-rule="nonzero"/></g><path fill="#28183b" d="M 303.4375 48.25 C 300.609375 54.378906 297.695312 60.449219 294.828125 66.539062 C 293.414062 69.585938 291.992188 72.628906 290.625 75.695312 C 289.949219 77.226562 289.261719 78.757812 288.625 80.304688 C 287.976562 81.84375 287.339844 83.386719 286.78125 84.945312 C 286.214844 86.496094 285.675781 88.074219 285.375 89.601562 C 285.0625 91.230469 284.8125 92.875 284.59375 94.53125 C 284.371094 96.183594 284.191406 97.847656 284.003906 99.519531 L 283.738281 102.03125 C 283.644531 102.851562 283.566406 103.683594 283.5 104.519531 C 283.359375 106.191406 283.261719 107.886719 283.03125 109.582031 C 282.921875 110.433594 282.785156 111.28125 282.609375 112.125 C 282.515625 112.542969 282.417969 112.964844 282.308594 113.382812 C 282.261719 113.589844 282.191406 113.804688 282.125 114.015625 C 282.0625 114.230469 281.984375 114.4375 281.902344 114.640625 C 281.253906 116.28125 280.285156 117.738281 279.191406 119.042969 C 278.644531 119.695312 278.070312 120.324219 277.480469 120.929688 C 276.886719 121.53125 276.285156 122.125 275.667969 122.699219 C 276.191406 122.039062 276.726562 121.382812 277.238281 120.714844 C 277.75 120.050781 278.25 119.375 278.710938 118.683594 C 279.640625 117.304688 280.449219 115.839844 280.902344 114.296875 C 280.957031 114.101562 281.015625 113.914062 281.054688 113.714844 C 281.101562 113.519531 281.152344 113.332031 281.183594 113.125 C 281.265625 112.722656 281.324219 112.316406 281.386719 111.910156 C 281.5 111.09375 281.574219 110.269531 281.625 109.445312 C 281.730469 107.789062 281.769531 106.117188 281.816406 104.421875 C 281.84375 103.578125 281.878906 102.722656 281.929688 101.867188 L 282.109375 99.347656 C 282.230469 97.664062 282.378906 95.972656 282.558594 94.28125 C 282.742188 92.59375 282.980469 90.902344 283.273438 89.21875 C 283.3125 89.003906 283.367188 88.78125 283.414062 88.5625 C 283.460938 88.339844 283.507812 88.117188 283.566406 87.910156 C 283.683594 87.492188 283.789062 87.054688 283.925781 86.648438 C 284.179688 85.816406 284.457031 85.003906 284.753906 84.199219 C 285.945312 80.992188 287.324219 77.898438 288.773438 74.839844 C 290.226562 71.785156 291.734375 68.765625 293.328125 65.789062 C 296.484375 59.820312 299.820312 53.953125 303.4375 48.25 " fill-opacity="1" fill-rule="nonzero"/><path fill="#28183b" d="M 226.765625 110.605469 C 224.378906 113.84375 221.863281 116.957031 219.332031 120.054688 C 216.800781 123.144531 214.230469 126.199219 211.6875 129.261719 C 210.410156 130.789062 209.152344 132.324219 207.933594 133.875 L 207.039062 135.042969 L 206.203125 136.222656 C 205.933594 136.621094 205.691406 137.039062 205.433594 137.441406 C 205.199219 137.863281 204.960938 138.285156 204.734375 138.710938 C 203.84375 140.433594 203.121094 142.261719 202.507812 144.136719 C 201.90625 146.019531 201.414062 147.953125 201.046875 149.933594 C 200.988281 148.921875 201.027344 147.914062 201.097656 146.902344 C 201.164062 145.890625 201.304688 144.890625 201.480469 143.882812 C 201.84375 141.882812 202.402344 139.898438 203.195312 137.992188 C 203.402344 137.519531 203.621094 137.050781 203.835938 136.582031 C 204.089844 136.125 204.324219 135.65625 204.585938 135.207031 C 204.859375 134.769531 205.132812 134.328125 205.414062 133.898438 L 206.296875 132.648438 C 206.582031 132.222656 206.898438 131.832031 207.203125 131.425781 C 207.507812 131.027344 207.808594 130.617188 208.121094 130.222656 C 208.757812 129.445312 209.378906 128.648438 210.027344 127.878906 C 212.597656 124.789062 215.292969 121.816406 218.070312 118.929688 C 220.859375 116.046875 223.722656 113.238281 226.765625 110.605469 " fill-opacity="1" fill-rule="nonzero"/><path fill="#28183b" d="M 230.863281 116.34375 C 227.839844 119.566406 224.828125 122.753906 221.882812 125.996094 C 218.933594 129.230469 216.058594 132.523438 213.320312 135.914062 L 212.304688 137.1875 L 211.308594 138.480469 C 210.972656 138.90625 210.660156 139.347656 210.332031 139.78125 L 209.847656 140.4375 L 209.378906 141.101562 C 208.117188 142.867188 206.921875 144.671875 205.839844 146.542969 C 204.761719 148.414062 203.800781 150.34375 203.078125 152.375 C 202.898438 152.882812 202.761719 153.402344 202.59375 153.914062 C 202.453125 154.402344 202.410156 154.902344 202.457031 155.417969 C 202.511719 155.925781 202.664062 156.4375 202.914062 156.90625 C 203.148438 157.386719 203.5 157.804688 203.910156 158.183594 C 203.425781 157.910156 202.984375 157.535156 202.636719 157.082031 C 202.289062 156.632812 202.027344 156.097656 201.875 155.527344 C 201.714844 154.960938 201.683594 154.34375 201.765625 153.75 L 201.90625 152.917969 C 201.957031 152.644531 201.988281 152.355469 202.058594 152.085938 C 202.546875 149.882812 203.367188 147.765625 204.335938 145.746094 C 205.316406 143.726562 206.460938 141.800781 207.691406 139.941406 L 208.152344 139.242188 L 208.632812 138.558594 C 208.957031 138.105469 209.269531 137.644531 209.605469 137.199219 L 210.609375 135.867188 L 211.640625 134.554688 C 214.433594 131.101562 217.464844 127.855469 220.671875 124.808594 C 222.28125 123.292969 223.921875 121.816406 225.617188 120.394531 C 226.46875 119.6875 227.324219 118.988281 228.199219 118.316406 C 229.074219 117.636719 229.953125 116.972656 230.863281 116.34375 " fill-opacity="1" fill-rule="nonzero"/><path fill="#28183b" d="M 238.238281 124.171875 C 235.070312 127.128906 231.871094 130.019531 228.695312 132.921875 C 225.511719 135.820312 222.355469 138.734375 219.28125 141.714844 C 216.203125 144.695312 213.1875 147.734375 210.441406 150.984375 C 209.074219 152.613281 207.769531 154.292969 206.667969 156.097656 C 206.589844 156.210938 206.539062 156.308594 206.480469 156.410156 C 206.421875 156.507812 206.390625 156.621094 206.339844 156.722656 C 206.265625 156.941406 206.207031 157.167969 206.183594 157.402344 C 206.148438 157.640625 206.164062 157.878906 206.183594 158.117188 C 206.226562 158.351562 206.273438 158.597656 206.367188 158.820312 C 206.539062 159.285156 206.84375 159.703125 207.238281 160.03125 C 207.429688 160.207031 207.65625 160.339844 207.886719 160.488281 C 208.113281 160.636719 208.34375 160.785156 208.570312 160.929688 C 208.316406 160.835938 208.0625 160.742188 207.808594 160.640625 C 207.5625 160.542969 207.300781 160.445312 207.050781 160.300781 C 206.5625 160.015625 206.128906 159.597656 205.832031 159.089844 C 205.675781 158.835938 205.5625 158.558594 205.472656 158.273438 C 205.402344 157.980469 205.335938 157.683594 205.335938 157.378906 C 205.320312 157.070312 205.363281 156.765625 205.421875 156.460938 C 205.464844 156.3125 205.496094 156.15625 205.554688 156.011719 L 205.636719 155.796875 C 205.667969 155.722656 205.699219 155.667969 205.726562 155.605469 C 206.640625 153.585938 207.824219 151.71875 209.101562 149.9375 C 211.683594 146.390625 214.65625 143.183594 217.777344 140.160156 C 220.902344 137.136719 224.191406 134.308594 227.597656 131.628906 C 231.011719 128.960938 234.527344 126.417969 238.238281 124.171875 " fill-opacity="1" fill-rule="nonzero"/><path fill="#28183b" d="M 255.257812 127.925781 C 251.59375 130.3125 247.878906 132.574219 244.175781 134.84375 C 240.480469 137.117188 236.761719 139.359375 233.230469 141.78125 L 231.933594 142.707031 C 231.503906 143.019531 231.09375 143.339844 230.683594 143.675781 C 229.863281 144.335938 229.074219 145.042969 228.292969 145.773438 C 226.730469 147.226562 225.242188 148.78125 223.742188 150.347656 C 222.242188 151.914062 220.742188 153.507812 219.140625 155.015625 C 218.332031 155.765625 217.503906 156.5 216.613281 157.15625 C 216.164062 157.480469 215.707031 157.792969 215.226562 158.070312 C 214.742188 158.335938 214.246094 158.585938 213.722656 158.753906 C 214.664062 158.191406 215.464844 157.46875 216.222656 156.703125 C 216.96875 155.929688 217.679688 155.117188 218.367188 154.285156 C 219.75 152.625 221.082031 150.910156 222.46875 149.222656 C 223.855469 147.53125 225.300781 145.875 226.871094 144.296875 C 227.652344 143.511719 228.472656 142.753906 229.324219 142.03125 C 229.753906 141.671875 230.199219 141.316406 230.648438 140.984375 C 231.097656 140.660156 231.546875 140.324219 232.003906 140.003906 C 235.652344 137.507812 239.472656 135.382812 243.347656 133.367188 C 247.234375 131.378906 251.179688 129.519531 255.257812 127.925781 " fill-opacity="1" fill-rule="nonzero"/><path fill="#28183b" d="M 239.085938 151.597656 C 238.765625 150.765625 238.640625 149.878906 238.578125 148.992188 C 238.554688 148.550781 238.539062 148.101562 238.566406 147.65625 C 238.574219 147.433594 238.589844 147.210938 238.601562 146.988281 C 238.628906 146.765625 238.652344 146.542969 238.683594 146.324219 C 238.921875 144.550781 239.472656 142.824219 240.230469 141.210938 C 240.664062 140.429688 241.058594 139.625 241.585938 138.90625 L 241.964844 138.359375 C 242.09375 138.179688 242.214844 137.992188 242.363281 137.828125 C 242.648438 137.484375 242.9375 137.152344 243.230469 136.820312 C 243.375 136.65625 243.523438 136.488281 243.675781 136.332031 C 243.839844 136.179688 243.996094 136.027344 244.160156 135.878906 C 244.484375 135.578125 244.816406 135.289062 245.144531 135.003906 C 245.480469 134.71875 245.851562 134.476562 246.214844 134.226562 C 246.578125 133.980469 246.949219 133.742188 247.332031 133.527344 C 246.894531 134.3125 246.398438 135.003906 245.929688 135.714844 C 245.707031 136.078125 245.480469 136.4375 245.253906 136.785156 C 245.136719 136.964844 245.019531 137.136719 244.90625 137.308594 C 244.789062 137.484375 244.691406 137.671875 244.582031 137.847656 C 244.371094 138.203125 244.15625 138.558594 243.933594 138.910156 C 243.714844 139.261719 243.53125 139.628906 243.324219 139.984375 C 243.230469 140.164062 243.121094 140.34375 243.019531 140.519531 C 242.910156 140.691406 242.832031 140.882812 242.738281 141.0625 L 242.175781 142.152344 C 241.480469 143.628906 240.847656 145.128906 240.335938 146.695312 C 239.816406 148.261719 239.386719 149.863281 239.085938 151.597656 " fill-opacity="1" fill-rule="nonzero"/><path fill="#28183b" d="M 351.628906 106.777344 C 350.207031 107.519531 348.734375 108.175781 347.261719 108.808594 C 346.515625 109.109375 345.769531 109.417969 345.015625 109.703125 C 344.269531 109.996094 343.511719 110.269531 342.757812 110.542969 C 339.726562 111.628906 336.632812 112.546875 333.515625 113.34375 C 333.125 113.445312 332.730469 113.554688 332.339844 113.644531 L 331.164062 113.914062 C 330.378906 114.089844 329.59375 114.273438 328.800781 114.425781 C 328.007812 114.585938 327.21875 114.75 326.425781 114.898438 L 324.042969 115.308594 C 322.453125 115.582031 320.871094 115.8125 319.285156 116.058594 L 314.535156 116.804688 L 309.789062 117.566406 L 305.046875 118.335938 C 301.894531 118.867188 298.742188 119.425781 295.601562 120.03125 C 292.464844 120.65625 289.3125 121.234375 286.257812 122.019531 C 284.726562 122.410156 283.21875 122.863281 281.746094 123.382812 C 281.007812 123.648438 280.285156 123.949219 279.550781 124.234375 C 279.1875 124.382812 278.835938 124.546875 278.472656 124.707031 C 278.113281 124.863281 277.75 125.015625 277.398438 125.191406 C 274.542969 126.515625 271.78125 128.066406 269.117188 129.785156 C 267.773438 130.632812 266.464844 131.535156 265.160156 132.441406 C 263.859375 133.363281 262.574219 134.300781 261.292969 135.253906 C 260.007812 136.199219 258.734375 137.171875 257.457031 138.140625 C 256.175781 139.113281 254.933594 140.078125 253.699219 141.09375 C 252.472656 142.101562 251.269531 143.144531 250.082031 144.203125 C 248.890625 145.261719 247.734375 146.34375 246.574219 147.453125 C 244.234375 149.675781 241.832031 151.789062 239.738281 154.136719 L 239.339844 154.585938 C 239.222656 154.722656 239.132812 154.835938 239.074219 154.945312 C 238.949219 155.160156 238.914062 155.375 238.964844 155.664062 C 238.984375 155.804688 239.035156 155.960938 239.089844 156.109375 L 239.3125 156.582031 L 239.59375 157 C 239.707031 157.121094 239.808594 157.257812 239.929688 157.367188 C 240.414062 157.820312 241.0625 158.09375 241.769531 158.203125 C 242.484375 158.320312 243.246094 158.285156 244 158.1875 C 244.761719 158.085938 245.519531 157.894531 246.273438 157.675781 C 247.027344 157.457031 247.765625 157.179688 248.5 156.890625 C 249.972656 156.300781 251.410156 155.609375 252.824219 154.867188 C 254.238281 154.128906 255.632812 153.332031 257.003906 152.507812 C 258.382812 151.683594 259.738281 150.832031 261.082031 149.957031 C 259.800781 150.921875 258.503906 151.867188 257.179688 152.785156 C 255.851562 153.6875 254.5 154.5625 253.117188 155.390625 C 251.734375 156.222656 250.304688 156.984375 248.832031 157.660156 C 248.089844 157.996094 247.339844 158.3125 246.5625 158.578125 C 245.789062 158.847656 244.996094 159.085938 244.171875 159.230469 C 243.347656 159.382812 242.488281 159.453125 241.609375 159.347656 C 240.738281 159.242188 239.828125 158.914062 239.109375 158.296875 C 238.925781 158.148438 238.773438 157.964844 238.613281 157.792969 C 238.46875 157.613281 238.339844 157.421875 238.203125 157.230469 L 237.890625 156.621094 C 237.796875 156.402344 237.710938 156.175781 237.664062 155.921875 C 237.605469 155.671875 237.582031 155.390625 237.617188 155.113281 C 237.644531 154.832031 237.734375 154.546875 237.859375 154.304688 C 237.984375 154.054688 238.144531 153.851562 238.28125 153.683594 L 238.664062 153.214844 C 239.707031 151.949219 240.839844 150.78125 241.976562 149.632812 L 245.394531 146.246094 C 246.527344 145.105469 247.6875 143.96875 248.863281 142.867188 C 250.042969 141.761719 251.257812 140.6875 252.488281 139.640625 C 253.71875 138.59375 254.996094 137.574219 256.253906 136.585938 C 257.515625 135.589844 258.78125 134.59375 260.058594 133.617188 C 262.621094 131.660156 265.25 129.769531 267.972656 128.007812 C 270.695312 126.238281 273.53125 124.621094 276.488281 123.234375 C 276.855469 123.050781 277.238281 122.898438 277.605469 122.734375 C 277.984375 122.574219 278.355469 122.398438 278.738281 122.25 C 279.5 121.953125 280.257812 121.640625 281.035156 121.371094 C 282.585938 120.832031 284.15625 120.371094 285.738281 119.976562 C 287.316406 119.578125 288.90625 119.234375 290.488281 118.921875 C 292.070312 118.605469 293.640625 118.308594 295.230469 118.027344 C 301.570312 116.910156 307.925781 115.957031 314.296875 115.140625 L 323.839844 113.917969 C 327.003906 113.523438 330.148438 112.96875 333.273438 112.316406 C 336.402344 111.675781 339.503906 110.886719 342.574219 109.980469 C 344.109375 109.53125 345.628906 109.027344 347.140625 108.507812 C 348.652344 107.976562 350.160156 107.421875 351.628906 106.777344 " fill-opacity="1" fill-rule="nonzero"/><path fill="#28183b" d="M 274.222656 136.042969 C 274.308594 136.089844 274.300781 136.210938 274.289062 136.296875 C 274.28125 136.390625 274.253906 136.480469 274.226562 136.570312 C 274.167969 136.746094 274.097656 136.914062 274.019531 137.082031 C 273.867188 137.421875 273.695312 137.746094 273.523438 138.070312 C 273.164062 138.714844 272.78125 139.339844 272.390625 139.960938 C 271.617188 141.207031 270.785156 142.414062 269.957031 143.621094 C 269.121094 144.820312 268.25 146.011719 267.375 147.171875 C 266.503906 148.347656 265.617188 149.507812 264.722656 150.664062 C 261.125 155.28125 257.3125 159.765625 253.039062 163.84375 C 251.964844 164.851562 250.875 165.851562 249.753906 166.808594 C 249.1875 167.28125 248.621094 167.761719 248.039062 168.214844 L 247.167969 168.90625 L 246.285156 169.574219 C 243.921875 171.363281 241.378906 172.925781 238.804688 174.320312 C 236.226562 175.722656 233.648438 177.03125 231.199219 178.554688 C 231.042969 178.648438 230.882812 178.742188 230.75 178.839844 C 230.613281 178.933594 230.46875 179.023438 230.34375 179.132812 C 230.210938 179.238281 230.082031 179.347656 229.964844 179.46875 L 229.78125 179.644531 C 229.71875 179.707031 229.667969 179.769531 229.613281 179.835938 C 229.164062 180.347656 228.8125 180.949219 228.554688 181.59375 C 228.046875 182.886719 228 184.394531 228.460938 185.78125 C 228.121094 185.136719 227.90625 184.410156 227.816406 183.667969 C 227.738281 182.921875 227.792969 182.15625 227.984375 181.410156 C 228.167969 180.667969 228.503906 179.957031 228.953125 179.320312 C 229.007812 179.242188 229.0625 179.160156 229.125 179.082031 L 229.3125 178.859375 C 229.433594 178.703125 229.574219 178.566406 229.710938 178.425781 C 229.847656 178.28125 230 178.15625 230.152344 178.03125 C 230.304688 177.898438 230.453125 177.792969 230.59375 177.683594 C 232.949219 175.894531 235.488281 174.382812 237.949219 172.851562 C 239.179688 172.085938 240.398438 171.3125 241.582031 170.5 C 242.765625 169.683594 243.917969 168.84375 245.039062 167.949219 L 245.886719 167.273438 L 246.71875 166.589844 C 247.277344 166.140625 247.816406 165.660156 248.359375 165.191406 C 248.910156 164.726562 249.433594 164.230469 249.972656 163.753906 C 250.507812 163.273438 251.023438 162.769531 251.554688 162.28125 C 255.726562 158.296875 259.597656 153.976562 263.417969 149.589844 L 266.277344 146.285156 C 267.230469 145.183594 268.183594 144.089844 269.121094 142.976562 C 270.066406 141.871094 270.992188 140.746094 271.90625 139.617188 C 272.367188 139.050781 272.816406 138.480469 273.246094 137.894531 C 273.464844 137.605469 273.675781 137.308594 273.875 137.003906 C 273.972656 136.851562 274.0625 136.695312 274.144531 136.535156 C 274.183594 136.457031 274.222656 136.371094 274.246094 136.285156 C 274.269531 136.207031 274.296875 136.101562 274.222656 136.042969 " fill-opacity="1" fill-rule="nonzero"/><path fill="#28183b" d="M 231.632812 187.320312 C 234.824219 184.933594 238.136719 182.746094 241.460938 180.605469 C 244.800781 178.476562 248.160156 176.402344 251.507812 174.316406 C 254.851562 172.230469 258.179688 170.140625 261.441406 167.945312 C 264.710938 165.753906 267.894531 163.457031 271.023438 160.992188 C 268.527344 164.097656 265.5625 166.824219 262.445312 169.3125 C 259.320312 171.800781 256.023438 174.050781 252.644531 176.152344 C 249.273438 178.25 245.820312 180.207031 242.316406 182.070312 C 238.8125 183.925781 235.273438 185.703125 231.632812 187.320312 " fill-opacity="1" fill-rule="nonzero"/><path fill="#28183b" d="M 235.421875 190.34375 C 239.363281 189.304688 243.242188 188.210938 246.984375 186.796875 C 250.734375 185.398438 254.34375 183.703125 257.832031 181.753906 C 261.316406 179.800781 264.699219 177.636719 268.023438 175.367188 C 271.363281 173.105469 274.648438 170.738281 278.039062 168.46875 C 275.230469 171.429688 272.210938 174.171875 269.03125 176.730469 C 265.847656 179.289062 262.476562 181.632812 258.882812 183.640625 C 255.292969 185.648438 251.472656 187.273438 247.515625 188.40625 C 243.5625 189.535156 239.496094 190.1875 235.421875 190.34375 " fill-opacity="1" fill-rule="nonzero"/><path fill="#28183b" d="M 286.632812 174.277344 C 283.292969 177.195312 279.820312 179.9375 276.230469 182.535156 C 272.632812 185.121094 268.894531 187.546875 264.941406 189.632812 C 260.996094 191.71875 256.824219 193.457031 252.46875 194.554688 C 251.921875 194.683594 251.371094 194.792969 250.824219 194.90625 L 249.996094 195.078125 C 249.859375 195.109375 249.722656 195.140625 249.589844 195.160156 L 249.167969 195.21875 C 248.054688 195.367188 246.953125 195.5625 245.835938 195.605469 L 244.160156 195.703125 C 243.582031 195.734375 242.988281 195.671875 242.425781 195.539062 C 241.863281 195.398438 241.324219 195.195312 240.824219 194.917969 C 240.332031 194.640625 239.875 194.300781 239.484375 193.90625 C 239.957031 194.203125 240.445312 194.453125 240.960938 194.621094 C 241.464844 194.796875 241.992188 194.902344 242.523438 194.945312 C 243.050781 194.976562 243.5625 194.964844 244.082031 194.859375 L 245.695312 194.550781 L 246.496094 194.402344 C 246.761719 194.359375 247.027344 194.277344 247.292969 194.21875 L 248.878906 193.828125 L 249.273438 193.734375 C 249.40625 193.699219 249.535156 193.65625 249.664062 193.621094 L 250.445312 193.386719 L 252.003906 192.921875 C 256.125 191.558594 260.082031 189.753906 263.9375 187.722656 C 267.792969 185.691406 271.546875 183.429688 275.292969 181.128906 C 279.042969 178.824219 282.773438 176.464844 286.632812 174.277344 " fill-opacity="1" fill-rule="nonzero"/><path fill="#28183b" d="M 366.351562 139.316406 L 350.140625 143.597656 C 347.441406 144.308594 344.746094 145.027344 342.054688 145.765625 C 339.363281 146.507812 336.671875 147.238281 334 148.019531 C 331.324219 148.800781 328.660156 149.609375 326.046875 150.492188 C 325.714844 150.605469 325.398438 150.722656 325.070312 150.835938 L 324.589844 151.011719 L 324.113281 151.195312 C 323.792969 151.320312 323.476562 151.445312 323.171875 151.582031 L 322.710938 151.777344 L 322.277344 151.992188 C 321.113281 152.597656 319.976562 153.347656 318.902344 154.15625 C 317.824219 154.964844 316.804688 155.863281 315.824219 156.800781 C 315.328125 157.261719 314.863281 157.757812 314.390625 158.25 C 313.9375 158.753906 313.476562 159.257812 313.046875 159.785156 C 312.183594 160.832031 311.359375 161.910156 310.628906 163.050781 C 310.261719 163.617188 309.902344 164.1875 309.582031 164.777344 C 309.5 164.925781 309.414062 165.070312 309.339844 165.21875 L 309.113281 165.664062 L 308.886719 166.113281 L 308.636719 166.59375 C 307.296875 169.207031 305.53125 171.539062 303.542969 173.601562 C 301.558594 175.675781 299.390625 177.542969 297.109375 179.226562 C 294.816406 180.910156 292.429688 182.433594 289.988281 183.851562 C 288.757812 184.550781 287.539062 185.226562 286.316406 185.902344 L 282.632812 187.910156 C 280.164062 189.234375 277.6875 190.550781 275.175781 191.792969 C 272.660156 193.03125 270.128906 194.230469 267.542969 195.332031 C 264.957031 196.417969 262.332031 197.433594 259.628906 198.214844 C 258.953125 198.398438 258.28125 198.621094 257.566406 198.726562 C 256.859375 198.84375 256.140625 198.871094 255.429688 198.820312 C 254.011719 198.714844 252.632812 198.261719 251.445312 197.527344 C 252.691406 198.152344 254.070312 198.5 255.445312 198.496094 C 256.128906 198.496094 256.8125 198.425781 257.476562 198.277344 C 258.140625 198.128906 258.785156 197.871094 259.445312 197.644531 C 262.058594 196.707031 264.605469 195.582031 267.105469 194.367188 C 269.613281 193.160156 272.082031 191.871094 274.523438 190.535156 C 276.96875 189.199219 279.398438 187.835938 281.808594 186.4375 L 289.027344 182.214844 C 291.390625 180.785156 293.691406 179.257812 295.882812 177.589844 C 298.066406 175.925781 300.144531 174.132812 302.011719 172.152344 C 303.882812 170.183594 305.503906 167.996094 306.710938 165.621094 L 306.945312 165.175781 L 307.195312 164.691406 L 307.445312 164.203125 C 307.53125 164.042969 307.625 163.886719 307.714844 163.730469 C 308.066406 163.09375 308.453125 162.480469 308.84375 161.875 C 309.632812 160.667969 310.511719 159.53125 311.4375 158.425781 C 311.890625 157.875 312.378906 157.347656 312.859375 156.816406 C 313.363281 156.300781 313.859375 155.785156 314.386719 155.292969 C 315.425781 154.308594 316.515625 153.359375 317.6875 152.519531 C 318.859375 151.667969 320.078125 150.894531 321.402344 150.234375 L 321.914062 149.992188 L 322.421875 149.785156 C 322.757812 149.640625 323.097656 149.519531 323.429688 149.398438 L 323.9375 149.210938 L 324.4375 149.039062 C 324.777344 148.925781 325.109375 148.808594 325.445312 148.703125 C 326.792969 148.265625 328.136719 147.871094 329.492188 147.484375 C 330.84375 147.113281 332.199219 146.75 333.554688 146.402344 C 336.269531 145.703125 338.984375 145.027344 341.710938 144.402344 C 344.4375 143.773438 347.164062 143.160156 349.898438 142.570312 C 355.367188 141.410156 360.84375 140.292969 366.351562 139.316406 " fill-opacity="1" fill-rule="nonzero"/><path fill="#28183b" d="M 140.457031 187.097656 C 141.976562 189.144531 143.351562 191.300781 144.667969 193.488281 C 145.980469 195.683594 147.199219 197.929688 148.34375 200.21875 C 149.480469 202.515625 150.527344 204.855469 151.472656 207.242188 C 152.425781 209.628906 153.246094 212.070312 153.953125 214.546875 C 154.308594 215.78125 154.621094 217.035156 154.90625 218.296875 L 155.105469 219.246094 C 155.171875 219.566406 155.238281 219.878906 155.289062 220.195312 C 155.394531 220.835938 155.515625 221.472656 155.609375 222.117188 C 155.988281 224.675781 156.195312 227.277344 156.148438 229.886719 C 156.15625 230.214844 156.125 230.542969 156.113281 230.867188 L 156.066406 231.847656 C 156.058594 232.164062 156.003906 232.515625 155.964844 232.863281 C 155.9375 233.035156 155.929688 233.210938 155.886719 233.378906 L 155.777344 233.890625 C 155.472656 235.246094 154.929688 236.539062 154.242188 237.71875 C 153.550781 238.898438 152.714844 239.972656 151.800781 240.949219 C 150.882812 241.917969 149.886719 242.800781 148.855469 243.621094 C 146.773438 245.238281 144.527344 246.578125 142.230469 247.773438 C 141.074219 248.363281 139.910156 248.929688 138.730469 249.449219 C 138.144531 249.71875 137.546875 249.960938 136.953125 250.214844 C 136.359375 250.457031 135.761719 250.703125 135.160156 250.929688 C 132.753906 251.847656 130.324219 252.675781 127.875 253.421875 C 126.648438 253.796875 125.417969 254.15625 124.179688 254.492188 C 122.945312 254.828125 121.707031 255.144531 120.460938 255.449219 C 117.980469 256.046875 115.484375 256.617188 112.980469 257.109375 C 110.472656 257.597656 107.960938 258.046875 105.441406 258.449219 C 100.398438 259.226562 95.335938 259.878906 90.25 260.234375 C 95.28125 259.40625 100.277344 258.472656 105.25 257.40625 C 107.734375 256.882812 110.210938 256.324219 112.675781 255.722656 C 115.140625 255.121094 117.597656 254.5 120.039062 253.816406 C 121.257812 253.472656 122.472656 253.121094 123.683594 252.75 C 124.894531 252.382812 126.101562 252.011719 127.304688 251.617188 C 129.703125 250.832031 132.078125 249.96875 134.410156 249.027344 C 136.746094 248.085938 139.039062 247.058594 141.253906 245.902344 C 143.460938 244.734375 145.59375 243.433594 147.527344 241.917969 C 148.496094 241.164062 149.414062 240.355469 150.25 239.480469 C 151.082031 238.605469 151.824219 237.65625 152.425781 236.644531 C 153.027344 235.632812 153.484375 234.550781 153.746094 233.425781 L 153.84375 233.003906 C 153.878906 232.863281 153.882812 232.71875 153.90625 232.574219 C 153.945312 232.289062 153.992188 232.015625 154 231.695312 C 154.03125 231.074219 154.089844 230.457031 154.109375 229.835938 C 154.300781 224.863281 153.519531 219.863281 152.332031 214.976562 C 151.730469 212.53125 150.980469 210.125 150.152344 207.734375 C 149.328125 205.34375 148.398438 202.988281 147.390625 200.664062 C 146.890625 199.5 146.363281 198.34375 145.828125 197.195312 C 145.28125 196.046875 144.722656 194.910156 144.144531 193.777344 C 143.570312 192.644531 142.976562 191.519531 142.359375 190.410156 C 141.753906 189.292969 141.117188 188.1875 140.457031 187.097656 " fill-opacity="1" fill-rule="nonzero"/><path fill="#28183b" d="M 176.601562 162.507812 C 173.054688 165.785156 168.964844 168.53125 164.46875 170.503906 C 159.984375 172.476562 155.085938 173.625 150.148438 173.769531 C 145.207031 173.917969 140.273438 173.085938 135.644531 171.527344 C 131.011719 169.960938 126.652344 167.703125 122.699219 164.9375 C 127.097656 166.925781 131.550781 168.695312 136.132812 169.898438 C 140.703125 171.109375 145.402344 171.746094 150.082031 171.605469 C 154.761719 171.472656 159.40625 170.539062 163.84375 168.933594 C 168.292969 167.339844 172.511719 165.070312 176.601562 162.507812 " fill-opacity="1" fill-rule="nonzero"/><path fill="#28183b" d="M 119.121094 161.25 C 117.371094 157.125 115.371094 153.152344 112.890625 149.535156 C 112.273438 148.632812 111.628906 147.75 110.949219 146.902344 C 110.261719 146.054688 109.550781 145.238281 108.804688 144.457031 C 108.054688 143.679688 107.273438 142.945312 106.449219 142.261719 C 105.625 141.582031 104.769531 140.941406 103.867188 140.382812 C 102.96875 139.8125 102.035156 139.316406 101.0625 138.90625 C 100.582031 138.6875 100.085938 138.511719 99.589844 138.332031 C 99.089844 138.160156 98.585938 138.019531 98.070312 137.890625 C 97.046875 137.640625 96 137.488281 94.945312 137.417969 C 94.683594 137.398438 94.417969 137.390625 94.152344 137.382812 L 93.761719 137.382812 L 93.410156 137.398438 L 93.234375 137.410156 L 93.066406 137.441406 L 92.71875 137.496094 L 92.386719 137.597656 C 92.332031 137.617188 92.277344 137.625 92.222656 137.648438 L 92.058594 137.714844 C 91.199219 138.0625 90.460938 138.71875 89.953125 139.542969 C 89.703125 139.960938 89.535156 140.425781 89.40625 140.902344 L 89.335938 141.269531 C 89.324219 141.328125 89.3125 141.390625 89.304688 141.453125 L 89.292969 141.636719 C 89.285156 141.765625 89.273438 141.890625 89.269531 142.015625 L 89.28125 142.394531 C 89.28125 142.523438 89.300781 142.648438 89.320312 142.773438 C 89.339844 142.898438 89.355469 143.023438 89.378906 143.152344 C 89.433594 143.410156 89.5 143.667969 89.582031 143.921875 C 89.734375 144.429688 89.945312 144.929688 90.1875 145.421875 C 90.425781 145.910156 90.707031 146.382812 91.015625 146.84375 C 91.320312 147.304688 91.660156 147.75 92.011719 148.1875 C 91.132812 147.484375 90.339844 146.664062 89.671875 145.730469 C 89.335938 145.261719 89.042969 144.761719 88.789062 144.230469 C 88.664062 143.964844 88.558594 143.691406 88.457031 143.410156 C 88.414062 143.269531 88.375 143.121094 88.335938 142.976562 C 88.292969 142.828125 88.25 142.679688 88.230469 142.527344 L 88.160156 142.074219 C 88.144531 141.921875 88.140625 141.769531 88.132812 141.613281 L 88.125 141.382812 C 88.125 141.304688 88.132812 141.230469 88.136719 141.148438 L 88.167969 140.6875 C 88.261719 140.070312 88.429688 139.457031 88.699219 138.882812 C 89.242188 137.746094 90.171875 136.75 91.347656 136.175781 L 91.570312 136.0625 C 91.640625 136.03125 91.71875 136.003906 91.792969 135.972656 L 92.253906 135.804688 L 92.726562 135.6875 L 92.96875 135.628906 L 93.207031 135.601562 L 93.691406 135.542969 L 94.132812 135.519531 C 94.429688 135.515625 94.722656 135.511719 95.015625 135.511719 C 96.191406 135.519531 97.363281 135.65625 98.519531 135.894531 C 100.832031 136.367188 103.027344 137.316406 105.015625 138.550781 C 106.988281 139.808594 108.757812 141.351562 110.300781 143.066406 C 111.839844 144.785156 113.175781 146.660156 114.320312 148.628906 C 116.613281 152.570312 118.222656 156.851562 119.121094 161.25 " fill-opacity="1" fill-rule="nonzero"/><g clip-path="url(#478837404b)"><path fill="#28183b" d="M 71.84375 134.117188 C 70.027344 134.273438 68.222656 134.519531 66.425781 134.808594 C 64.625 135.082031 62.835938 135.40625 61.050781 135.769531 C 57.492188 136.503906 53.960938 137.375 50.488281 138.429688 C 47.015625 139.480469 43.59375 140.695312 40.265625 142.105469 C 38.601562 142.816406 36.957031 143.5625 35.335938 144.363281 C 33.71875 145.164062 32.132812 146.027344 30.574219 146.933594 C 29.015625 147.839844 27.507812 148.820312 26.023438 149.84375 C 24.542969 150.863281 23.109375 151.949219 21.726562 153.089844 C 20.335938 154.222656 19.011719 155.433594 17.746094 156.699219 C 16.46875 157.957031 15.277344 159.296875 14.140625 160.675781 L 13.304688 161.722656 L 12.5 162.792969 C 12.226562 163.148438 11.976562 163.519531 11.722656 163.886719 C 11.472656 164.253906 11.203125 164.613281 10.96875 164.992188 L 10.246094 166.121094 C 10.011719 166.5 9.792969 166.890625 9.566406 167.269531 L 9.222656 167.847656 C 9.117188 168.042969 9.011719 168.238281 8.910156 168.4375 L 8.277344 169.621094 L 7.695312 170.824219 L 7.40625 171.425781 L 7.140625 172.039062 C 6.960938 172.449219 6.78125 172.859375 6.609375 173.273438 L 6.125 174.519531 C 6.042969 174.726562 5.957031 174.933594 5.882812 175.144531 L 5.667969 175.78125 L 5.238281 177.046875 L 4.855469 178.328125 L 4.667969 178.972656 L 4.5 179.621094 L 4.167969 180.917969 C 4.058594 181.355469 3.972656 181.792969 3.878906 182.230469 C 3.671875 183.101562 3.53125 183.988281 3.375 184.867188 C 3.292969 185.308594 3.234375 185.75 3.171875 186.195312 L 2.988281 187.53125 L 2.84375 188.871094 C 2.796875 189.320312 2.738281 189.765625 2.714844 190.214844 C 2.644531 191.109375 2.570312 192.003906 2.546875 192.898438 C 2.53125 193.347656 2.496094 193.796875 2.496094 194.246094 L 2.484375 195.589844 C 2.492188 197.382812 2.558594 199.175781 2.730469 200.957031 C 2.789062 201.851562 2.917969 202.742188 3.023438 203.628906 C 3.164062 204.511719 3.28125 205.402344 3.464844 206.277344 C 3.613281 207.160156 3.832031 208.03125 4.023438 208.902344 C 4.25 209.769531 4.464844 210.640625 4.734375 211.492188 C 5.761719 214.925781 7.15625 218.242188 8.867188 221.402344 C 10.574219 224.558594 12.644531 227.515625 14.945312 230.289062 C 17.246094 233.058594 19.816406 235.617188 22.574219 237.957031 C 25.328125 240.304688 28.28125 242.429688 31.367188 244.34375 C 32.90625 245.300781 34.492188 246.199219 36.105469 247.039062 C 37.71875 247.878906 39.355469 248.675781 41.054688 249.34375 C 37.589844 248.191406 34.269531 246.625 31.0625 244.859375 C 27.863281 243.085938 24.800781 241.042969 21.90625 238.777344 C 19.023438 236.5 16.320312 233.976562 13.871094 231.214844 C 12.644531 229.835938 11.492188 228.386719 10.410156 226.886719 C 9.328125 225.386719 8.316406 223.832031 7.398438 222.222656 C 3.664062 215.8125 1.445312 208.539062 0.691406 201.152344 C 0.300781 197.460938 0.328125 193.734375 0.609375 190.039062 C 0.636719 189.574219 0.691406 189.121094 0.738281 188.65625 L 0.878906 187.277344 L 1.066406 185.902344 C 1.125 185.441406 1.183594 184.980469 1.269531 184.527344 C 1.425781 183.609375 1.570312 182.695312 1.773438 181.785156 C 1.875 181.332031 1.960938 180.871094 2.066406 180.421875 L 2.414062 179.070312 L 2.589844 178.394531 L 2.789062 177.726562 L 3.195312 176.390625 L 3.652344 175.070312 L 3.878906 174.410156 C 3.957031 174.191406 4.046875 173.976562 4.132812 173.757812 L 4.640625 172.457031 C 4.820312 172.03125 5.015625 171.605469 5.203125 171.179688 L 5.480469 170.539062 L 5.785156 169.910156 L 6.398438 168.65625 L 7.0625 167.429688 C 7.175781 167.222656 7.28125 167.015625 7.402344 166.8125 L 7.757812 166.214844 C 7.996094 165.816406 8.222656 165.410156 8.472656 165.015625 L 9.230469 163.84375 C 10.273438 162.300781 11.359375 160.785156 12.574219 159.375 C 17.359375 153.675781 23.296875 149.039062 29.742188 145.476562 C 32.96875 143.6875 36.308594 142.128906 39.738281 140.796875 C 43.164062 139.476562 46.664062 138.351562 50.203125 137.414062 C 53.753906 136.5 57.332031 135.742188 60.949219 135.183594 C 64.5625 134.628906 68.199219 134.226562 71.84375 134.117188 " fill-opacity="1" fill-rule="nonzero"/></g><path fill="#28183b" d="M 77.535156 143.875 C 72.34375 147.667969 67.089844 151.339844 61.957031 155.160156 C 56.839844 158.988281 51.796875 162.90625 47.109375 167.195312 C 45.9375 168.265625 44.785156 169.355469 43.671875 170.476562 C 42.546875 171.59375 41.46875 172.746094 40.414062 173.929688 C 38.316406 176.285156 36.375 178.78125 34.714844 181.453125 C 34.316406 182.128906 33.886719 182.792969 33.535156 183.496094 L 32.984375 184.535156 L 32.480469 185.601562 C 32.125 186.304688 31.851562 187.039062 31.558594 187.769531 C 31.402344 188.132812 31.289062 188.507812 31.167969 188.882812 L 30.800781 190.007812 C 29.914062 193.03125 29.546875 196.222656 29.675781 199.4375 C 29.066406 196.269531 29.144531 192.964844 29.769531 189.753906 C 29.859375 189.351562 29.964844 188.957031 30.0625 188.558594 C 30.164062 188.160156 30.25 187.761719 30.382812 187.375 C 30.632812 186.59375 30.863281 185.804688 31.179688 185.050781 C 31.324219 184.667969 31.464844 184.28125 31.625 183.90625 L 32.144531 182.792969 C 32.472656 182.035156 32.882812 181.328125 33.257812 180.605469 C 34.824219 177.71875 36.769531 175.070312 38.867188 172.585938 C 39.921875 171.34375 41.023438 170.144531 42.152344 168.980469 C 43.289062 167.820312 44.460938 166.695312 45.65625 165.597656 C 50.445312 161.230469 55.636719 157.359375 60.992188 153.785156 C 66.34375 150.203125 71.867188 146.910156 77.535156 143.875 " fill-opacity="1" fill-rule="nonzero"/><path fill="#28183b" d="M 36.640625 242.980469 C 34.367188 240.730469 32.53125 238.035156 31.125 235.121094 C 29.71875 232.203125 28.753906 229.070312 28.21875 225.875 C 27.675781 222.683594 27.550781 219.4375 27.769531 216.230469 C 27.996094 213.023438 28.546875 209.859375 29.488281 206.804688 C 29.4375 210 29.359375 213.144531 29.464844 216.265625 C 29.566406 219.382812 29.832031 222.472656 30.34375 225.515625 C 30.859375 228.558594 31.621094 231.550781 32.683594 234.460938 C 33.730469 237.378906 35.082031 240.191406 36.640625 242.980469 " fill-opacity="1" fill-rule="nonzero"/><path fill="#28183b" d="M 164.050781 211.996094 C 162.769531 217.949219 161.566406 223.894531 160.632812 229.859375 C 160.179688 232.84375 159.777344 235.832031 159.550781 238.816406 C 159.425781 240.3125 159.359375 241.800781 159.339844 243.289062 C 159.324219 244.773438 159.382812 246.25 159.550781 247.691406 C 159.714844 249.132812 159.996094 250.558594 160.53125 251.804688 C 161.050781 253.042969 161.902344 254.136719 162.9375 255.082031 C 163.972656 256.03125 165.1875 256.816406 166.46875 257.503906 C 167.757812 258.183594 169.121094 258.757812 170.519531 259.253906 C 173.316406 260.246094 176.25 260.945312 179.210938 261.503906 C 182.171875 262.066406 185.175781 262.460938 188.203125 262.742188 C 186.683594 262.847656 185.160156 262.859375 183.632812 262.824219 C 182.109375 262.792969 180.585938 262.691406 179.058594 262.554688 C 176.015625 262.257812 172.972656 261.75 169.996094 260.867188 C 168.507812 260.425781 167.035156 259.894531 165.613281 259.207031 C 164.191406 258.523438 162.816406 257.683594 161.578125 256.617188 C 160.34375 255.546875 159.261719 254.214844 158.574219 252.65625 C 157.902344 251.105469 157.597656 249.519531 157.40625 247.949219 C 157.054688 244.796875 157.203125 241.695312 157.515625 238.632812 C 157.585938 237.867188 157.695312 237.105469 157.789062 236.34375 C 157.894531 235.582031 158 234.824219 158.128906 234.070312 C 158.367188 232.554688 158.664062 231.050781 158.972656 229.554688 C 159.601562 226.566406 160.34375 223.601562 161.1875 220.675781 C 162.046875 217.75 162.957031 214.839844 164.050781 211.996094 " fill-opacity="1" fill-rule="nonzero"/><g clip-path="url(#977d548f80)"><path fill="#28183b" d="M 338.757812 260.234375 C 327.566406 261.726562 316.34375 262.917969 305.113281 263.964844 C 302.300781 264.234375 299.492188 264.488281 296.683594 264.71875 L 288.246094 265.414062 C 282.621094 265.847656 276.988281 266.234375 271.359375 266.597656 C 265.726562 266.929688 260.089844 267.242188 254.449219 267.480469 C 251.628906 267.601562 248.808594 267.6875 245.988281 267.78125 L 241.757812 267.902344 L 237.519531 267.96875 C 236.109375 267.996094 234.699219 268.003906 233.285156 268.011719 C 231.875 268.019531 230.460938 268.039062 229.046875 268.015625 C 226.222656 268 223.398438 267.945312 220.574219 267.859375 C 219.164062 267.792969 217.75 267.75 216.339844 267.667969 L 214.222656 267.539062 L 213.167969 267.46875 C 212.816406 267.449219 212.464844 267.410156 212.109375 267.375 L 210 267.183594 L 209.472656 267.136719 L 207.890625 266.9375 L 206.84375 266.800781 L 206.316406 266.730469 L 205.796875 266.636719 L 203.710938 266.261719 L 205.816406 266.46875 L 206.339844 266.523438 L 206.871094 266.554688 L 207.925781 266.613281 L 208.976562 266.675781 L 209.503906 266.707031 L 210.03125 266.722656 L 212.140625 266.78125 C 212.84375 266.804688 213.546875 266.804688 214.25 266.8125 L 216.363281 266.832031 C 217.769531 266.839844 219.179688 266.804688 220.585938 266.796875 C 223.398438 266.757812 226.21875 266.699219 229.03125 266.601562 L 233.25 266.453125 C 234.660156 266.402344 236.066406 266.351562 237.472656 266.285156 L 245.914062 265.890625 C 248.726562 265.746094 251.535156 265.605469 254.351562 265.4375 C 259.976562 265.136719 265.601562 264.804688 271.226562 264.441406 C 276.851562 264.121094 282.476562 263.742188 288.101562 263.378906 L 304.980469 262.289062 C 316.230469 261.5625 327.484375 260.835938 338.757812 260.234375 " fill-opacity="1" fill-rule="nonzero"/></g><path fill="#28183b" d="M 349.296875 211.996094 C 338.324219 211.78125 327.363281 211.324219 316.410156 210.773438 L 312.300781 210.5625 L 308.195312 210.332031 L 299.980469 209.863281 C 294.507812 209.527344 289.039062 209.15625 283.5625 208.789062 L 275.359375 208.175781 L 271.257812 207.867188 C 269.890625 207.761719 268.523438 207.660156 267.15625 207.539062 C 261.691406 207.070312 256.222656 206.628906 250.761719 206.082031 C 248.035156 205.824219 245.304688 205.554688 242.574219 205.257812 L 238.484375 204.816406 L 234.394531 204.339844 L 230.308594 203.835938 C 228.949219 203.65625 227.589844 203.46875 226.226562 203.277344 L 224.191406 202.984375 L 223.171875 202.835938 L 222.15625 202.664062 L 218.101562 201.945312 C 220.835938 202.199219 223.558594 202.5 226.296875 202.679688 L 230.394531 203.003906 L 234.492188 203.28125 L 238.59375 203.582031 L 242.699219 203.847656 L 250.902344 204.398438 L 255.003906 204.664062 L 259.105469 204.953125 L 267.304688 205.5 L 283.714844 206.632812 L 300.117188 207.828125 C 305.582031 208.253906 311.054688 208.636719 316.519531 209.09375 C 327.449219 209.964844 338.378906 210.890625 349.296875 211.996094 " fill-opacity="1" fill-rule="nonzero"/><g clip-path="url(#8503185448)"><path fill="#28183b" d="M 374.601562 161.300781 C 371.246094 160.789062 367.941406 160.160156 364.636719 159.53125 L 354.765625 157.613281 C 353.941406 157.460938 353.125 157.300781 352.300781 157.15625 C 351.480469 156.996094 350.660156 156.867188 349.832031 156.71875 C 348.191406 156.433594 346.546875 156.175781 344.894531 155.9375 C 343.246094 155.703125 341.597656 155.519531 339.9375 155.414062 C 338.277344 155.316406 336.617188 155.289062 334.941406 155.570312 C 335.132812 155.484375 335.332031 155.398438 335.527344 155.316406 L 335.824219 155.195312 C 335.925781 155.15625 336.027344 155.125 336.128906 155.09375 C 336.539062 154.96875 336.953125 154.835938 337.371094 154.753906 L 338.003906 154.617188 C 338.210938 154.574219 338.425781 154.546875 338.640625 154.511719 L 339.277344 154.417969 C 339.488281 154.390625 339.703125 154.375 339.917969 154.355469 C 341.625 154.1875 343.34375 154.171875 345.050781 154.246094 C 346.753906 154.316406 348.453125 154.480469 350.136719 154.6875 C 350.980469 154.804688 351.820312 154.921875 352.660156 155.054688 C 353.496094 155.1875 354.332031 155.339844 355.167969 155.492188 C 358.496094 156.125 361.789062 156.929688 365.035156 157.882812 C 368.28125 158.84375 371.492188 159.933594 374.601562 161.300781 " fill-opacity="1" fill-rule="nonzero"/></g><g clip-path="url(#e674642da9)"><path fill="#28183b" d="M 32.617188 267.347656 C 40.855469 266.902344 49.089844 266.667969 57.328125 266.507812 C 65.5625 266.351562 73.796875 266.265625 82.03125 266.269531 C 90.269531 266.261719 98.503906 266.351562 106.742188 266.503906 C 114.980469 266.664062 123.214844 266.898438 131.453125 267.347656 C 123.214844 267.800781 114.980469 268.035156 106.742188 268.191406 C 98.503906 268.347656 90.269531 268.433594 82.03125 268.429688 C 73.796875 268.429688 65.5625 268.347656 57.328125 268.1875 C 49.089844 268.03125 40.855469 267.796875 32.617188 267.347656 " fill-opacity="1" fill-rule="nonzero"/></g><g clip-path="url(#3e09e6f32c)"><path fill="#7e9278" d="M 268.234375 113.296875 L 268.195312 113.296875 C 267.28125 113.347656 266.382812 113.859375 265.492188 114.832031 C 261.609375 119.597656 259.007812 122.667969 257.695312 124.050781 C 253.089844 128.742188 246.804688 135.367188 238.835938 143.917969 C 232.6875 150.972656 228.234375 156.15625 225.460938 159.476562 C 227.121094 156.949219 228.957031 154.140625 230.976562 151.03125 C 232.230469 149.273438 236.515625 141.035156 243.828125 126.3125 C 244.355469 125.492188 247.371094 118.554688 252.878906 105.507812 L 256.789062 95.839844 L 259.292969 88.949219 C 262.046875 79.300781 263.582031 74.296875 263.894531 73.945312 C 264.164062 73.332031 264.488281 72.738281 264.875 72.167969 L 268.019531 67.691406 C 268.210938 65.910156 267.644531 64.988281 266.324219 64.914062 L 266.320312 64.914062 C 265.394531 64.890625 264.617188 65.308594 263.988281 66.164062 C 258.828125 73.0625 255.726562 77.453125 254.6875 79.332031 C 252.164062 84.550781 248.917969 90.773438 244.957031 98.015625 L 233.089844 121.542969 C 232.066406 123.988281 230.007812 128.425781 226.925781 134.839844 C 228.835938 126.332031 229.980469 118.71875 230.34375 112.039062 C 230.898438 105.964844 230.632812 99.25 229.550781 91.90625 C 228.535156 86.894531 227.078125 82.019531 225.191406 77.289062 C 225.917969 77.15625 226.808594 76.765625 227.871094 76.121094 C 228.832031 75.554688 230.503906 74.0625 232.882812 71.652344 C 236.382812 67.691406 239.132812 63.355469 241.132812 58.652344 C 243.925781 52.554688 245.457031 47.660156 245.722656 43.976562 C 246.0625 39.144531 245.285156 36.328125 243.382812 35.523438 L 243.347656 35.511719 C 242.117188 34.9375 240.589844 35.992188 238.753906 38.667969 C 236.53125 41.660156 235.199219 43.5 234.757812 44.191406 C 233.765625 45.597656 232.167969 48.027344 229.964844 51.476562 L 227.214844 55.433594 C 226.648438 56.265625 225.863281 57.707031 224.851562 59.75 C 224.207031 61.191406 223.65625 62.640625 223.179688 64.089844 C 222.34375 56.113281 221.746094 48.570312 221.402344 41.472656 C 221.242188 37.214844 221.316406 33.453125 221.617188 30.179688 C 221.796875 27.890625 221.933594 26.449219 222.03125 25.851562 L 222.308594 23.855469 L 223.210938 17.886719 C 223.214844 17.265625 222.953125 16.761719 222.433594 16.371094 L 222.425781 16.363281 C 221.148438 15.753906 220.222656 16.097656 219.664062 17.414062 C 218.835938 22.601562 218.375 25.765625 218.285156 26.898438 C 218.085938 28.988281 217.933594 31 217.828125 32.933594 C 217.765625 33.953125 217.730469 35.148438 217.71875 36.523438 C 217.671875 42.597656 218.355469 52.390625 219.746094 65.886719 C 219.769531 66.152344 219.808594 66.433594 219.84375 66.703125 C 217.578125 62.867188 214.992188 59.007812 212.085938 55.132812 C 210.074219 52.519531 207.792969 49.828125 205.230469 47.058594 C 204.8125 46.527344 202.714844 44.597656 198.941406 41.285156 L 198.628906 40.796875 C 198.75 40.644531 198.867188 40.492188 198.992188 40.316406 C 200.429688 38.066406 201.472656 35.710938 202.113281 33.25 C 203.144531 29.460938 203.09375 25.292969 201.949219 20.753906 C 200.5625 15.367188 198.429688 10.988281 195.558594 7.605469 C 194.542969 6.171875 192.820312 4.511719 190.394531 2.613281 C 188.644531 1.253906 187.042969 0.378906 185.585938 0 L 185.578125 0 C 184.507812 0.0742188 183.855469 0.679688 183.625 1.820312 L 183.648438 2.210938 C 183.8125 2.652344 183.9375 3.265625 184.019531 4.039062 C 184.089844 4.539062 184.125 5.109375 184.128906 5.761719 C 184.167969 7.28125 183.976562 10.433594 183.546875 15.21875 C 183.496094 16.160156 183.488281 17.117188 183.527344 18.082031 C 183.691406 20.761719 184.039062 23.332031 184.566406 25.789062 C 184.730469 26.585938 184.984375 27.425781 185.300781 28.296875 C 184.421875 27.613281 183.496094 26.910156 182.519531 26.183594 C 179.074219 23.730469 176.320312 21.992188 174.234375 20.941406 C 174.574219 19.96875 174.730469 19.089844 174.675781 18.324219 C 174.585938 17.226562 174.332031 16.164062 173.917969 15.140625 C 172.984375 12.96875 172.183594 11.464844 171.523438 10.625 C 168.085938 6.347656 164.210938 5.109375 159.886719 6.925781 L 159.882812 6.925781 C 157.546875 8.097656 155.980469 10.1875 155.1875 13.195312 C 154.640625 15.292969 155.167969 17.597656 156.753906 20.121094 C 158.3125 22.273438 160.636719 23.894531 163.71875 24.984375 C 166.269531 25.566406 169.039062 25.203125 172.03125 23.90625 C 172.039062 23.90625 172.042969 23.902344 172.046875 23.894531 C 173.007812 24.359375 173.625 24.671875 173.90625 24.835938 L 175.929688 26.058594 C 176.644531 26.480469 178.144531 27.5 180.445312 29.117188 C 182.429688 30.585938 184.214844 31.984375 185.816406 33.335938 C 184.566406 33.113281 183.335938 32.960938 182.128906 32.875 C 177.371094 32.554688 173.90625 32.5 171.738281 32.722656 C 166.925781 33.324219 162.664062 34.835938 158.953125 37.265625 C 153.421875 40.792969 150.289062 43.671875 149.554688 45.925781 L 149.554688 45.929688 C 149.421875 47.097656 149.875 47.789062 150.90625 48.003906 C 151.453125 47.992188 152.339844 48.113281 153.582031 48.363281 L 161.929688 50.367188 C 163.992188 50.792969 165.855469 51.132812 167.53125 51.386719 C 170.890625 51.828125 173.726562 51.949219 176.027344 51.757812 C 178.09375 51.53125 180.089844 51.15625 182.015625 50.628906 C 185.96875 49.46875 188.519531 48.601562 189.664062 48.023438 C 191.511719 47.160156 193.472656 45.839844 195.558594 44.066406 C 195.695312 43.960938 195.808594 43.855469 195.933594 43.753906 C 206.976562 53.925781 215.3125 65.28125 220.9375 77.84375 C 223.089844 83.1875 224.609375 88.246094 225.5 93.019531 C 226.460938 99.914062 226.6875 106.125 226.179688 111.648438 C 225.726562 119.171875 224.460938 127.28125 222.386719 135.957031 C 220.898438 142.386719 218.238281 151.597656 214.410156 163.570312 C 214.308594 163.734375 214.210938 163.898438 214.105469 164.066406 C 214.054688 164.304688 214.035156 164.527344 214.035156 164.738281 C 213.90625 165.132812 213.78125 165.523438 213.652344 165.933594 C 213.039062 167.949219 212.347656 170.101562 211.59375 172.386719 C 212.226562 165.847656 212.207031 159.007812 211.484375 151.851562 C 210.070312 140.660156 207.089844 130.4375 202.539062 121.191406 C 200.652344 116.855469 197.671875 111.171875 193.597656 104.140625 L 185.765625 91.964844 C 185.453125 91.503906 184.996094 91.273438 184.394531 91.265625 L 184.34375 91.265625 C 182.480469 91.402344 181.761719 92.507812 182.195312 94.582031 C 182.414062 95.914062 182.617188 96.867188 182.804688 97.445312 C 183.792969 99.898438 184.78125 102.992188 185.773438 106.734375 C 187.765625 114.328125 189.121094 119.988281 189.835938 123.730469 C 191.898438 134.726562 193.40625 144.480469 194.367188 152.984375 L 196.714844 174.929688 C 197.273438 180.785156 197.722656 186.5625 198.046875 192.273438 C 198.113281 192.699219 198.136719 195.050781 198.113281 199.316406 C 197.875 196.6875 197.429688 193.386719 196.769531 189.390625 C 196.402344 186.960938 195.550781 183.84375 194.210938 180.050781 C 191.5625 172.742188 188.136719 166.4375 183.917969 161.144531 C 177.8125 153.382812 172.359375 148.277344 167.578125 145.839844 L 167.519531 145.839844 C 165.820312 146.34375 165.261719 147.664062 165.832031 149.800781 C 168.207031 155.460938 169.691406 159.359375 170.285156 161.496094 C 170.585938 162.324219 171.203125 164.890625 172.132812 169.191406 C 172.976562 172.027344 174.335938 177.316406 176.222656 185.054688 C 177.109375 188.230469 177.917969 190.871094 178.660156 192.976562 C 180.234375 197.515625 182.71875 202.875 186.117188 209.058594 L 192.390625 220.167969 C 192.507812 220.367188 192.628906 220.550781 192.742188 220.726562 C 191.035156 224.214844 188.933594 228.367188 186.425781 233.214844 C 184.804688 236.472656 183.183594 239.226562 181.550781 241.476562 C 181.277344 243.089844 181.929688 244.019531 183.515625 244.261719 C 184.269531 244.824219 185.640625 243.328125 187.636719 239.78125 C 187.777344 239.828125 190.765625 234 196.59375 222.3125 C 196.941406 222.027344 197.183594 221.621094 197.335938 221.070312 C 197.347656 220.972656 197.355469 220.882812 197.355469 220.792969 C 197.4375 220.625 197.523438 220.453125 197.609375 220.277344 C 198.285156 219.167969 199.484375 216.503906 201.195312 212.300781 C 201.269531 212.175781 201.335938 212.054688 201.410156 211.925781 C 201.472656 211.753906 201.53125 211.5625 201.585938 211.335938 C 203.9375 205.515625 207.179688 197.027344 211.316406 185.878906 C 211.453125 185.90625 211.589844 185.929688 211.742188 185.941406 C 222.953125 182.675781 235.503906 172.878906 249.382812 156.554688 C 256.957031 146.535156 262.78125 136.960938 266.855469 127.824219 C 268.527344 124.125 269.695312 120.449219 270.363281 116.78125 C 270.359375 114.664062 269.65625 113.507812 268.234375 113.296875 Z M 164.539062 21.488281 C 162.425781 20.648438 160.859375 19.558594 159.828125 18.226562 C 159.507812 17.917969 159.140625 17.140625 158.726562 15.894531 C 158.589844 15.417969 158.570312 14.839844 158.660156 14.164062 C 159.078125 12.300781 160.007812 10.976562 161.457031 10.183594 L 161.492188 10.164062 C 163.910156 9.144531 166.199219 9.898438 168.355469 12.425781 C 168.976562 13.246094 169.46875 14.074219 169.84375 14.90625 C 170.5 16.210938 170.875 17.191406 170.972656 17.847656 C 170.988281 17.898438 170.996094 17.957031 171.007812 18.011719 L 170.75 17.796875 L 168.613281 15.945312 C 168.234375 15.632812 167.871094 15.371094 167.527344 15.164062 C 167.550781 15.144531 166.335938 14.476562 163.878906 13.152344 C 163.375 12.976562 162.890625 13 162.425781 13.230469 L 162.410156 13.238281 C 161.871094 13.535156 161.550781 13.988281 161.453125 14.609375 C 161.390625 15.226562 161.582031 15.746094 162.03125 16.171875 C 162.136719 16.269531 162.238281 16.339844 162.347656 16.398438 L 165.210938 17.980469 C 165.578125 18.183594 165.828125 18.34375 165.96875 18.449219 L 169.171875 21.167969 C 167.492188 21.679688 165.945312 21.792969 164.539062 21.488281 Z M 187.160156 15.015625 C 187.386719 12.484375 187.546875 10.441406 187.636719 8.882812 C 187.714844 6.882812 187.746094 5.632812 187.714844 5.117188 L 187.75 5.140625 C 190.488281 7.082031 192.707031 9.410156 194.425781 12.125 C 195.984375 14.4375 197.273438 17.394531 198.292969 21.003906 C 199.109375 23.753906 199.398438 26.664062 199.15625 29.75 C 198.804688 31.714844 198.347656 33.417969 197.773438 34.882812 C 197.757812 34.660156 197.738281 34.429688 197.71875 34.183594 C 197.445312 31.84375 197.140625 29.714844 196.800781 27.78125 C 196.375 25.617188 195.898438 23.628906 195.367188 21.816406 C 195.222656 21.316406 195.058594 20.789062 194.878906 20.246094 L 193.476562 16.113281 L 192.65625 13.503906 C 192.351562 12.792969 191.8125 12.410156 191.042969 12.347656 L 191.035156 12.347656 C 190.46875 12.339844 190 12.546875 189.625 12.953125 C 189.257812 13.390625 189.117188 13.882812 189.199219 14.445312 C 189.21875 14.535156 189.238281 14.617188 189.261719 14.699219 L 190.023438 17.128906 L 191.8125 22.507812 C 192.242188 23.933594 192.652344 25.554688 193.042969 27.367188 C 193.359375 28.820312 193.707031 31.066406 194.085938 34.117188 C 194.140625 34.582031 194.191406 35.175781 194.238281 35.902344 C 193.257812 34.972656 192.457031 34.03125 191.847656 33.074219 C 189.808594 29.902344 188.59375 27.390625 188.207031 25.550781 C 187.613281 23.039062 187.238281 20.335938 187.105469 17.429688 C 187.085938 16.675781 187.105469 15.871094 187.160156 15.015625 Z M 187.320312 45.125 C 182.421875 46.933594 178.542969 47.953125 175.664062 48.175781 C 173.554688 48.34375 170.945312 48.21875 167.839844 47.796875 C 166.15625 47.527344 164.40625 47.207031 162.585938 46.828125 C 161.363281 46.558594 158.726562 45.925781 154.6875 44.917969 L 154.710938 44.894531 C 157.136719 42.605469 160.257812 40.503906 164.082031 38.578125 C 166.207031 37.527344 168.886719 36.773438 172.128906 36.320312 C 173.941406 36.140625 176.882812 36.171875 180.957031 36.417969 C 183.210938 36.558594 185.148438 36.824219 186.765625 37.210938 C 188.402344 37.503906 189.800781 38.007812 190.96875 38.71875 C 190.996094 38.734375 191.019531 38.75 191.054688 38.761719 C 189.675781 38.65625 188.785156 38.597656 188.394531 38.585938 C 186.898438 38.515625 185.558594 38.492188 184.371094 38.523438 C 182.671875 38.566406 181.125 38.679688 179.742188 38.863281 C 177.472656 39.160156 175.769531 39.390625 174.636719 39.554688 C 173.601562 39.722656 172.609375 39.90625 171.652344 40.105469 C 171.015625 40.242188 170.269531 40.40625 169.414062 40.597656 C 169.261719 40.640625 169.125 40.691406 169.011719 40.746094 C 168.523438 41.007812 168.210938 41.410156 168.078125 41.957031 C 167.964844 42.519531 168.085938 43.03125 168.4375 43.484375 C 168.808594 43.925781 169.289062 44.144531 169.871094 44.144531 C 169.976562 44.144531 170.082031 44.136719 170.203125 44.105469 C 171.550781 43.800781 172.574219 43.578125 173.273438 43.445312 C 174.042969 43.296875 174.683594 43.183594 175.1875 43.105469 C 179.476562 42.492188 181.929688 42.191406 182.554688 42.191406 C 184.113281 42.09375 185.546875 42.074219 186.867188 42.113281 C 187.796875 42.140625 188.59375 42.179688 189.261719 42.21875 L 191.847656 42.417969 C 190.269531 43.648438 188.765625 44.542969 187.320312 45.125 Z M 228.585938 60.3125 C 229.367188 58.828125 229.863281 57.933594 230.070312 57.644531 C 231.765625 55.3125 233.929688 52.074219 236.578125 47.917969 C 237.839844 45.980469 239.6875 43.410156 242.113281 40.21875 L 242.117188 40.246094 C 242.820312 44.621094 240.824219 51.4375 236.144531 60.699219 C 234.917969 63.140625 233.074219 65.835938 230.617188 68.785156 C 230.21875 69.191406 229.84375 69.578125 229.488281 69.933594 C 229.953125 69.28125 230.34375 68.703125 230.660156 68.207031 C 231.210938 67.390625 232.015625 65.96875 233.074219 63.9375 L 234.671875 60.527344 C 234.90625 59.769531 234.742188 59.117188 234.175781 58.574219 L 234.164062 58.5625 C 233.738281 58.210938 233.261719 58.066406 232.746094 58.128906 C 232.203125 58.214844 231.777344 58.476562 231.476562 58.925781 L 229.917969 62.203125 C 228.964844 64.007812 228.335938 65.140625 228.039062 65.605469 C 227.953125 65.785156 227.402344 66.605469 226.394531 68.058594 L 225.578125 69.175781 C 226.148438 66.246094 227.148438 63.292969 228.585938 60.3125 Z M 182.417969 94.515625 L 182.320312 94.296875 L 182.359375 94.378906 C 182.566406 94.773438 182.585938 94.820312 182.417969 94.515625 Z M 167.726562 148.128906 L 167.714844 148.128906 L 167.664062 148.121094 L 167.65625 148.121094 L 167.714844 148.128906 L 169.550781 148.347656 C 169.980469 148.40625 169.375 148.328125 167.726562 148.128906 Z M 236.957031 122.886719 L 248.601562 99.824219 C 253.203125 91.351562 255.699219 86.5625 256.101562 85.460938 L 256.101562 85.46875 C 255.429688 87.96875 253.550781 93.039062 250.464844 100.671875 C 243.867188 116.378906 240.339844 124.535156 239.863281 125.144531 C 237.789062 129.527344 234.179688 136.550781 229.039062 146.230469 C 228.03125 148.195312 225.59375 152.011719 221.726562 157.675781 C 223.328125 153.347656 225.644531 147.636719 228.675781 140.535156 C 232.660156 132.363281 235.421875 126.484375 236.957031 122.886719 Z M 197.359375 144.195312 C 196.5625 138.582031 195.480469 131.941406 194.101562 124.269531 C 193.195312 119.511719 191.714844 113.273438 189.671875 105.558594 L 189.714844 105.621094 C 195.15625 114.699219 199.394531 123.339844 202.441406 131.542969 C 204.597656 137.089844 206.210938 143.664062 207.292969 151.261719 C 208.183594 159.664062 208.175781 167.292969 207.28125 174.136719 C 206.679688 178.949219 205.679688 183.582031 204.285156 188.042969 L 205.214844 182.296875 L 205.472656 180.578125 C 205.699219 179.117188 206.011719 176.308594 206.410156 172.140625 C 206.6875 168.945312 206.8125 166.085938 206.78125 163.550781 C 206.765625 162.71875 206.730469 161.734375 206.667969 160.589844 C 206.601562 159.28125 206.441406 156.640625 206.203125 152.660156 L 205.960938 147.5 C 205.910156 146.8125 205.570312 146.304688 204.941406 145.96875 L 204.9375 145.964844 C 203.570312 145.554688 202.714844 146.050781 202.367188 147.4375 C 202.363281 147.460938 202.363281 147.5625 202.367188 147.730469 L 202.585938 152.246094 L 203.042969 160.054688 L 203.152344 162.226562 C 203.21875 163.613281 203.214844 165.242188 203.140625 167.09375 C 203.058594 169.738281 202.703125 173.710938 202.070312 179.015625 C 202.050781 179.257812 201.859375 180.539062 201.496094 182.835938 C 201.28125 180.03125 201.027344 177.113281 200.730469 174.058594 C 199.398438 161.960938 198.65625 154.992188 198.5 153.148438 C 197.949219 148.609375 197.574219 145.617188 197.359375 144.195312 Z M 182.457031 191.515625 C 181.730469 189.429688 180.957031 186.910156 180.132812 183.945312 C 178.292969 176.375 176.925781 171.089844 176.042969 168.078125 C 175.125 163.875 174.582031 161.558594 174.40625 161.132812 C 173.890625 159.230469 173.0625 156.847656 171.917969 153.980469 L 171.976562 154.027344 C 175.707031 157.488281 179.484375 161.878906 183.285156 167.203125 C 185.585938 170.398438 187.960938 175.191406 190.414062 181.578125 C 191.992188 185.21875 193.207031 191.273438 194.046875 199.714844 C 194.261719 202.320312 194.300781 204.453125 194.167969 206.101562 C 194.140625 206.734375 194.101562 207.328125 194.054688 207.90625 C 193.820312 207.011719 193.683594 206.480469 193.644531 206.308594 L 191.25 196.523438 C 190.882812 195.089844 190.503906 193.695312 190.113281 192.347656 L 186.984375 182.363281 C 186.820312 181.921875 186.542969 181.59375 186.15625 181.378906 L 186.140625 181.371094 C 185.464844 181.039062 184.820312 181.089844 184.203125 181.507812 C 183.625 181.96875 183.390625 182.574219 183.515625 183.328125 C 184.113281 185.316406 185.046875 188.296875 186.328125 192.269531 L 187.175781 195.214844 C 187.300781 195.492188 188.304688 199.554688 190.199219 207.390625 L 190.496094 208.542969 C 186.621094 201.625 183.9375 195.945312 182.457031 191.515625 Z M 264.710938 122.195312 C 260.246094 133.492188 253.492188 144.800781 244.457031 156.128906 C 239.550781 161.800781 234.015625 167.183594 227.84375 172.285156 C 224.535156 174.8125 221.613281 176.800781 219.050781 178.277344 C 220.796875 177.019531 222.042969 176.101562 222.761719 175.535156 C 223.515625 174.945312 224.542969 174.058594 225.84375 172.878906 C 228.398438 170.550781 230.542969 168.335938 232.269531 166.230469 C 235.246094 162.488281 239.046875 157.960938 243.6875 152.65625 C 244.011719 152.21875 244.140625 151.765625 244.074219 151.296875 L 244.066406 151.257812 C 243.960938 150.585938 243.570312 150.113281 242.898438 149.828125 C 242.226562 149.605469 241.613281 149.730469 241.070312 150.195312 C 236.34375 155.585938 232.398438 160.265625 229.234375 164.242188 C 228.359375 165.273438 227.601562 166.117188 226.953125 166.789062 C 225.304688 168.515625 223.363281 170.328125 221.128906 172.226562 C 220.953125 172.375 220.703125 172.578125 220.382812 172.828125 C 225.488281 165.726562 230.007812 160.042969 233.929688 155.789062 L 241.828125 146.679688 C 250.300781 137.582031 256.324219 131.253906 259.886719 127.679688 C 261.421875 126.042969 263.03125 124.207031 264.710938 122.164062 Z M 264.710938 122.195312 " fill-opacity="1" fill-rule="evenodd"/></g></svg>