<svg xmlns="http://www.w3.org/2000/svg" version="1.1" xmlns:xlink="http://www.w3.org/1999/xlink" width="512" height="512" x="0" y="0" viewBox="0 0 24 24" style="enable-background:new 0 0 512 512" xml:space="preserve" class=""><g><path d="m18.931 16.993-3.465-2.419 4.055-5.844c.798-1.08.515-2.732-.598-3.483A6.689 6.689 0 0 0 15.022 4h-.975c-.818 0-1.587.402-2.055 1.076L9.589 8.544a.5.5 0 0 0 .822.57l2.403-3.467a1.5 1.5 0 0 1 1.232-.646h.975c.324 0 .644.032.959.085l-3.738 5.393a2.504 2.504 0 0 0 .602 3.486l5.515 3.85c.401.28.642.74.642 1.229v4.457a.5.5 0 0 0 1 0v-4.457a2.5 2.5 0 0 0-1.069-2.05Zm-5.869-5.942 3.94-5.684c.471.174.925.398 1.343.696.669.454.839 1.442.356 2.094l-4.056 5.845-1.227-.856a1.503 1.503 0 0 1-.356-2.095ZM21.5 0C20.121 0 19 1.122 19 2.5S20.121 5 21.5 5 24 3.878 24 2.5 22.879 0 21.5 0Zm0 4c-.827 0-1.5-.673-1.5-1.5S20.673 1 21.5 1s1.5.673 1.5 1.5S22.327 4 21.5 4ZM13 16.5v1.299c0 .566-.194 1.121-.549 1.562L8.89 23.813a.5.5 0 0 1-.781-.625l3.562-4.452c.212-.265.329-.597.329-.937V16.5a.5.5 0 0 1 1 0ZM7.036 13H2.193c-.792-.004-1.271 1.016-.772 1.619l.641.882-1.344.388a1.052 1.052 0 0 0-.497 1.64l.728.939c.305.394.828.548 1.288.388l3.506-1.157c.633-.227.868-1.067.434-1.592l-.595-.729 1.78-.518c1.001-.323.733-1.892-.325-1.861Zm-2.461 1.63a.502.502 0 0 0-.247.797l1.078 1.331-3.49 1.151a.165.165 0 0 1-.178-.053l-.724-1.013 2.01-.58a.5.5 0 0 0 .266-.774L2.224 14l4.831-.091-2.48.721ZM.737 8.118l1.324.382-.632.87c-.51.615-.036 1.63.764 1.631h4.852c1.058.023 1.321-1.559.29-1.87l-1.754-.51.603-.738c.426-.527.189-1.364-.465-1.589L2.244 5.147a1.16 1.16 0 0 0-1.297.386l-.727.938a1.056 1.056 0 0 0-.175.949c.098.325.349.583.691.699Zm1.001-1.973c.042-.053.11-.075.186-.051L5.403 7.26 4.329 8.574a.5.5 0 0 0 .247.797l2.461.63H2.228L3.29 8.512a.499.499 0 0 0-.266-.774l-2.013-.654.727-.938Z" fill="#b09763" opacity="1" data-original="#000000" class=""></path></g></svg>