<svg xmlns="http://www.w3.org/2000/svg" version="1.1" xmlns:xlink="http://www.w3.org/1999/xlink" width="512" height="512" x="0" y="0" viewBox="0 0 24 24" style="enable-background:new 0 0 512 512" xml:space="preserve" class=""><g><path d="M7.852 11.319c-.971-1.028-2.737-1.022-3.696-.007l-2.398 2.445a6.007 6.007 0 0 0 0 8.485c1.133 1.133 2.64 1.757 4.242 1.757s3.109-.624 4.243-1.757c2.339-2.339 2.339-6.146.003-8.482l-2.395-2.442Zm1.684 10.217C8.592 22.48 7.336 23 6 23s-2.591-.52-3.535-1.464a5.007 5.007 0 0 1 .003-7.075l2.408-2.456c.295-.312.694-.485 1.124-.485s.829.172 1.131.492l2.405 2.452a5.005 5.005 0 0 1 0 7.071ZM22.409 8.632l-2.21-2.477c-.937-.916-2.461-.917-3.42.025l-2.167 2.431a5.505 5.505 0 0 0 0 7.778C15.651 17.428 17.032 18 18.501 18s2.85-.572 3.889-1.611c2.145-2.145 2.145-5.634.02-7.758Zm-.727 7.051c-.85.85-1.98 1.318-3.182 1.318s-2.332-.468-3.182-1.318c-1.754-1.755-1.754-4.609.02-6.385l2.163-2.427a1.444 1.444 0 0 1 1.009-.407c.354 0 .706.128.966.382l2.206 2.473a4.506 4.506 0 0 1 0 6.364ZM10.122.458a1.615 1.615 0 0 0-2.249.005L6.171 2.172C5.415 2.927 4.999 3.932 4.999 5s.416 2.073 1.172 2.829S7.931 9 8.999 9s2.073-.416 2.829-1.171a4.003 4.003 0 0 0 0-5.656L10.12.458Zm1 6.664c-1.134 1.133-3.11 1.133-4.243 0C6.312 6.555 6 5.802 6 5s.312-1.555.88-2.122l1.698-1.706a.602.602 0 0 1 .424-.171c.152 0 .303.056.416.167l1.704 1.711a3.005 3.005 0 0 1 0 4.243Z" fill="#b09763" opacity="1" data-original="#000000" class=""></path></g></svg>