<svg xmlns="http://www.w3.org/2000/svg" xmlns:xlink="http://www.w3.org/1999/xlink" width="500" zoomAndPan="magnify" viewBox="0 0 375 229.499994" height="306" preserveAspectRatio="xMidYMid meet" version="1.0"><defs><g/><clipPath id="375b164a12"><path d="M 68.5625 1 L 306 1 L 306 153.835938 L 68.5625 153.835938 Z M 68.5625 1 " clip-rule="nonzero"/></clipPath></defs><g clip-path="url(#375b164a12)"><path fill="#473a3a" d="M 237.320312 1.316406 C 229.644531 2.246094 222.105469 7.535156 218.121094 14.78125 L 217.777344 15.40625 L 217.636719 14.992188 C 216.902344 12.832031 214.535156 11.835938 211.855469 12.554688 C 211.527344 12.644531 211.035156 12.6875 210.460938 12.683594 C 203.273438 12.613281 197.242188 20.386719 197.257812 29.695312 C 197.269531 37.859375 201.972656 43.925781 208.292969 43.925781 C 209.25 43.925781 209.238281 43.785156 208.257812 43.574219 C 207.40625 43.390625 206.390625 43.054688 205.984375 42.820312 C 205.746094 42.683594 205.730469 42.660156 205.898438 42.699219 C 207.070312 42.957031 210.640625 42.960938 211.664062 42.699219 C 212.859375 42.398438 212.117188 42.046875 209.519531 41.6875 C 205.578125 41.144531 203.640625 40.335938 202.121094 38.597656 C 199.375 35.457031 199.121094 30.808594 201.425781 25.980469 C 202.015625 24.746094 203.410156 22.484375 203.253906 23.023438 C 202.117188 26.851562 203.183594 33.691406 205.253906 35.890625 C 205.847656 36.519531 206.347656 36.539062 205.910156 35.917969 C 203.167969 32.03125 203.667969 21.832031 206.738281 18.992188 C 208.414062 17.441406 212.988281 14.585938 213.527344 14.753906 C 213.628906 14.785156 214.101562 14.992188 214.574219 15.210938 C 216.285156 16.015625 216.652344 15.726562 215.414062 14.554688 C 215.15625 14.3125 214.976562 14.113281 215.011719 14.113281 C 215.203125 14.113281 215.90625 14.675781 216.378906 15.214844 C 216.675781 15.554688 217.011719 15.925781 217.117188 16.035156 L 217.3125 16.242188 L 216.761719 17.519531 C 214.746094 22.210938 213.730469 28.628906 214.253906 33.371094 C 214.308594 33.859375 214.386719 34.921875 214.429688 35.734375 C 214.472656 36.546875 214.570312 37.480469 214.640625 37.804688 C 214.714844 38.128906 214.796875 38.496094 214.824219 38.617188 C 214.851562 38.746094 214.777344 39.140625 214.652344 39.546875 C 213.941406 41.878906 211.160156 44.632812 206.214844 47.90625 L 204.710938 48.902344 L 204.375 48.535156 C 204.007812 48.136719 202.550781 47.371094 201.472656 47.011719 C 198.234375 45.933594 195.648438 46.480469 188.414062 49.777344 C 186.292969 50.746094 184.851562 51.210938 182.984375 51.523438 L 182.40625 51.621094 L 181.503906 51.121094 C 181.007812 50.847656 179.082031 49.859375 177.222656 48.921875 C 169.4375 45 165.898438 42.214844 155.601562 31.890625 C 149.179688 25.453125 147.363281 23.75 144.566406 21.566406 C 143.417969 20.664062 141.988281 19.6875 141.824219 19.6875 C 141.585938 19.6875 141.726562 19.855469 142.53125 20.527344 C 144.5 22.179688 148.035156 25.730469 152.109375 30.15625 C 161.378906 40.230469 167.757812 45.742188 173.972656 49.054688 C 174.414062 49.289062 176.066406 50.136719 177.648438 50.9375 C 180.257812 52.261719 182.925781 53.695312 182.925781 53.773438 C 182.925781 53.789062 182.683594 53.695312 182.382812 53.558594 C 177.132812 51.203125 167.429688 50.648438 162.234375 52.402344 L 161.167969 52.761719 L 160.75 52.570312 C 160.519531 52.464844 159.4375 52.085938 158.347656 51.730469 C 141.570312 46.28125 133.726562 42.238281 125.746094 34.929688 C 124.195312 33.511719 122.609375 31.976562 121.871094 31.183594 C 121.011719 30.257812 120.84375 30.125 120.84375 30.367188 C 120.84375 30.871094 124.476562 35.234375 126.203125 36.808594 C 126.4375 37.023438 127.050781 37.585938 127.558594 38.0625 C 131.78125 42 137.480469 45.671875 143.464844 48.316406 C 147.589844 50.136719 155.640625 53.097656 158.316406 53.773438 L 158.917969 53.925781 L 158.1875 54.414062 C 156.636719 55.445312 155.582031 56.390625 152.390625 59.589844 C 149.121094 62.875 148.445312 63.472656 147.417969 63.988281 C 145.71875 64.847656 144.5 64.046875 138.917969 58.402344 C 130.6875 50.070312 127.640625 46.148438 119.578125 33.496094 C 115.734375 27.46875 114.101562 25.046875 110.714844 20.363281 C 108.335938 17.070312 105.425781 14.101562 103.832031 13.34375 C 103.28125 13.082031 103.027344 13.105469 103.410156 13.386719 C 104.15625 13.929688 105.683594 15.792969 107.640625 18.546875 C 108.367188 19.570312 109.125 20.617188 109.320312 20.875 C 110.050781 21.824219 113.007812 26.4375 117.667969 33.902344 C 126.289062 47.707031 129.914062 52.347656 138.5 60.554688 C 146.039062 67.765625 146.6875 67.773438 153.660156 60.777344 C 157.542969 56.875 159.046875 55.660156 161.34375 54.566406 C 165.078125 52.789062 170.167969 52.347656 175.871094 53.308594 C 178.792969 53.800781 182.839844 55.109375 182.839844 55.558594 C 182.839844 55.644531 182.902344 55.800781 182.976562 55.90625 C 183.144531 56.144531 183.175781 56.152344 181.109375 55.496094 C 180.273438 55.226562 179.324219 54.929688 178.996094 54.835938 C 177.121094 54.28125 175.359375 54.125 173.421875 54.347656 C 170.890625 54.640625 168.816406 54.59375 167.738281 54.222656 C 167.054688 53.988281 166.726562 54.007812 166.617188 54.292969 C 166.355469 54.984375 168.429688 55.886719 171.609375 56.46875 C 173.5625 56.824219 174.058594 56.964844 175.382812 57.535156 C 177.449219 58.425781 178.160156 58.660156 180.351562 59.171875 C 182.414062 59.65625 182.296875 59.621094 182.3125 59.824219 C 182.332031 60.078125 182.726562 60.453125 183.21875 60.691406 L 183.644531 60.898438 L 183.074219 60.902344 C 181.59375 60.910156 178.378906 60.222656 173.59375 58.878906 C 167.910156 57.28125 165.679688 56.84375 163.121094 56.820312 C 161.738281 56.808594 161.21875 56.875 161.21875 57.0625 C 161.21875 57.207031 161.296875 57.226562 162.582031 57.390625 C 164.53125 57.640625 166.78125 58.242188 171.3125 59.722656 C 175.550781 61.105469 177.253906 61.5625 179.851562 62 C 181.214844 62.230469 181.351562 62.28125 181.480469 62.636719 C 181.535156 62.796875 181.777344 63.140625 182.011719 63.394531 L 182.4375 63.859375 L 181.898438 63.859375 C 181.601562 63.859375 180.753906 63.9375 180.011719 64.03125 C 177.109375 64.394531 175.28125 64.070312 164.894531 61.359375 C 162.515625 60.738281 161.046875 60.785156 160.980469 61.476562 C 160.949219 61.820312 160.96875 61.828125 162.90625 62.261719 C 163.722656 62.445312 165.414062 62.875 166.667969 63.21875 C 167.921875 63.5625 169.652344 64 170.511719 64.195312 C 175.992188 65.425781 175.972656 65.421875 176.421875 65.847656 C 176.632812 66.046875 176.953125 66.3125 177.140625 66.433594 L 177.476562 66.660156 L 176.800781 66.605469 C 175.664062 66.515625 174.390625 66.246094 172.257812 65.636719 C 168.457031 64.558594 167.730469 64.410156 166.160156 64.421875 C 163.828125 64.433594 162.109375 65.191406 160.488281 66.933594 C 159.527344 67.960938 158.960938 68.839844 156.78125 72.6875 C 153.394531 78.679688 150.945312 80.363281 147.824219 78.863281 C 146.8125 78.378906 145.878906 77.585938 143.4375 75.128906 C 139.347656 71.015625 137.527344 69.824219 130.347656 66.566406 C 124.203125 63.773438 120.335938 61.523438 115.863281 58.132812 C 113.46875 56.320312 112.144531 55.210938 107.121094 50.824219 C 103.507812 47.667969 103.582031 47.730469 102.136719 46.578125 C 98.667969 43.820312 95.453125 41.613281 92.820312 40.175781 C 91.285156 39.339844 91.304688 39.5 92.894531 40.757812 C 95.28125 42.640625 96.347656 43.496094 97.746094 44.636719 C 100.113281 46.574219 104.855469 50.679688 107.496094 53.082031 C 116.441406 61.214844 120.632812 64.085938 129.839844 68.378906 C 136.402344 71.4375 138.621094 72.898438 141.835938 76.277344 C 145.527344 80.15625 147.425781 81.347656 149.902344 81.339844 C 150.480469 81.339844 150.683594 81.3125 151.484375 81.132812 L 151.761719 81.070312 L 151.226562 81.945312 C 150.929688 82.429688 150.214844 83.699219 149.628906 84.765625 C 141.761719 99.175781 134.382812 105.148438 122.546875 106.691406 C 119.265625 107.117188 116.390625 107.007812 109.316406 106.175781 C 99.628906 105.042969 92.933594 105.148438 85.496094 106.558594 C 77.152344 108.140625 70.5625 111.152344 68.945312 114.125 C 68.582031 114.796875 68.78125 114.769531 69.476562 114.058594 C 71.917969 111.566406 78.445312 109.160156 85.667969 108.085938 C 93.433594 106.933594 99.238281 107.011719 109.738281 108.410156 C 111.269531 108.617188 112.753906 108.808594 113.03125 108.835938 C 114.121094 108.953125 114.121094 108.964844 112.988281 109.273438 C 103.007812 112 95.292969 118.683594 90.0625 129.140625 C 88.433594 132.398438 87.03125 135.992188 87.390625 135.992188 C 87.5 135.992188 87.664062 135.707031 88.75 133.628906 C 94.582031 122.496094 100.097656 116.53125 107.863281 112.96875 C 109.105469 112.394531 111.640625 111.414062 111.871094 111.414062 C 111.886719 111.414062 111.566406 111.683594 111.15625 112.007812 C 103.230469 118.363281 96.503906 132.273438 94.695312 146.042969 C 94.554688 147.101562 94.433594 150.25 94.523438 150.480469 C 94.636719 150.769531 94.808594 150.4375 94.910156 149.738281 C 95.796875 143.667969 97.046875 139.003906 99.496094 132.613281 C 103.855469 121.246094 110.246094 113.257812 117.390625 110.242188 C 118.140625 109.925781 118.414062 109.867188 120.960938 109.472656 C 122.476562 109.238281 123.785156 109.019531 123.863281 108.992188 C 124.289062 108.839844 123.824219 109.074219 123.082031 109.386719 C 110.199219 114.828125 103.488281 131.503906 107.554688 147.988281 C 108.121094 150.28125 109.308594 153.449219 109.691406 153.6875 C 109.949219 153.84375 109.90625 153.515625 109.519531 152.335938 C 105.9375 141.394531 107.683594 128.144531 113.839844 119.507812 C 117.203125 114.792969 119.9375 112.71875 126.125 110.191406 C 133.042969 107.363281 135.25 106.152344 137.402344 103.988281 C 138.035156 103.359375 138.917969 102.542969 139.363281 102.179688 C 143.679688 98.6875 147.304688 93.710938 151.460938 85.570312 C 153.152344 82.253906 153.492188 81.695312 154.882812 79.910156 C 156.566406 77.742188 157.246094 76.707031 159.066406 73.53125 C 161.484375 69.320312 162.613281 68.085938 164.84375 67.214844 C 166.054688 66.742188 170.65625 67.003906 174.4375 67.761719 C 176.171875 68.109375 178.355469 68.058594 179.3125 67.644531 C 180.128906 67.296875 180.359375 66.355469 179.78125 65.742188 C 179.683594 65.636719 179.636719 65.550781 179.679688 65.546875 C 179.722656 65.546875 179.929688 65.503906 180.136719 65.457031 C 180.347656 65.410156 181.296875 65.347656 182.25 65.3125 C 184.246094 65.246094 184.433594 65.1875 184.761719 64.539062 C 185.144531 63.78125 184.835938 63.050781 183.859375 62.394531 L 183.648438 62.257812 L 183.984375 62.253906 C 185.140625 62.25 185.933594 61.007812 185.339844 60.132812 C 184.84375 59.40625 183.667969 58.917969 180.886719 58.292969 C 179.007812 57.867188 178.320312 57.648438 176.601562 56.914062 C 175.828125 56.582031 174.835938 56.1875 174.394531 56.039062 L 173.59375 55.761719 L 174.269531 55.742188 C 176.632812 55.683594 177.5625 55.832031 180.730469 56.796875 C 184.40625 57.917969 185.875 57.964844 186.234375 56.96875 C 186.320312 56.734375 186.375 56.679688 186.511719 56.714844 C 186.609375 56.738281 187.140625 56.816406 187.699219 56.886719 C 188.644531 57.003906 189.554688 57.074219 194.285156 57.402344 C 201.289062 57.886719 205.222656 59.203125 216.667969 64.902344 C 224.277344 68.6875 227.425781 70.085938 233.816406 72.519531 C 244.5 76.589844 249.492188 77.550781 259.238281 77.429688 C 264.542969 77.359375 266.53125 77.496094 268.414062 78.046875 C 268.96875 78.207031 269.230469 78.304688 271.246094 79.09375 C 273.5625 80 274.011719 79.699219 272.21875 78.445312 C 269.195312 76.324219 266.5625 75.773438 258.929688 75.664062 L 257.605469 75.644531 L 258.875 75.054688 C 262.820312 73.21875 265.5625 71.300781 266 70.058594 L 266.152344 69.632812 L 266.707031 70.046875 C 267.011719 70.277344 267.425781 70.566406 267.625 70.6875 C 271.28125 72.964844 273.980469 76.46875 276.804688 82.613281 C 279.933594 89.425781 280.03125 91.769531 277.269531 93.558594 C 270.800781 97.742188 251.351562 98.210938 228.707031 94.726562 C 223.335938 93.902344 219.996094 93.230469 211.304688 91.238281 C 198.171875 88.226562 193.46875 87.878906 187.148438 89.457031 C 182.011719 90.738281 176.890625 94.097656 175.160156 97.324219 C 174.589844 98.390625 174.5 99.597656 175.042969 98.957031 C 175.160156 98.816406 175.425781 98.503906 175.632812 98.257812 C 180.125 92.972656 189.6875 90.09375 198.722656 91.308594 C 202.132812 91.765625 211.671875 93.742188 211.179688 93.890625 C 204.496094 95.878906 200.421875 99.03125 195.070312 106.359375 C 194.683594 106.886719 194.136719 107.625 193.851562 107.996094 C 192.996094 109.121094 190.824219 112.554688 190.394531 113.460938 C 190.035156 114.222656 190.730469 113.847656 191.695312 112.765625 C 192.585938 111.769531 194.320312 109.695312 194.878906 108.964844 C 196.609375 106.703125 199.984375 103.03125 202.078125 101.140625 C 205.640625 97.925781 209.523438 96.066406 214.414062 95.234375 C 216.082031 94.949219 216.027344 94.945312 218.90625 95.566406 C 237.738281 99.609375 259.300781 100.761719 271.148438 98.355469 C 280.507812 96.457031 283.230469 93.019531 280.851562 86.109375 C 280.59375 85.371094 280.363281 84.695312 280.335938 84.605469 C 280.210938 84.214844 284.429688 85.097656 287.574219 86.121094 C 291.46875 87.390625 298.8125 92.527344 305.046875 98.335938 C 305.386719 98.652344 305.699219 98.914062 305.738281 98.914062 C 306.417969 98.914062 304.65625 96.339844 302.359375 93.984375 C 294.902344 86.339844 286.792969 81.78125 280.210938 81.539062 L 278.96875 81.492188 L 278.132812 79.917969 C 275.757812 75.464844 273.605469 72.765625 271.097656 71.101562 C 269.933594 70.332031 267.542969 69.101562 266.785156 68.886719 L 266.230469 68.726562 L 266.074219 68.265625 C 265.304688 66.003906 260.15625 60.5 259.066406 60.773438 C 258.597656 60.890625 259.007812 61.703125 260.601562 63.820312 C 261.855469 65.488281 263.042969 67.175781 263.511719 67.957031 C 264.300781 69.277344 263.476562 70.191406 259.367188 72.558594 C 257.230469 73.789062 256.230469 74.460938 255.617188 75.082031 L 255.121094 75.585938 L 254.644531 75.546875 C 252.21875 75.34375 250.980469 75.191406 249.175781 74.875 L 248.402344 74.738281 L 248.527344 74.371094 C 248.691406 73.890625 248.972656 73.664062 250.109375 73.09375 C 253.238281 71.527344 253.789062 70.503906 253.050781 67.609375 C 252.585938 65.773438 252.523438 64.867188 252.789062 63.800781 C 252.867188 63.496094 252.992188 63.355469 253.734375 62.75 C 258.167969 59.140625 259.75 55.4375 259.15625 50.09375 C 258.953125 48.269531 258.925781 48.367188 259.789062 47.875 C 263.601562 45.6875 265.609375 41.625 266.625 34.042969 C 267.097656 30.496094 267.023438 28.5 266.25 24.21875 L 266.207031 23.980469 L 267.117188 24.011719 C 270.234375 24.125 271.109375 26.097656 269.449219 29.261719 C 267.152344 33.640625 266.949219 34.566406 267.605469 37.636719 C 268.179688 40.3125 267.84375 41.988281 266.425781 43.488281 C 265.121094 44.875 265.214844 45.261719 266.667969 44.492188 C 268.804688 43.355469 269.578125 40.980469 269.007812 37.3125 C 268.59375 34.652344 268.769531 33.894531 270.492188 30.898438 C 271.746094 28.722656 272.074219 27.75 272.019531 26.390625 C 271.921875 24.125 269.894531 22.59375 267.082031 22.660156 L 266.082031 22.683594 L 265.933594 21.523438 C 265.621094 19.046875 265.140625 17.363281 264.183594 15.421875 C 259.664062 6.222656 247.878906 0.0351562 237.320312 1.316406 M 243.234375 3.433594 C 254.550781 4.765625 262.851562 12.175781 264.164062 22.117188 L 264.320312 23.328125 L 264.144531 23.417969 C 262.996094 24.011719 262.226562 25.265625 263.308594 24.785156 C 264.300781 24.34375 264.425781 24.316406 264.472656 24.527344 C 264.558594 24.925781 264.941406 27.105469 264.941406 27.203125 C 264.941406 27.261719 264.761719 27.109375 264.546875 26.871094 C 263.75 25.984375 262.300781 25.539062 261.808594 26.027344 C 261.574219 26.261719 261.695312 26.398438 262.246094 26.53125 C 263.125 26.742188 263.890625 27.730469 264.101562 28.933594 C 264.269531 29.910156 264.136719 30.777344 263.46875 33.03125 C 262.773438 35.363281 262.867188 36.429688 263.863281 37.625 L 264.207031 38.035156 L 264.054688 38.679688 C 263.191406 42.351562 261.527344 44.902344 259.039062 46.371094 C 257.5 47.277344 257.269531 47.660156 257.371094 49.144531 C 257.800781 55.546875 256.949219 57.605469 252.394531 61.167969 C 249.628906 63.332031 247.976562 64.25 244.542969 65.523438 C 241.277344 66.730469 239.792969 67.351562 237.65625 68.386719 C 233.816406 70.253906 234.203125 70.277344 228.453125 67.804688 C 225.066406 66.351562 225.238281 66.449219 224.503906 65.582031 C 224.144531 65.160156 223.578125 64.492188 223.246094 64.105469 C 219.65625 59.882812 218.121094 55.695312 218.003906 49.796875 C 217.933594 46.371094 218.625 42.394531 219.347656 42.066406 C 219.980469 41.777344 220.039062 41.179688 219.464844 40.894531 L 219.046875 40.6875 L 219.335938 40.589844 C 220.203125 40.296875 220.042969 38.828125 219.121094 38.65625 C 218.316406 38.503906 217.585938 39.316406 217.910156 40 C 217.96875 40.125 217.941406 40.113281 217.808594 39.957031 C 216.359375 38.265625 216.167969 33.816406 217.4375 31.191406 C 218.757812 28.460938 221.605469 27.964844 222.488281 30.316406 C 222.875 31.351562 222.914062 31.589844 222.914062 33.066406 C 222.917969 34.058594 222.949219 34.507812 223.015625 34.527344 C 223.242188 34.605469 223.738281 33.621094 223.859375 32.859375 C 223.949219 32.292969 224.035156 32.394531 224.40625 33.515625 C 225.203125 35.9375 224.855469 38.125 223.339844 40.242188 C 222.605469 41.269531 223.769531 40.875 224.609375 39.8125 C 225.6875 38.449219 226.210938 36.832031 226.148438 35.0625 C 226.105469 33.777344 226.105469 33.785156 225.320312 30.878906 C 224.488281 27.820312 225.148438 26.949219 227.988281 27.367188 C 232.085938 27.96875 234.363281 26.597656 239.140625 20.648438 C 241.847656 17.273438 243.34375 15.859375 245.21875 14.898438 C 250.5625 12.167969 257.257812 14.597656 259.109375 19.941406 C 259.945312 22.351562 260.78125 22.679688 260.59375 20.523438 C 259.996094 13.683594 250.464844 9.929688 243.753906 13.898438 C 241.992188 14.9375 240.292969 16.519531 237.941406 19.308594 C 233.335938 24.761719 231.753906 25.734375 228.050781 25.398438 C 226.042969 25.21875 225.3125 25.320312 224.457031 25.914062 C 223.847656 26.335938 223.214844 27.46875 223.214844 28.140625 C 223.214844 28.507812 223.105469 28.496094 222.683594 28.066406 L 222.296875 27.667969 L 222.5625 27.140625 C 223.996094 24.28125 226.777344 22.304688 231.503906 20.777344 C 237.777344 18.75 241.828125 15.636719 243.636719 11.453125 C 244.519531 9.398438 243.910156 9.683594 241.992188 12.210938 C 238.941406 16.230469 236.371094 18.0625 231.246094 19.871094 C 226.273438 21.625 223.421875 23.871094 222.25 26.960938 C 222.019531 27.566406 222.039062 27.5625 221.285156 27.246094 C 219.621094 26.550781 217.453125 27.429688 216.109375 29.347656 C 215.625 30.039062 215.625 30.042969 215.828125 28.382812 C 217.769531 12.449219 229.453125 1.816406 243.234375 3.433594 M 240.179688 5.921875 C 232.121094 6.84375 224.390625 12.609375 219.058594 21.671875 C 218.019531 23.433594 217.039062 25.449219 217.15625 25.566406 C 217.285156 25.691406 217.480469 25.476562 217.984375 24.65625 C 224.121094 14.648438 230.777344 9.164062 238.714844 7.566406 C 243.96875 6.507812 248.09375 7.53125 252.816406 11.070312 C 256.738281 14.003906 259.28125 14.980469 256.558594 12.5 C 250.671875 7.144531 245.980469 5.257812 240.179688 5.921875 M 242.683594 8.378906 C 238.722656 8.625 235.382812 10.640625 230.316406 15.84375 C 224.464844 21.851562 222.625 23.460938 220.121094 24.734375 C 219.082031 25.261719 219.054688 25.628906 220.078125 25.304688 C 222.269531 24.617188 224.644531 22.757812 229.296875 18.085938 C 232.578125 14.792969 233.292969 14.109375 234.359375 13.222656 C 238.757812 9.578125 242.304688 8.636719 247.113281 9.84375 C 248.554688 10.203125 248.988281 10.136719 248.285156 9.65625 C 246.9375 8.742188 244.773438 8.25 242.683594 8.378906 M 207.296875 15.316406 C 206.453125 16.167969 205.6875 17.160156 205.222656 18 C 205.035156 18.339844 204.53125 18.949219 203.832031 19.679688 C 202.058594 21.53125 200.886719 23.105469 199.863281 25.007812 C 199.601562 25.496094 199.40625 25.820312 199.429688 25.726562 C 199.453125 25.632812 199.53125 25.324219 199.601562 25.039062 C 200.675781 20.792969 203.375 16.972656 206.523438 15.246094 C 206.957031 15.011719 207.910156 14.570312 208.0625 14.535156 C 208.066406 14.535156 207.722656 14.886719 207.296875 15.316406 M 248.933594 18.039062 C 247.027344 18.390625 244.695312 19.765625 243.695312 21.125 C 243.171875 21.835938 243.417969 21.847656 244.347656 21.152344 C 247.160156 19.039062 250.125 18.582031 252.800781 19.839844 C 253.582031 20.207031 254.144531 20.636719 255.5 21.898438 C 256.929688 23.230469 257.738281 23.761719 258.59375 23.9375 L 259.113281 24.042969 L 258.164062 24.441406 C 254.824219 25.832031 251.753906 26.386719 248.902344 26.109375 C 247.460938 25.972656 247.277344 26.191406 248.5625 26.519531 C 252.085938 27.417969 256.25 26.683594 259.429688 24.605469 C 259.695312 24.433594 259.691406 24.4375 259.066406 25.347656 C 258.824219 25.695312 258.371094 26.453125 258.058594 27.035156 C 256.265625 30.355469 254.9375 31.503906 252.261719 32.039062 C 250.753906 32.339844 250.613281 32.597656 251.820312 32.828125 C 254.625 33.371094 256.898438 31.785156 258.828125 27.9375 C 259.128906 27.339844 259.683594 26.332031 260.0625 25.699219 C 261.089844 23.976562 261.476562 23.085938 261.476562 22.457031 C 261.476562 22.113281 261.386719 22.164062 261.054688 22.6875 C 260.820312 23.0625 260.726562 23.144531 260.589844 23.109375 C 260.496094 23.082031 260.046875 22.984375 259.589844 22.894531 C 258.324219 22.648438 258.046875 22.484375 256.707031 21.214844 C 253.78125 18.429688 251.609375 17.542969 248.933594 18.039062 M 212.675781 18.257812 C 211.976562 18.378906 211.246094 18.796875 210.621094 19.433594 C 210.085938 19.976562 210.042969 20 209.570312 20.050781 C 206.265625 20.390625 204.460938 25.632812 205.8125 30.957031 C 206.757812 34.691406 209.589844 39.109375 211.785156 40.273438 C 212.820312 40.824219 212.851562 40.503906 211.867188 39.507812 C 206.296875 33.875 204.816406 24.320312 209.09375 21.613281 L 209.332031 21.464844 L 209.136719 22.042969 C 207.964844 25.539062 208.886719 30.203125 211.199219 32.496094 C 213.058594 34.335938 214.632812 34.902344 212.984375 33.136719 C 209.757812 29.6875 208.769531 25.429688 210.335938 21.757812 L 210.480469 21.417969 L 210.726562 21.714844 C 210.863281 21.878906 211.03125 22.21875 211.101562 22.472656 C 211.402344 23.550781 211.429688 23.613281 211.605469 23.640625 C 212.328125 23.742188 212.183594 21.199219 211.425781 20.539062 L 211.144531 20.292969 L 211.542969 19.921875 C 212.6875 18.851562 213.753906 18.683594 215.085938 19.367188 C 215.710938 19.6875 215.90625 19.625 215.644531 19.1875 C 215.21875 18.464844 213.878906 18.046875 212.675781 18.257812 M 261.65625 23.574219 C 259.773438 26.382812 259.589844 27.53125 260.578125 30.285156 C 261.296875 32.300781 261.128906 33.710938 259.863281 36.308594 C 258.761719 38.5625 258.949219 38.871094 260.304688 37.042969 C 262.363281 34.273438 262.660156 32.253906 261.460938 29.210938 C 260.730469 27.367188 260.800781 26.585938 261.9375 23.933594 C 262.636719 22.296875 262.570312 22.210938 261.65625 23.574219 M 265.023438 32.996094 C 264.878906 34.347656 264.578125 36.324219 264.515625 36.324219 C 264.328125 36.324219 264.304688 35.1875 264.476562 34.367188 C 264.621094 33.675781 265.042969 32.175781 265.078125 32.214844 C 265.09375 32.230469 265.070312 32.578125 265.023438 32.996094 M 216.050781 40.921875 C 216.179688 41.078125 216.507812 41.355469 216.785156 41.542969 L 217.289062 41.878906 L 217.074219 42.195312 C 214.660156 45.75 214.851562 52.550781 217.53125 58.457031 C 217.882812 59.222656 218.320312 60.191406 218.507812 60.609375 C 218.910156 61.5 219.535156 62.65625 220.058594 63.460938 C 220.261719 63.777344 220.425781 64.050781 220.425781 64.074219 C 220.425781 64.09375 218.878906 63.335938 216.984375 62.390625 C 207.171875 57.484375 202.179688 55.761719 196.730469 55.417969 C 196 55.371094 195.386719 55.316406 195.367188 55.300781 C 195.351562 55.285156 195.632812 55.164062 195.996094 55.039062 C 204 52.222656 214.207031 44.894531 215.617188 40.949219 C 215.757812 40.5625 215.769531 40.5625 216.050781 40.921875 M 201.253906 48.613281 C 201.679688 48.6875 202.171875 48.863281 202.75 49.144531 L 203.609375 49.570312 L 202.070312 50.417969 C 197.707031 52.832031 194.203125 54.132812 189.980469 54.910156 L 188.546875 55.171875 L 187.488281 54.636719 C 185.824219 53.789062 183.957031 52.613281 184.15625 52.535156 C 184.246094 52.5 184.925781 52.328125 185.671875 52.15625 C 187.277344 51.785156 188.058594 51.53125 191.078125 50.414062 C 196.316406 48.46875 198.351562 48.109375 201.253906 48.613281 M 186.554688 55.859375 C 186.5625 56.078125 186.050781 55.875 185.648438 55.5 L 185.207031 55.089844 L 185.882812 55.441406 C 186.253906 55.636719 186.554688 55.824219 186.554688 55.859375 M 251.167969 65.042969 C 251.066406 65.566406 251.070312 66.835938 251.175781 67.480469 C 251.574219 69.9375 251.5625 69.957031 249.511719 70.960938 C 247.421875 71.980469 246.714844 72.753906 246.796875 73.914062 L 246.832031 74.394531 L 246.488281 74.316406 C 244.363281 73.839844 236.179688 71.140625 236.347656 70.972656 C 236.375 70.941406 237.792969 70.355469 239.726562 69.570312 C 240.332031 69.324219 242.023438 68.695312 243.484375 68.167969 C 247.339844 66.789062 249.089844 66.011719 250.75 64.9375 C 251.300781 64.585938 251.257812 64.574219 251.167969 65.042969 M 224.355469 101.117188 C 215.796875 101.585938 206.789062 104.601562 203.050781 108.246094 C 201.796875 109.464844 202.019531 109.570312 203.558594 108.488281 C 206.636719 106.320312 212.140625 104.324219 217.9375 103.273438 C 222.269531 102.488281 225.476562 102.285156 232.546875 102.34375 C 237.449219 102.386719 239.09375 102.339844 239.09375 102.160156 C 239.09375 102.039062 239.027344 102.019531 237.617188 101.785156 C 234.472656 101.257812 227.839844 100.921875 224.355469 101.117188 M 230.183594 106.691406 C 228.730469 106.820312 227.183594 107.027344 226.128906 107.234375 C 223.277344 107.800781 222.449219 108.34375 224.828125 108.085938 C 227.589844 107.785156 232.902344 107.6875 234.53125 107.90625 C 234.695312 107.929688 235.457031 107.988281 236.222656 108.039062 C 239.527344 108.257812 246.144531 109.441406 249.203125 110.359375 C 251.179688 110.949219 253.839844 111.375 253.929688 111.113281 C 254.085938 110.667969 249 108.730469 245.554688 107.921875 C 241.242188 106.910156 234.128906 106.339844 230.183594 106.691406 M 183.390625 115.105469 C 173.316406 115.378906 166.191406 116.859375 151.292969 121.773438 C 144.460938 124.027344 142.757812 124.546875 139.132812 125.476562 C 132.996094 127.054688 128.777344 127.785156 116.75 129.367188 C 114.75 129.628906 113.101562 129.859375 113.082031 129.878906 C 112.277344 130.632812 124.671875 129.871094 132.542969 128.679688 C 138.894531 127.71875 143.652344 126.496094 153.703125 123.238281 C 157.671875 121.953125 159.246094 121.457031 161.085938 120.917969 C 170.335938 118.199219 177.785156 117.074219 186.472656 117.074219 C 191.304688 117.074219 193.894531 117.269531 202.183594 118.261719 C 208.578125 119.03125 209.132812 118.273438 203.242188 116.824219 C 197.667969 115.449219 191.234375 114.890625 183.390625 115.105469 M 217.511719 118.820312 C 210.734375 122.261719 205.101562 123.273438 190.78125 123.617188 C 174.964844 123.996094 166.867188 125.816406 152.054688 132.316406 C 146.339844 134.828125 144.507812 135.585938 141.917969 136.527344 C 139.339844 137.460938 138.035156 137.777344 134.527344 138.3125 C 133.304688 138.496094 132.050781 138.78125 131.933594 138.898438 C 131.550781 139.28125 135.113281 139.554688 136.976562 139.289062 C 140.632812 138.765625 143.28125 137.820312 152.261719 133.839844 C 167.378906 127.136719 174.433594 125.46875 190.527344 124.804688 C 202.378906 124.316406 207.171875 123.546875 213.25 121.152344 C 215.734375 120.171875 219.242188 118.316406 218.546875 118.34375 C 218.492188 118.347656 218.023438 118.5625 217.511719 118.820312 " fill-opacity="1" fill-rule="evenodd"/></g><g fill="#000000" fill-opacity="1"><g transform="translate(14.950327, 194.493059)"><g><path d="M 11.53125 0.109375 C 9.65625 0.109375 7.957031 -0.3125 6.4375 -1.15625 C 4.925781 -2 3.738281 -3.164062 2.875 -4.65625 C 2.007812 -6.15625 1.578125 -7.820312 1.578125 -9.65625 C 1.578125 -11.5 2.007812 -13.164062 2.875 -14.65625 C 3.738281 -16.144531 4.925781 -17.3125 6.4375 -18.15625 C 7.957031 -19 9.65625 -19.421875 11.53125 -19.421875 C 12.851562 -19.421875 14.09375 -19.203125 15.25 -18.765625 C 16.414062 -18.335938 17.410156 -17.703125 18.234375 -16.859375 L 17.65625 -16.25 C 16.0625 -17.800781 14.03125 -18.578125 11.5625 -18.578125 C 9.863281 -18.578125 8.328125 -18.179688 6.953125 -17.390625 C 5.578125 -16.609375 4.492188 -15.535156 3.703125 -14.171875 C 2.910156 -12.816406 2.515625 -11.3125 2.515625 -9.65625 C 2.515625 -8 2.910156 -6.488281 3.703125 -5.125 C 4.492188 -3.769531 5.578125 -2.703125 6.953125 -1.921875 C 8.328125 -1.140625 9.863281 -0.75 11.5625 -0.75 C 14.007812 -0.75 16.039062 -1.53125 17.65625 -3.09375 L 18.234375 -2.484375 C 17.410156 -1.640625 16.421875 -0.992188 15.265625 -0.546875 C 14.117188 -0.109375 12.875 0.109375 11.53125 0.109375 Z M 11.53125 0.109375 "/></g></g></g><g fill="#000000" fill-opacity="1"><g transform="translate(37.905149, 194.493059)"><g><path d="M 11.53125 0.109375 C 9.65625 0.109375 7.957031 -0.3125 6.4375 -1.15625 C 4.925781 -2 3.738281 -3.164062 2.875 -4.65625 C 2.007812 -6.15625 1.578125 -7.820312 1.578125 -9.65625 C 1.578125 -11.5 2.007812 -13.164062 2.875 -14.65625 C 3.738281 -16.144531 4.925781 -17.3125 6.4375 -18.15625 C 7.957031 -19 9.65625 -19.421875 11.53125 -19.421875 C 13.40625 -19.421875 15.101562 -19 16.625 -18.15625 C 18.15625 -17.3125 19.351562 -16.144531 20.21875 -14.65625 C 21.082031 -13.164062 21.515625 -11.5 21.515625 -9.65625 C 21.515625 -7.820312 21.082031 -6.15625 20.21875 -4.65625 C 19.351562 -3.164062 18.15625 -2 16.625 -1.15625 C 15.101562 -0.3125 13.40625 0.109375 11.53125 0.109375 Z M 11.53125 -0.75 C 13.226562 -0.75 14.765625 -1.132812 16.140625 -1.90625 C 17.523438 -2.675781 18.609375 -3.738281 19.390625 -5.09375 C 20.179688 -6.457031 20.578125 -7.976562 20.578125 -9.65625 C 20.578125 -11.332031 20.179688 -12.847656 19.390625 -14.203125 C 18.609375 -15.566406 17.523438 -16.632812 16.140625 -17.40625 C 14.765625 -18.1875 13.226562 -18.578125 11.53125 -18.578125 C 9.84375 -18.578125 8.3125 -18.1875 6.9375 -17.40625 C 5.570312 -16.632812 4.492188 -15.566406 3.703125 -14.203125 C 2.910156 -12.847656 2.515625 -11.332031 2.515625 -9.65625 C 2.515625 -7.976562 2.910156 -6.457031 3.703125 -5.09375 C 4.492188 -3.738281 5.570312 -2.675781 6.9375 -1.90625 C 8.3125 -1.132812 9.84375 -0.75 11.53125 -0.75 Z M 11.53125 -0.75 "/></g></g></g><g fill="#000000" fill-opacity="1"><g transform="translate(64.281004, 194.493059)"><g><path d="M 18.953125 -19.3125 L 18.953125 0 L 18.1875 0 L 4.46875 -17.609375 L 4.46875 0 L 3.53125 0 L 3.53125 -19.3125 L 4.296875 -19.3125 L 18.015625 -1.703125 L 18.015625 -19.3125 Z M 18.953125 -19.3125 "/></g></g></g><g fill="#000000" fill-opacity="1"><g transform="translate(90.04991, 194.493059)"><g><path d="M 8.421875 0.109375 C 7.015625 0.109375 5.679688 -0.132812 4.421875 -0.625 C 3.160156 -1.125 2.191406 -1.769531 1.515625 -2.5625 L 2.015625 -3.234375 C 2.660156 -2.492188 3.554688 -1.890625 4.703125 -1.421875 C 5.847656 -0.953125 7.078125 -0.71875 8.390625 -0.71875 C 10.316406 -0.71875 11.769531 -1.097656 12.75 -1.859375 C 13.738281 -2.617188 14.234375 -3.597656 14.234375 -4.796875 C 14.234375 -5.722656 13.972656 -6.460938 13.453125 -7.015625 C 12.941406 -7.578125 12.3125 -8 11.5625 -8.28125 C 10.8125 -8.570312 9.78125 -8.875 8.46875 -9.1875 C 7.070312 -9.539062 5.945312 -9.878906 5.09375 -10.203125 C 4.25 -10.535156 3.53125 -11.039062 2.9375 -11.71875 C 2.351562 -12.40625 2.0625 -13.316406 2.0625 -14.453125 C 2.0625 -15.359375 2.300781 -16.1875 2.78125 -16.9375 C 3.257812 -17.695312 3.988281 -18.300781 4.96875 -18.75 C 5.957031 -19.195312 7.191406 -19.421875 8.671875 -19.421875 C 9.710938 -19.421875 10.742188 -19.265625 11.765625 -18.953125 C 12.785156 -18.640625 13.65625 -18.207031 14.375 -17.65625 L 13.96875 -16.921875 C 13.207031 -17.472656 12.363281 -17.890625 11.4375 -18.171875 C 10.507812 -18.453125 9.59375 -18.59375 8.6875 -18.59375 C 6.8125 -18.59375 5.390625 -18.203125 4.421875 -17.421875 C 3.460938 -16.640625 2.984375 -15.648438 2.984375 -14.453125 C 2.984375 -13.515625 3.242188 -12.765625 3.765625 -12.203125 C 4.285156 -11.648438 4.925781 -11.222656 5.6875 -10.921875 C 6.457031 -10.628906 7.488281 -10.328125 8.78125 -10.015625 C 10.175781 -9.671875 11.296875 -9.335938 12.140625 -9.015625 C 12.984375 -8.691406 13.695312 -8.191406 14.28125 -7.515625 C 14.863281 -6.847656 15.15625 -5.953125 15.15625 -4.828125 C 15.15625 -3.929688 14.910156 -3.101562 14.421875 -2.34375 C 13.929688 -1.59375 13.179688 -0.992188 12.171875 -0.546875 C 11.160156 -0.109375 9.910156 0.109375 8.421875 0.109375 Z M 8.421875 0.109375 "/></g></g></g><g fill="#000000" fill-opacity="1"><g transform="translate(109.997514, 194.493059)"><g><path d="M 7.203125 -18.453125 L 0.109375 -18.453125 L 0.109375 -19.3125 L 15.203125 -19.3125 L 15.203125 -18.453125 L 8.109375 -18.453125 L 8.109375 0 L 7.203125 0 Z M 7.203125 -18.453125 "/></g></g></g><g fill="#000000" fill-opacity="1"><g transform="translate(128.593261, 194.493059)"><g><path d="M 15.375 -5.65625 L 3.8125 -5.65625 L 1.21875 0 L 0.1875 0 L 9.140625 -19.3125 L 10.046875 -19.3125 L 18.984375 0 L 17.96875 0 Z M 15.015625 -6.453125 L 9.609375 -18.234375 L 4.171875 -6.453125 Z M 15.015625 -6.453125 "/></g></g></g><g fill="#000000" fill-opacity="1"><g transform="translate(151.079066, 194.493059)"><g><path d="M 18.953125 -19.3125 L 18.953125 0 L 18.1875 0 L 4.46875 -17.609375 L 4.46875 0 L 3.53125 0 L 3.53125 -19.3125 L 4.296875 -19.3125 L 18.015625 -1.703125 L 18.015625 -19.3125 Z M 18.953125 -19.3125 "/></g></g></g><g fill="#000000" fill-opacity="1"><g transform="translate(176.847965, 194.493059)"><g><path d="M 7.203125 -18.453125 L 0.109375 -18.453125 L 0.109375 -19.3125 L 15.203125 -19.3125 L 15.203125 -18.453125 L 8.109375 -18.453125 L 8.109375 0 L 7.203125 0 Z M 7.203125 -18.453125 "/></g></g></g><g fill="#000000" fill-opacity="1"><g transform="translate(195.443712, 194.493059)"><g><path d="M 3.53125 -19.3125 L 4.46875 -19.3125 L 4.46875 0 L 3.53125 0 Z M 3.53125 -19.3125 "/></g></g></g><g fill="#000000" fill-opacity="1"><g transform="translate(206.728354, 194.493059)"><g><path d="M 18.953125 -19.3125 L 18.953125 0 L 18.1875 0 L 4.46875 -17.609375 L 4.46875 0 L 3.53125 0 L 3.53125 -19.3125 L 4.296875 -19.3125 L 18.015625 -1.703125 L 18.015625 -19.3125 Z M 18.953125 -19.3125 "/></g></g></g><g fill="#000000" fill-opacity="1"><g transform="translate(232.497265, 194.493059)"><g/></g></g><g fill="#000000" fill-opacity="1"><g transform="translate(242.761124, 194.493059)"><g><path d="M 17.5 -9.515625 L 18.375 -9.515625 L 18.375 -2.375 C 17.53125 -1.5625 16.523438 -0.941406 15.359375 -0.515625 C 14.191406 -0.0976562 12.941406 0.109375 11.609375 0.109375 C 9.722656 0.109375 8.015625 -0.3125 6.484375 -1.15625 C 4.953125 -2 3.75 -3.164062 2.875 -4.65625 C 2.007812 -6.15625 1.578125 -7.820312 1.578125 -9.65625 C 1.578125 -11.5 2.007812 -13.164062 2.875 -14.65625 C 3.75 -16.144531 4.953125 -17.3125 6.484375 -18.15625 C 8.015625 -19 9.722656 -19.421875 11.609375 -19.421875 C 12.992188 -19.421875 14.265625 -19.207031 15.421875 -18.78125 C 16.578125 -18.363281 17.570312 -17.734375 18.40625 -16.890625 L 17.859375 -16.25 C 16.253906 -17.800781 14.179688 -18.578125 11.640625 -18.578125 C 9.910156 -18.578125 8.351562 -18.179688 6.96875 -17.390625 C 5.582031 -16.609375 4.492188 -15.535156 3.703125 -14.171875 C 2.910156 -12.816406 2.515625 -11.3125 2.515625 -9.65625 C 2.515625 -8 2.910156 -6.488281 3.703125 -5.125 C 4.492188 -3.769531 5.582031 -2.703125 6.96875 -1.921875 C 8.351562 -1.140625 9.910156 -0.75 11.640625 -0.75 C 14.054688 -0.75 16.007812 -1.421875 17.5 -2.765625 Z M 17.5 -9.515625 "/></g></g></g><g fill="#000000" fill-opacity="1"><g transform="translate(267.398874, 194.493059)"><g><path d="M 15.375 -5.65625 L 3.8125 -5.65625 L 1.21875 0 L 0.1875 0 L 9.140625 -19.3125 L 10.046875 -19.3125 L 18.984375 0 L 17.96875 0 Z M 15.015625 -6.453125 L 9.609375 -18.234375 L 4.171875 -6.453125 Z M 15.015625 -6.453125 "/></g></g></g><g fill="#000000" fill-opacity="1"><g transform="translate(289.884691, 194.493059)"><g><path d="M 14.375 -9.9375 C 15.882812 -9.695312 17.023438 -9.164062 17.796875 -8.34375 C 18.566406 -7.53125 18.953125 -6.441406 18.953125 -5.078125 C 18.953125 -3.421875 18.363281 -2.160156 17.1875 -1.296875 C 16.007812 -0.429688 14.253906 0 11.921875 0 L 3.53125 0 L 3.53125 -19.3125 L 11.375 -19.3125 C 13.414062 -19.3125 15.015625 -18.890625 16.171875 -18.046875 C 17.328125 -17.203125 17.90625 -15.988281 17.90625 -14.40625 C 17.90625 -13.25 17.59375 -12.289062 16.96875 -11.53125 C 16.34375 -10.78125 15.476562 -10.25 14.375 -9.9375 Z M 4.46875 -18.484375 L 4.46875 -10.203125 L 11.390625 -10.203125 C 13.179688 -10.203125 14.5625 -10.554688 15.53125 -11.265625 C 16.507812 -11.972656 17 -13 17 -14.34375 C 17 -15.6875 16.507812 -16.710938 15.53125 -17.421875 C 14.5625 -18.128906 13.179688 -18.484375 11.390625 -18.484375 Z M 11.96875 -0.828125 C 13.976562 -0.828125 15.488281 -1.175781 16.5 -1.875 C 17.507812 -2.570312 18.015625 -3.648438 18.015625 -5.109375 C 18.015625 -6.578125 17.507812 -7.660156 16.5 -8.359375 C 15.488281 -9.054688 13.976562 -9.40625 11.96875 -9.40625 L 4.46875 -9.40625 L 4.46875 -0.828125 Z M 11.96875 -0.828125 "/></g></g></g><g fill="#000000" fill-opacity="1"><g transform="translate(313.860316, 194.493059)"><g><path d="M 11.53125 0.109375 C 9.65625 0.109375 7.957031 -0.3125 6.4375 -1.15625 C 4.925781 -2 3.738281 -3.164062 2.875 -4.65625 C 2.007812 -6.15625 1.578125 -7.820312 1.578125 -9.65625 C 1.578125 -11.5 2.007812 -13.164062 2.875 -14.65625 C 3.738281 -16.144531 4.925781 -17.3125 6.4375 -18.15625 C 7.957031 -19 9.65625 -19.421875 11.53125 -19.421875 C 13.40625 -19.421875 15.101562 -19 16.625 -18.15625 C 18.15625 -17.3125 19.351562 -16.144531 20.21875 -14.65625 C 21.082031 -13.164062 21.515625 -11.5 21.515625 -9.65625 C 21.515625 -7.820312 21.082031 -6.15625 20.21875 -4.65625 C 19.351562 -3.164062 18.15625 -2 16.625 -1.15625 C 15.101562 -0.3125 13.40625 0.109375 11.53125 0.109375 Z M 11.53125 -0.75 C 13.226562 -0.75 14.765625 -1.132812 16.140625 -1.90625 C 17.523438 -2.675781 18.609375 -3.738281 19.390625 -5.09375 C 20.179688 -6.457031 20.578125 -7.976562 20.578125 -9.65625 C 20.578125 -11.332031 20.179688 -12.847656 19.390625 -14.203125 C 18.609375 -15.566406 17.523438 -16.632812 16.140625 -17.40625 C 14.765625 -18.1875 13.226562 -18.578125 11.53125 -18.578125 C 9.84375 -18.578125 8.3125 -18.1875 6.9375 -17.40625 C 5.570312 -16.632812 4.492188 -15.566406 3.703125 -14.203125 C 2.910156 -12.847656 2.515625 -11.332031 2.515625 -9.65625 C 2.515625 -7.976562 2.910156 -6.457031 3.703125 -5.09375 C 4.492188 -3.738281 5.570312 -2.675781 6.9375 -1.90625 C 8.3125 -1.132812 9.84375 -0.75 11.53125 -0.75 Z M 11.53125 -0.75 "/></g></g></g><g fill="#000000" fill-opacity="1"><g transform="translate(340.236169, 194.493059)"><g><path d="M 17.109375 0 L 12.328125 -6.65625 C 11.703125 -6.539062 11.003906 -6.484375 10.234375 -6.484375 L 4.46875 -6.484375 L 4.46875 0 L 3.53125 0 L 3.53125 -19.3125 L 10.234375 -19.3125 C 12.648438 -19.3125 14.53125 -18.742188 15.875 -17.609375 C 17.226562 -16.484375 17.90625 -14.914062 17.90625 -12.90625 C 17.90625 -11.363281 17.503906 -10.070312 16.703125 -9.03125 C 15.898438 -8 14.753906 -7.28125 13.265625 -6.875 L 18.21875 0 Z M 10.296875 -7.34375 C 12.441406 -7.34375 14.09375 -7.820312 15.25 -8.78125 C 16.414062 -9.75 17 -11.125 17 -12.90625 C 17 -14.675781 16.414062 -16.039062 15.25 -17 C 14.09375 -17.96875 12.441406 -18.453125 10.296875 -18.453125 L 4.46875 -18.453125 L 4.46875 -7.34375 Z M 10.296875 -7.34375 "/></g></g></g><g fill="#00bf63" fill-opacity="1"><g transform="translate(97.280385, 224.325878)"><g><path d="M 0.6875 0 L 0.6875 -0.234375 C 0.96875 -0.316406 1.144531 -0.5 1.21875 -0.78125 C 1.300781 -1.0625 1.34375 -1.5 1.34375 -2.09375 L 1.34375 -8.453125 C 1.34375 -9.117188 1.300781 -9.644531 1.21875 -10.03125 C 1.144531 -10.414062 1.023438 -10.703125 0.859375 -10.890625 C 0.691406 -11.078125 0.484375 -11.210938 0.234375 -11.296875 L 0.234375 -11.53125 L 2.703125 -11.53125 L 6.765625 -4.78125 L 10.640625 -11.53125 L 12.984375 -11.53125 L 12.984375 -11.296875 C 12.722656 -11.210938 12.507812 -11.078125 12.34375 -10.890625 C 12.1875 -10.703125 12.066406 -10.414062 11.984375 -10.03125 C 11.898438 -9.644531 11.859375 -9.117188 11.859375 -8.453125 L 11.859375 -2.09375 C 11.859375 -1.5 11.898438 -1.0625 11.984375 -0.78125 C 12.066406 -0.5 12.242188 -0.316406 12.515625 -0.234375 L 12.515625 0 L 9.453125 0 L 9.453125 -0.234375 C 9.722656 -0.316406 9.898438 -0.5 9.984375 -0.78125 C 10.066406 -1.0625 10.109375 -1.5 10.109375 -2.09375 L 10.109375 -10.0625 L 6.15625 -3.125 L 5.78125 -3.125 L 1.640625 -9.921875 L 1.640625 -3.078125 C 1.640625 -2.410156 1.679688 -1.882812 1.765625 -1.5 C 1.859375 -1.113281 2 -0.828125 2.1875 -0.640625 C 2.375 -0.453125 2.613281 -0.316406 2.90625 -0.234375 L 2.90625 0 Z M 0.6875 0 "/></g></g></g><g fill="#00bf63" fill-opacity="1"><g transform="translate(113.590769, 224.325878)"><g><path d="M -0.34375 0 L -0.34375 -0.234375 C -0.09375 -0.316406 0.140625 -0.484375 0.359375 -0.734375 C 0.585938 -0.992188 0.8125 -1.394531 1.03125 -1.9375 L 4.125 -9.578125 C 4.238281 -9.890625 4.222656 -10.1875 4.078125 -10.46875 L 3.875 -10.9375 L 5.484375 -11.65625 L 9.5625 -1.921875 C 9.800781 -1.390625 10.023438 -0.992188 10.234375 -0.734375 C 10.453125 -0.484375 10.65625 -0.316406 10.84375 -0.234375 L 10.84375 0 L 7.84375 0 L 7.84375 -0.234375 C 8.113281 -0.316406 8.210938 -0.484375 8.140625 -0.734375 C 8.066406 -0.992188 7.914062 -1.390625 7.6875 -1.921875 L 6.703125 -4.296875 L 2.3125 -4.296875 L 1.34375 -1.9375 C 1.125 -1.394531 1.035156 -0.988281 1.078125 -0.71875 C 1.128906 -0.457031 1.289062 -0.296875 1.5625 -0.234375 L 1.5625 0 Z M 2.40625 -4.5625 L 6.59375 -4.5625 L 4.46875 -9.65625 Z M 2.40625 -4.5625 "/></g></g></g><g fill="#00bf63" fill-opacity="1"><g transform="translate(126.738153, 224.325878)"><g><path d="M 4.703125 0.171875 C 3.859375 0.171875 3.070312 0.0507812 2.34375 -0.1875 C 1.625 -0.425781 1.054688 -0.695312 0.640625 -1 L 0.578125 -3.46875 L 0.796875 -3.515625 C 1.023438 -2.878906 1.335938 -2.3125 1.734375 -1.8125 C 2.140625 -1.320312 2.625 -0.925781 3.1875 -0.625 C 3.757812 -0.332031 4.410156 -0.1875 5.140625 -0.1875 C 5.523438 -0.1875 5.878906 -0.265625 6.203125 -0.421875 C 6.535156 -0.578125 6.804688 -0.804688 7.015625 -1.109375 C 7.222656 -1.421875 7.328125 -1.800781 7.328125 -2.25 C 7.328125 -2.65625 7.210938 -3.007812 6.984375 -3.3125 C 6.753906 -3.613281 6.457031 -3.878906 6.09375 -4.109375 C 5.738281 -4.335938 5.363281 -4.535156 4.96875 -4.703125 C 4.570312 -4.867188 4.210938 -5.019531 3.890625 -5.15625 C 3.328125 -5.394531 2.804688 -5.632812 2.328125 -5.875 C 1.859375 -6.113281 1.484375 -6.421875 1.203125 -6.796875 C 0.921875 -7.179688 0.78125 -7.691406 0.78125 -8.328125 C 0.78125 -9.347656 1.160156 -10.15625 1.921875 -10.75 C 2.679688 -11.34375 3.707031 -11.640625 5 -11.640625 C 5.613281 -11.640625 6.1875 -11.578125 6.71875 -11.453125 C 7.257812 -11.335938 7.742188 -11.171875 8.171875 -10.953125 L 8.234375 -8.8125 L 8.046875 -8.75 C 7.710938 -9.59375 7.21875 -10.238281 6.5625 -10.6875 C 5.90625 -11.132812 5.175781 -11.359375 4.375 -11.359375 C 3.71875 -11.359375 3.160156 -11.175781 2.703125 -10.8125 C 2.253906 -10.445312 2.03125 -9.9375 2.03125 -9.28125 C 2.03125 -8.925781 2.117188 -8.613281 2.296875 -8.34375 C 2.472656 -8.070312 2.710938 -7.835938 3.015625 -7.640625 C 3.316406 -7.441406 3.640625 -7.269531 3.984375 -7.125 C 4.335938 -6.976562 4.675781 -6.835938 5 -6.703125 C 5.414062 -6.535156 5.84375 -6.359375 6.28125 -6.171875 C 6.71875 -5.984375 7.113281 -5.765625 7.46875 -5.515625 C 7.832031 -5.265625 8.125 -4.960938 8.34375 -4.609375 C 8.5625 -4.253906 8.671875 -3.832031 8.671875 -3.34375 C 8.671875 -2.78125 8.554688 -2.28125 8.328125 -1.84375 C 8.097656 -1.40625 7.789062 -1.035156 7.40625 -0.734375 C 7.019531 -0.441406 6.59375 -0.21875 6.125 -0.0625 C 5.65625 0.09375 5.179688 0.171875 4.703125 0.171875 Z M 4.703125 0.171875 "/></g></g></g><g fill="#00bf63" fill-opacity="1"><g transform="translate(138.402881, 224.325878)"><g><path d="M -0.34375 0 L -0.34375 -0.234375 C -0.09375 -0.316406 0.140625 -0.484375 0.359375 -0.734375 C 0.585938 -0.992188 0.8125 -1.394531 1.03125 -1.9375 L 4.125 -9.578125 C 4.238281 -9.890625 4.222656 -10.1875 4.078125 -10.46875 L 3.875 -10.9375 L 5.484375 -11.65625 L 9.5625 -1.921875 C 9.800781 -1.390625 10.023438 -0.992188 10.234375 -0.734375 C 10.453125 -0.484375 10.65625 -0.316406 10.84375 -0.234375 L 10.84375 0 L 7.84375 0 L 7.84375 -0.234375 C 8.113281 -0.316406 8.210938 -0.484375 8.140625 -0.734375 C 8.066406 -0.992188 7.914062 -1.390625 7.6875 -1.921875 L 6.703125 -4.296875 L 2.3125 -4.296875 L 1.34375 -1.9375 C 1.125 -1.394531 1.035156 -0.988281 1.078125 -0.71875 C 1.128906 -0.457031 1.289062 -0.296875 1.5625 -0.234375 L 1.5625 0 Z M 2.40625 -4.5625 L 6.59375 -4.5625 L 4.46875 -9.65625 Z M 2.40625 -4.5625 "/></g></g></g><g fill="#00bf63" fill-opacity="1"><g transform="translate(151.550263, 224.325878)"><g><path d="M -1.296875 1.96875 C -1.554688 1.96875 -1.753906 1.941406 -1.890625 1.890625 C -2.023438 1.847656 -2.09375 1.726562 -2.09375 1.53125 C -2.09375 1.332031 -2 1.132812 -1.8125 0.9375 C -1.632812 0.738281 -1.378906 0.640625 -1.046875 0.640625 C -0.828125 0.640625 -0.59375 0.664062 -0.34375 0.71875 C -0.101562 0.769531 0.273438 0.847656 0.796875 0.953125 C 0.898438 0.878906 1.003906 0.773438 1.109375 0.640625 C 1.222656 0.503906 1.316406 0.296875 1.390625 0.015625 C 1.472656 -0.265625 1.515625 -0.671875 1.515625 -1.203125 L 1.515625 -9.4375 C 1.515625 -10.03125 1.472656 -10.46875 1.390625 -10.75 C 1.304688 -11.03125 1.128906 -11.210938 0.859375 -11.296875 L 0.859375 -11.53125 L 3.90625 -11.53125 L 3.90625 -11.296875 C 3.625 -11.210938 3.441406 -11.03125 3.359375 -10.75 C 3.285156 -10.46875 3.25 -10.03125 3.25 -9.4375 L 3.25 -4 C 3.25 -3.132812 3.125 -2.335938 2.875 -1.609375 C 2.625 -0.890625 2.285156 -0.257812 1.859375 0.28125 C 1.429688 0.820312 0.945312 1.238281 0.40625 1.53125 C -0.132812 1.820312 -0.703125 1.96875 -1.296875 1.96875 Z M -1.296875 1.96875 "/></g></g></g><g fill="#00bf63" fill-opacity="1"><g transform="translate(158.78349, 224.325878)"><g/></g></g><g fill="#00bf63" fill-opacity="1"><g transform="translate(164.63292, 224.325878)"><g><path d="M 3.09375 0 L 3.09375 -0.234375 C 3.375 -0.316406 3.550781 -0.5 3.625 -0.78125 C 3.707031 -1.0625 3.75 -1.5 3.75 -2.09375 L 3.75 -11.234375 L 3.25 -11.234375 C 2.507812 -11.234375 1.929688 -11.109375 1.515625 -10.859375 C 1.097656 -10.609375 0.734375 -10.15625 0.421875 -9.5 L 0.234375 -9.53125 L 0.328125 -11.53125 L 8.90625 -11.53125 L 9.015625 -9.53125 L 8.8125 -9.5 C 8.5 -10.15625 8.132812 -10.609375 7.71875 -10.859375 C 7.300781 -11.109375 6.726562 -11.234375 6 -11.234375 L 5.515625 -11.234375 L 5.515625 -2.09375 C 5.515625 -1.5 5.554688 -1.0625 5.640625 -0.78125 C 5.722656 -0.5 5.898438 -0.316406 6.171875 -0.234375 L 6.171875 0 Z M 3.09375 0 "/></g></g></g><g fill="#00bf63" fill-opacity="1"><g transform="translate(176.412964, 224.325878)"><g><path d="M 0.78125 0 L 0.78125 -0.234375 C 1.050781 -0.316406 1.226562 -0.5 1.3125 -0.78125 C 1.394531 -1.0625 1.4375 -1.5 1.4375 -2.09375 L 1.4375 -9.4375 C 1.4375 -10.03125 1.394531 -10.46875 1.3125 -10.75 C 1.226562 -11.03125 1.050781 -11.210938 0.78125 -11.296875 L 0.78125 -11.53125 L 8.671875 -11.53125 L 8.859375 -9.203125 L 8.640625 -9.15625 C 8.316406 -9.96875 7.875 -10.519531 7.3125 -10.8125 C 6.757812 -11.113281 6.023438 -11.265625 5.109375 -11.265625 L 3.171875 -11.265625 L 3.171875 -6.328125 L 4.765625 -6.328125 C 5.429688 -6.328125 5.957031 -6.367188 6.34375 -6.453125 C 6.726562 -6.546875 7.015625 -6.679688 7.203125 -6.859375 C 7.390625 -7.046875 7.523438 -7.285156 7.609375 -7.578125 L 7.84375 -7.578125 L 7.84375 -4.8125 L 7.609375 -4.8125 C 7.523438 -5.09375 7.390625 -5.328125 7.203125 -5.515625 C 7.015625 -5.703125 6.726562 -5.835938 6.34375 -5.921875 C 5.957031 -6.015625 5.429688 -6.0625 4.765625 -6.0625 L 3.171875 -6.0625 L 3.171875 -1.09375 C 3.171875 -0.539062 3.445312 -0.265625 4 -0.265625 L 5.578125 -0.265625 C 6.410156 -0.265625 7.113281 -0.414062 7.6875 -0.71875 C 8.257812 -1.03125 8.703125 -1.601562 9.015625 -2.4375 L 9.21875 -2.40625 L 9.109375 0 Z M 0.78125 0 "/></g></g></g><g fill="#00bf63" fill-opacity="1"><g transform="translate(188.769596, 224.325878)"><g><path d="M 9.15625 0.109375 C 8.707031 0.109375 8.347656 0.0078125 8.078125 -0.1875 C 7.804688 -0.394531 7.566406 -0.707031 7.359375 -1.125 C 7.160156 -1.539062 6.929688 -2.066406 6.671875 -2.703125 C 6.429688 -3.304688 6.226562 -3.8125 6.0625 -4.21875 C 5.894531 -4.632812 5.734375 -4.960938 5.578125 -5.203125 C 5.429688 -5.453125 5.242188 -5.628906 5.015625 -5.734375 C 4.796875 -5.847656 4.507812 -5.90625 4.15625 -5.90625 L 3.171875 -5.90625 L 3.171875 -2.09375 C 3.171875 -1.5 3.210938 -1.0625 3.296875 -0.78125 C 3.378906 -0.5 3.5625 -0.316406 3.84375 -0.234375 L 3.84375 0 L 0.78125 0 L 0.78125 -0.234375 C 1.050781 -0.316406 1.226562 -0.5 1.3125 -0.78125 C 1.394531 -1.0625 1.4375 -1.5 1.4375 -2.09375 L 1.4375 -9.4375 C 1.4375 -10.03125 1.394531 -10.46875 1.3125 -10.75 C 1.226562 -11.03125 1.050781 -11.210938 0.78125 -11.296875 L 0.78125 -11.53125 L 4.234375 -11.53125 C 5.128906 -11.53125 5.859375 -11.453125 6.421875 -11.296875 C 6.992188 -11.148438 7.429688 -10.953125 7.734375 -10.703125 C 8.046875 -10.460938 8.257812 -10.179688 8.375 -9.859375 C 8.5 -9.546875 8.5625 -9.222656 8.5625 -8.890625 C 8.5625 -8.128906 8.296875 -7.484375 7.765625 -6.953125 C 7.242188 -6.429688 6.429688 -6.109375 5.328125 -5.984375 C 5.796875 -5.921875 6.179688 -5.820312 6.484375 -5.6875 C 6.785156 -5.5625 7.039062 -5.375 7.25 -5.125 C 7.46875 -4.882812 7.664062 -4.570312 7.84375 -4.1875 C 8.019531 -3.8125 8.21875 -3.347656 8.4375 -2.796875 C 8.726562 -2.078125 8.957031 -1.53125 9.125 -1.15625 C 9.289062 -0.78125 9.441406 -0.53125 9.578125 -0.40625 C 9.722656 -0.28125 9.894531 -0.21875 10.09375 -0.21875 C 10.132812 -0.21875 10.175781 -0.21875 10.21875 -0.21875 C 10.257812 -0.21875 10.300781 -0.222656 10.34375 -0.234375 L 10.34375 0 C 10.15625 0.0390625 9.945312 0.0664062 9.71875 0.078125 C 9.488281 0.0976562 9.300781 0.109375 9.15625 0.109375 Z M 3.171875 -6.171875 L 4.234375 -6.171875 C 4.859375 -6.171875 5.359375 -6.273438 5.734375 -6.484375 C 6.117188 -6.691406 6.394531 -6.972656 6.5625 -7.328125 C 6.726562 -7.691406 6.8125 -8.082031 6.8125 -8.5 C 6.8125 -8.945312 6.710938 -9.378906 6.515625 -9.796875 C 6.316406 -10.222656 6.003906 -10.570312 5.578125 -10.84375 C 5.148438 -11.125 4.59375 -11.265625 3.90625 -11.265625 C 3.675781 -11.265625 3.429688 -11.25 3.171875 -11.21875 Z M 3.171875 -6.171875 "/></g></g></g><g fill="#00bf63" fill-opacity="1"><g transform="translate(201.505132, 224.325878)"><g><path d="M -0.34375 0 L -0.34375 -0.234375 C -0.09375 -0.316406 0.140625 -0.484375 0.359375 -0.734375 C 0.585938 -0.992188 0.8125 -1.394531 1.03125 -1.9375 L 4.125 -9.578125 C 4.238281 -9.890625 4.222656 -10.1875 4.078125 -10.46875 L 3.875 -10.9375 L 5.484375 -11.65625 L 9.5625 -1.921875 C 9.800781 -1.390625 10.023438 -0.992188 10.234375 -0.734375 C 10.453125 -0.484375 10.65625 -0.316406 10.84375 -0.234375 L 10.84375 0 L 7.84375 0 L 7.84375 -0.234375 C 8.113281 -0.316406 8.210938 -0.484375 8.140625 -0.734375 C 8.066406 -0.992188 7.914062 -1.390625 7.6875 -1.921875 L 6.703125 -4.296875 L 2.3125 -4.296875 L 1.34375 -1.9375 C 1.125 -1.394531 1.035156 -0.988281 1.078125 -0.71875 C 1.128906 -0.457031 1.289062 -0.296875 1.5625 -0.234375 L 1.5625 0 Z M 2.40625 -4.5625 L 6.59375 -4.5625 L 4.46875 -9.65625 Z M 2.40625 -4.5625 "/></g></g></g><g fill="#00bf63" fill-opacity="1"><g transform="translate(214.652514, 224.325878)"><g><path d="M 0.78125 0 L 0.78125 -0.234375 C 1.050781 -0.316406 1.226562 -0.5 1.3125 -0.78125 C 1.394531 -1.0625 1.4375 -1.5 1.4375 -2.09375 L 1.4375 -9.4375 C 1.4375 -10.03125 1.394531 -10.46875 1.3125 -10.75 C 1.226562 -11.03125 1.050781 -11.210938 0.78125 -11.296875 L 0.78125 -11.53125 L 4.234375 -11.53125 C 5.179688 -11.53125 5.953125 -11.425781 6.546875 -11.21875 C 7.140625 -11.019531 7.601562 -10.757812 7.9375 -10.4375 C 8.28125 -10.113281 8.515625 -9.765625 8.640625 -9.390625 C 8.773438 -9.015625 8.84375 -8.660156 8.84375 -8.328125 C 8.84375 -7.648438 8.671875 -7.019531 8.328125 -6.4375 C 7.992188 -5.851562 7.46875 -5.390625 6.75 -5.046875 C 6.039062 -4.703125 5.117188 -4.53125 3.984375 -4.53125 L 3.171875 -4.53125 L 3.171875 -2.09375 C 3.171875 -1.5 3.210938 -1.0625 3.296875 -0.78125 C 3.378906 -0.5 3.5625 -0.316406 3.84375 -0.234375 L 3.84375 0 Z M 3.171875 -4.796875 L 3.90625 -4.796875 C 4.976562 -4.796875 5.757812 -5.078125 6.25 -5.640625 C 6.738281 -6.210938 6.984375 -6.96875 6.984375 -7.90625 C 6.984375 -8.257812 6.929688 -8.628906 6.828125 -9.015625 C 6.734375 -9.398438 6.5625 -9.765625 6.3125 -10.109375 C 6.0625 -10.453125 5.722656 -10.726562 5.296875 -10.9375 C 4.867188 -11.15625 4.332031 -11.265625 3.6875 -11.265625 C 3.5 -11.265625 3.328125 -11.253906 3.171875 -11.234375 Z M 3.171875 -4.796875 "/></g></g></g><g fill="#00bf63" fill-opacity="1"><g transform="translate(226.416078, 224.325878)"><g><path d="M 0.78125 0 L 0.78125 -0.234375 C 1.050781 -0.316406 1.226562 -0.5 1.3125 -0.78125 C 1.394531 -1.0625 1.4375 -1.5 1.4375 -2.09375 L 1.4375 -9.4375 C 1.4375 -10.03125 1.394531 -10.46875 1.3125 -10.75 C 1.226562 -11.03125 1.050781 -11.210938 0.78125 -11.296875 L 0.78125 -11.53125 L 8.671875 -11.53125 L 8.859375 -9.203125 L 8.640625 -9.15625 C 8.316406 -9.96875 7.875 -10.519531 7.3125 -10.8125 C 6.757812 -11.113281 6.023438 -11.265625 5.109375 -11.265625 L 3.171875 -11.265625 L 3.171875 -6.328125 L 4.765625 -6.328125 C 5.429688 -6.328125 5.957031 -6.367188 6.34375 -6.453125 C 6.726562 -6.546875 7.015625 -6.679688 7.203125 -6.859375 C 7.390625 -7.046875 7.523438 -7.285156 7.609375 -7.578125 L 7.84375 -7.578125 L 7.84375 -4.8125 L 7.609375 -4.8125 C 7.523438 -5.09375 7.390625 -5.328125 7.203125 -5.515625 C 7.015625 -5.703125 6.726562 -5.835938 6.34375 -5.921875 C 5.957031 -6.015625 5.429688 -6.0625 4.765625 -6.0625 L 3.171875 -6.0625 L 3.171875 -1.09375 C 3.171875 -0.539062 3.445312 -0.265625 4 -0.265625 L 5.578125 -0.265625 C 6.410156 -0.265625 7.113281 -0.414062 7.6875 -0.71875 C 8.257812 -1.03125 8.703125 -1.601562 9.015625 -2.4375 L 9.21875 -2.40625 L 9.109375 0 Z M 0.78125 0 "/></g></g></g><g fill="#00bf63" fill-opacity="1"><g transform="translate(238.77271, 224.325878)"><g><path d="M 6.078125 0.171875 C 5.484375 0.171875 4.898438 0.09375 4.328125 -0.0625 C 3.753906 -0.21875 3.238281 -0.472656 2.78125 -0.828125 C 2.320312 -1.179688 1.953125 -1.65625 1.671875 -2.25 C 1.398438 -2.84375 1.265625 -3.585938 1.265625 -4.484375 L 1.265625 -9.4375 C 1.265625 -10.03125 1.222656 -10.46875 1.140625 -10.75 C 1.054688 -11.03125 0.878906 -11.210938 0.609375 -11.296875 L 0.609375 -11.53125 L 3.671875 -11.53125 L 3.671875 -11.296875 C 3.398438 -11.210938 3.222656 -11.03125 3.140625 -10.75 C 3.054688 -10.46875 3.015625 -10.03125 3.015625 -9.4375 L 3.015625 -4.34375 C 3.015625 -3.34375 3.164062 -2.539062 3.46875 -1.9375 C 3.78125 -1.332031 4.210938 -0.894531 4.765625 -0.625 C 5.328125 -0.363281 5.984375 -0.234375 6.734375 -0.234375 C 7.085938 -0.234375 7.445312 -0.300781 7.8125 -0.4375 C 8.175781 -0.582031 8.519531 -0.816406 8.84375 -1.140625 C 9.164062 -1.460938 9.425781 -1.894531 9.625 -2.4375 C 9.820312 -2.976562 9.921875 -3.648438 9.921875 -4.453125 L 9.921875 -8.453125 C 9.921875 -9.117188 9.875 -9.644531 9.78125 -10.03125 C 9.695312 -10.414062 9.5625 -10.703125 9.375 -10.890625 C 9.1875 -11.078125 8.945312 -11.210938 8.65625 -11.296875 L 8.65625 -11.53125 L 10.875 -11.53125 L 10.875 -11.296875 C 10.59375 -11.210938 10.410156 -11.03125 10.328125 -10.75 C 10.242188 -10.46875 10.203125 -10.03125 10.203125 -9.4375 L 10.203125 -4.484375 C 10.203125 -3.378906 10.023438 -2.484375 9.671875 -1.796875 C 9.316406 -1.117188 8.828125 -0.617188 8.203125 -0.296875 C 7.585938 0.015625 6.878906 0.171875 6.078125 0.171875 Z M 6.078125 0.171875 "/></g></g></g><g fill="#00bf63" fill-opacity="1"><g transform="translate(252.644941, 224.325878)"><g><path d="M 3.09375 0 L 3.09375 -0.234375 C 3.375 -0.316406 3.550781 -0.5 3.625 -0.78125 C 3.707031 -1.0625 3.75 -1.5 3.75 -2.09375 L 3.75 -11.234375 L 3.25 -11.234375 C 2.507812 -11.234375 1.929688 -11.109375 1.515625 -10.859375 C 1.097656 -10.609375 0.734375 -10.15625 0.421875 -9.5 L 0.234375 -9.53125 L 0.328125 -11.53125 L 8.90625 -11.53125 L 9.015625 -9.53125 L 8.8125 -9.5 C 8.5 -10.15625 8.132812 -10.609375 7.71875 -10.859375 C 7.300781 -11.109375 6.726562 -11.234375 6 -11.234375 L 5.515625 -11.234375 L 5.515625 -2.09375 C 5.515625 -1.5 5.554688 -1.0625 5.640625 -0.78125 C 5.722656 -0.5 5.898438 -0.316406 6.171875 -0.234375 L 6.171875 0 Z M 3.09375 0 "/></g></g></g><g fill="#00bf63" fill-opacity="1"><g transform="translate(264.424995, 224.325878)"><g><path d="M 0.78125 0 L 0.78125 -0.234375 C 1.050781 -0.316406 1.226562 -0.5 1.3125 -0.78125 C 1.394531 -1.0625 1.4375 -1.5 1.4375 -2.09375 L 1.4375 -9.4375 C 1.4375 -10.03125 1.394531 -10.46875 1.3125 -10.75 C 1.226562 -11.03125 1.050781 -11.210938 0.78125 -11.296875 L 0.78125 -11.53125 L 3.84375 -11.53125 L 3.84375 -11.296875 C 3.5625 -11.210938 3.378906 -11.03125 3.296875 -10.75 C 3.210938 -10.46875 3.171875 -10.03125 3.171875 -9.4375 L 3.171875 -2.09375 C 3.171875 -1.5 3.210938 -1.0625 3.296875 -0.78125 C 3.378906 -0.5 3.5625 -0.316406 3.84375 -0.234375 L 3.84375 0 Z M 0.78125 0 "/></g></g></g><g fill="#00bf63" fill-opacity="1"><g transform="translate(271.592341, 224.325878)"><g><path d="M 7.25 0.171875 C 5.9375 0.171875 4.800781 -0.0507812 3.84375 -0.5 C 2.894531 -0.945312 2.164062 -1.59375 1.65625 -2.4375 C 1.144531 -3.289062 0.890625 -4.332031 0.890625 -5.5625 C 0.890625 -6.394531 1.046875 -7.175781 1.359375 -7.90625 C 1.671875 -8.644531 2.117188 -9.289062 2.703125 -9.84375 C 3.296875 -10.40625 4 -10.84375 4.8125 -11.15625 C 5.632812 -11.476562 6.550781 -11.640625 7.5625 -11.640625 C 7.96875 -11.640625 8.40625 -11.613281 8.875 -11.5625 C 9.351562 -11.507812 9.8125 -11.425781 10.25 -11.3125 C 10.6875 -11.195312 11.046875 -11.039062 11.328125 -10.84375 L 11.390625 -8.65625 L 11.203125 -8.609375 C 10.984375 -9.179688 10.65625 -9.664062 10.21875 -10.0625 C 9.789062 -10.46875 9.3125 -10.78125 8.78125 -11 C 8.25 -11.21875 7.695312 -11.328125 7.125 -11.328125 C 6.25 -11.328125 5.472656 -11.132812 4.796875 -10.75 C 4.117188 -10.363281 3.585938 -9.800781 3.203125 -9.0625 C 2.828125 -8.320312 2.640625 -7.40625 2.640625 -6.3125 C 2.640625 -5.519531 2.753906 -4.753906 2.984375 -4.015625 C 3.210938 -3.285156 3.539062 -2.628906 3.96875 -2.046875 C 4.40625 -1.472656 4.9375 -1.019531 5.5625 -0.6875 C 6.195312 -0.351562 6.914062 -0.1875 7.71875 -0.1875 C 8.644531 -0.1875 9.421875 -0.441406 10.046875 -0.953125 C 10.671875 -1.472656 11.128906 -2.160156 11.421875 -3.015625 L 11.640625 -2.984375 L 11.375 -0.625 C 10.9375 -0.425781 10.390625 -0.242188 9.734375 -0.078125 C 9.085938 0.0859375 8.257812 0.171875 7.25 0.171875 Z M 7.25 0.171875 "/></g></g></g></svg>