<svg xmlns="http://www.w3.org/2000/svg" version="1.1" xmlns:xlink="http://www.w3.org/1999/xlink" width="512" height="512" x="0" y="0" viewBox="0 0 24 24" style="enable-background:new 0 0 512 512" xml:space="preserve" class=""><g><path d="M19.5 2h-15A4.505 4.505 0 0 0 0 6.5v11C0 19.981 2.019 22 4.5 22h15c2.481 0 4.5-2.019 4.5-4.5v-11C24 4.019 21.981 2 19.5 2Zm-15 1h15a3.48 3.48 0 0 1 2.686 1.283l-7.691 7.692A3.521 3.521 0 0 1 11.998 13c-.914-.017-1.826-.36-2.492-1.025L1.814 4.283A3.479 3.479 0 0 1 4.5 3ZM23 17.5c0 1.93-1.57 3.5-3.5 3.5h-15C2.57 21 1 19.43 1 17.5v-11c0-.477.097-.931.271-1.346l7.528 7.528c.851.851 1.98 1.318 3.177 1.318s2.375-.467 3.226-1.318l7.528-7.528c.174.415.271.869.271 1.346v11Z" fill="#879b90" opacity="1" data-original="#000000" class=""></path></g></svg>