<?xml version="1.0" encoding="UTF-8" standalone="no"?>
<svg
   version="1.1"
   width="512"
   height="512"
   x="0"
   y="0"
   viewBox="0 0 512 512"
   style="enable-background:new 0 0 512 512"
   xml:space="preserve"
   class=""
   id="svg1"
   sodipodi:docname="masajderecuperare.svg"
   inkscape:version="1.3.2 (091e20e, 2023-11-25, custom)"
   xmlns:inkscape="http://www.inkscape.org/namespaces/inkscape"
   xmlns:sodipodi="http://sodipodi.sourceforge.net/DTD/sodipodi-0.dtd"
   xmlns="http://www.w3.org/2000/svg"
   xmlns:svg="http://www.w3.org/2000/svg"><defs
     id="defs1"><marker
       style="overflow:visible"
       id="ArrowWideRounded"
       refX="0"
       refY="0"
       orient="auto-start-reverse"
       inkscape:stockid="Wide, rounded arrow"
       markerWidth="1"
       markerHeight="1"
       viewBox="0 0 1 1"
       inkscape:isstock="true"
       inkscape:collect="always"
       preserveAspectRatio="xMidYMid"><path
         style="fill:none;stroke:context-stroke;stroke-width:1;stroke-linecap:round"
         d="M 3,-3 0,0 3,3"
         transform="rotate(180,0.125,0)"
         sodipodi:nodetypes="ccc"
         id="path3" /></marker></defs><sodipodi:namedview
     id="namedview1"
     pagecolor="#ffffff"
     bordercolor="#000000"
     borderopacity="0.25"
     inkscape:showpageshadow="2"
     inkscape:pageopacity="0.0"
     inkscape:pagecheckerboard="0"
     inkscape:deskcolor="#d1d1d1"
     inkscape:zoom="1.6386719"
     inkscape:cx="202.90822"
     inkscape:cy="235.86174"
     inkscape:window-width="1920"
     inkscape:window-height="1017"
     inkscape:window-x="-8"
     inkscape:window-y="-8"
     inkscape:window-maximized="1"
     inkscape:current-layer="svg1" /><g
     transform="matrix(1,0,0,1,0,75)"
     id="g1"><g
       id="g3"><path
         id="path1"
         style="display:inline;opacity:1;mix-blend-mode:normal;stroke-width:0.8;stroke-dasharray:none;marker-start:url(#ArrowWideRounded);stroke:none;stroke-opacity:1;fill:#e0c184;fill-opacity:1"
         class=""
         inkscape:label="path1"
         d="m 224.53711,6.0078125 c -5.85039,0.1302577 -11.53982,2.5288503 -15.91669,6.3758715 -3.04886,2.386521 -6.17532,4.83779 -8.22687,8.186995 -4.55577,7.025421 -5.23942,16.43659 -1.5015,23.963999 1.21683,2.652327 3.0501,4.937709 4.90184,7.166382 4.98734,6.195911 9.86387,12.484345 14.96553,18.586153 2.63169,2.885243 6.05067,4.900461 9.59376,6.463187 2.05316,1.005749 4.10634,2.011431 6.15854,3.019131 -3.52073,3.62322 -7.4463,6.94712 -10.20885,11.224701 -3.69643,5.803793 -5.34403,12.993038 -4.55788,19.876198 2.4121,19.34268 4.74629,38.69613 7.12832,58.04297 2.97594,24.29253 5.95095,48.58516 8.92747,72.87762 -2.40646,2.59871 -4.81298,5.19737 -7.2207,7.79492 -7.47924,-0.9223 -14.9457,-1.98494 -22.43555,-2.79688 -1.17682,0.16647 -1.74871,1.85915 -0.73633,2.59961 0.80466,0.64472 1.92011,0.38514 2.86484,0.62583 6.45972,0.82689 12.91985,1.65064 19.3793,2.47964 0,12.35352 0,24.70703 0,37.06055 -30.1887,-3.08012 -60.37236,-6.21536 -90.57843,-9.1196 -0.83817,0.002 -1.89592,-0.42823 -2.48602,0.40671 -0.85158,0.88765 -0.069,2.37004 1.06914,2.46488 10.78637,1.01375 21.56996,2.12827 32.35526,3.18087 1.60916,0.15936 3.21829,0.31896 4.82755,0.47729 0,9.61849 0,19.23698 0,28.85547 -23.31575,0.001 -46.63151,0.003 -69.94726,0.004 -0.0344,-3.63113 0.12417,-7.26755 -0.0977,-10.89453 -0.0385,-0.43754 -0.12029,-1.23562 -0.2207,-1.8086 -1.17167,-6.97995 -5.822257,-13.21712 -12.086587,-16.47555 -1.926921,-1.04817 -3.961138,-2.17366 -5.909508,-3.3057 2.510568,-3.38473 5.40405,-6.51444 7.46875,-10.20898 1.749543,-3.24716 2.609399,-6.8763 3.140625,-10.50195 0.557605,-2.15974 2.890849,-3.50538 5.04961,-3.17087 1.97322,0.006 3.94982,0.0522 5.91914,-0.10062 0.34423,-0.0295 1.09813,-0.10245 1.60118,-0.18638 4.38743,-0.6476 8.22814,-3.09774 11.62823,-5.81867 4.24582,-3.12017 8.35965,-6.4306 12.73305,-9.37037 3.7821,-2.2494 8.39655,-2.91778 12.69602,-2.07571 9.91077,1.25077 19.81542,2.58324 29.7341,3.74996 1.15203,-0.10548 1.79147,-1.67324 0.91211,-2.48828 -0.7194,-0.71452 -1.8439,-0.47089 -2.75102,-0.71072 -10.13689,-1.28428 -20.26599,-2.64091 -30.4114,-3.8558 -5.57311,-0.42983 -11.09483,1.7945 -15.33956,5.32169 -4.51848,3.33169 -8.92296,6.82548 -13.55043,10.00425 -3.3537,2.04595 -7.36911,2.77227 -11.25619,2.52964 -2.192054,0 -4.384111,0 -6.576168,0 -0.574725,-4.78764 -1.231619,-9.73319 -3.689241,-13.97829 -4.376271,-8.08637 -13.252338,-13.59264 -22.482992,-13.64146 -4.275754,-0.0825 -8.552896,0.0158 -12.829329,-0.0254 -5.678137,0.0205 -11.361189,-0.0894 -17.035859,0.10946 -8.434921,0.7086 -16.306123,5.85057 -20.448115,13.21794 -2.547544,4.46836 -3.649164,9.67717 -3.417885,14.79782 -0.0527,4.16126 -0.0213,8.43032 1.433936,12.38783 0.368116,1.09724 0.872461,2.2547 1.33793,3.16802 1.650033,3.32795 4.130807,6.12964 6.237104,9.16366 0.356093,0.48816 0.712186,0.97632 1.068279,1.46448 -4.185122,2.09817 -8.73751,3.73358 -12.23413,6.95361 -5.1063838,4.59254 -7.9178799,11.56075 -7.5027969,18.40889 0.074106,2.19404 -0.3080722,4.47952 0.4081503,6.59814 0.9576128,2.38077 3.5459703,4.00599 6.1147126,3.71384 23.954087,0.0609 47.908344,0.007 71.862501,0.0244 140.067053,-0.001 280.134113,-0.002 420.201173,-0.004 1.04498,-0.1086 1.61334,-1.28691 1.4004,-2.24258 -0.0121,-18.54137 0.0422,-37.08449 -0.0434,-55.62475 -0.1472,-1.91959 -1.26528,-3.76951 -2.95664,-4.71275 0,18.96224 0,37.92448 0,56.88672 -6.30985,-7.72725 -12.62062,-15.45375 -18.92969,-23.18164 -0.79104,-3.17529 -1.57934,-6.35126 -2.36719,-9.52735 6.90217,-8.14739 13.80289,-16.296 20.70508,-24.44336 -2.08566,-0.81116 -4.48426,0.26804 -5.67596,2.06459 -5.30841,6.26699 -10.61857,12.53249 -15.9256,18.80065 -8.24555,-33.10166 -16.4331,-66.21883 -24.73433,-99.30587 -1.19065,-3.63733 -4.5984,-6.33292 -8.34861,-6.91569 -22.90467,-5.33231 -45.80916,-10.66537 -68.71393,-15.99719 12.9048,-19.58389 25.75558,-39.20501 38.70995,-58.75462 5.22799,-6.716465 10.49809,-13.402405 15.667,-20.163351 0.40711,-0.947288 -0.33549,-1.822689 -1.01336,-2.397819 -1.89395,-1.998936 -3.78683,-3.998891 -5.68195,-5.996712 3.53234,-3.312277 7.2042,-6.477222 10.67885,-9.847538 3.06014,-3.33192 3.67212,-8.691484 1.24647,-12.549307 -1.13339,-1.960644 -2.95676,-3.362415 -4.4057,-5.070973 -1.74974,-1.949729 -3.81633,-3.805246 -6.44928,-4.386416 -2.98976,-0.793097 -6.22356,-0.103665 -8.80237,1.546926 -4.6016,2.542324 -9.19701,5.095274 -13.79336,7.647151 -1.50984,-1.505297 -2.73613,-3.342014 -4.54064,-4.520868 -2.52494,-1.573401 -6.32415,0.362022 -6.46649,3.352778 -0.29611,2.487782 -0.18599,5.001278 -0.39717,7.496215 -9.36316,5.197092 -18.72459,10.397303 -28.08594,15.597656 -20.25845,-6.099144 -40.47978,-12.326319 -60.68422,-18.575165 -2.74131,-0.802427 -5.45013,-1.740363 -8.23315,-2.385248 -8.06913,-1.626979 -16.73296,0.408819 -23.34789,5.274845 -2.12853,1.407974 -4.25717,2.815788 -6.38513,4.224631 -0.86752,-3.755888 -1.46457,-7.569261 -2.40069,-11.308563 -1.01725,-4.418339 -3.71186,-8.183237 -6.58564,-11.591828 -4.94881,-6.147793 -9.78304,-12.36531 -14.80634,-18.419692 -4.72411,-5.1206226 -11.74226,-8.0031147 -18.69561,-7.7814795 z m 1.01758,2.9882813 c 6.85409,0.039858 13.51091,3.6354802 17.46065,9.2109772 5.29802,6.675563 10.70371,13.26941 15.89584,20.026502 4.58703,6.77161 4.81102,16.269779 0.38433,23.17288 -1.04938,1.544609 -2.76879,2.395146 -4.1561,3.588991 -3.94324,3.029793 -7.8842,6.062565 -11.82886,9.090494 -7.8997,2.539515 -17.23616,0.129805 -22.67814,-6.199757 -1.74549,-1.949528 -3.33785,-4.18007 -4.94537,-6.107484 -4.20046,-5.310412 -8.53025,-10.522525 -12.60283,-15.931716 -4.2649,-6.269476 -4.7452,-14.829725 -1.3303,-21.583309 1.73409,-3.528373 4.56461,-6.383828 7.69529,-8.701658 2.97716,-2.481715 6.21656,-4.854912 10.04689,-5.7866234 1.97071,-0.5406322 4.01591,-0.7946486 6.0586,-0.7792968 z M 425.23633,38.097656 c 2.74943,-0.02284 5.14159,1.726042 6.76898,3.813992 1.79052,1.993743 4.14263,3.763566 4.86364,6.466862 0.83505,3.092242 -0.53123,6.534666 -3.10416,8.388232 -3.04653,2.782257 -6.094,5.563477 -9.13979,8.346539 -5.76419,-6.08668 -11.52873,-12.173032 -17.29492,-18.257812 5.0051,-2.712984 9.92339,-5.593772 14.97851,-8.208985 0.9291,-0.377338 1.92627,-0.553224 2.92774,-0.548828 z m -134.0586,9.955078 c 4.38522,-0.08747 8.62885,1.479142 12.68332,2.737195 11.08545,3.420048 22.17029,6.842103 33.25614,10.260852 -3.02287,8.213752 -6.04547,16.427604 -9.07031,24.640625 -4.60034,-1.320793 -9.22912,-2.774054 -13.77233,-4.04365 -1.15243,-0.39757 -2.42878,-0.631829 -3.58262,-0.09471 -0.80254,0.315178 -1.51659,0.855016 -2.03959,1.540702 19.41099,5.699151 38.76221,11.598088 58.12305,17.4668 -8.2369,8.88163 -16.47314,17.76387 -24.70898,26.64648 -11.20377,-14.60969 -22.40656,-29.220122 -33.60743,-43.83203 -1.1331,1.752556 -0.81095,4.162022 0.58661,5.672816 10.29355,13.480554 20.6375,26.922824 30.9466,40.391634 -16.8325,18.15252 -33.66656,36.30358 -50.49805,54.45703 -10.28932,-15.98742 -20.52957,-32.00769 -30.88281,-47.95312 -1.51666,-1.91502 -4.82998,-1.91061 -6.23899,0.13324 -0.86341,1.07714 -0.94407,2.51362 -0.71807,3.82031 0.41491,5.10138 0.77513,10.17746 1.31939,15.26498 0.43925,2.42565 -1.51999,4.83734 -3.91586,5.1495 -6.52279,1.76979 -13.04249,3.55017 -19.56171,5.33314 -2.29356,-18.82515 -4.65148,-37.64299 -6.87876,-56.47493 -0.72723,-9.346415 3.82944,-18.86647 11.50837,-24.22786 3.64564,-2.766337 7.21071,-5.65639 10.9382,-8.304157 3.5957,-1.301527 6.72272,-3.573589 9.63313,-6.005222 2.29882,-1.803215 4.48282,-3.78926 6.24047,-6.132361 1.78374,-1.773508 3.94199,-3.101045 5.8752,-4.69879 3.54313,-2.674516 6.95805,-5.533917 10.66326,-7.983374 4.11078,-2.470822 8.90746,-3.777718 13.70177,-3.765102 z m 114.51954,1.44336 c 8.11431,8.561919 16.22374,17.131945 24.33593,25.697265 -4.64427,5.954629 -9.28901,11.908895 -13.93359,17.863282 -6.7335,-6.880415 -13.46956,-13.758319 -20.20313,-20.638672 0.2699,-6.548216 0.54086,-13.096388 0.8125,-19.644531 2.63994,-1.469338 5.28081,-2.937004 7.92188,-4.404297 0.35547,0.375651 0.71094,0.751302 1.06641,1.126953 z m -12.21485,8.542968 c -0.19652,4.784483 -0.39368,9.56894 -0.58789,14.353516 -7.95057,8.574819 -15.90266,17.148241 -23.85156,25.72461 -12.70802,-3.851942 -25.41691,-7.701027 -38.125,-11.552735 3.02358,-8.211123 6.04589,-16.422717 9.07226,-24.632812 8.57989,2.57127 17.13163,5.242244 25.73438,7.732421 1.45194,-0.148569 2.55279,-1.273868 3.85844,-1.831474 8.01525,-4.451428 16.03092,-8.902081 24.04586,-13.354072 -0.0488,1.186849 -0.0977,2.373698 -0.14649,3.560546 z m 2.38477,18.640626 c 6.14684,6.277646 12.29221,12.556729 18.43945,18.833984 C 370.51179,162.08207 326.7156,228.6496 282.92188,295.21875 c -17.42328,-1.7855 -34.8466,-3.57053 -52.26954,-5.35937 0,-12.69792 0,-25.39584 0,-38.09376 54.58294,-58.86114 109.1633,-117.72467 163.7461,-176.585932 0.48958,0.5 0.97916,1 1.46875,1.5 z M 258.87891,142.33008 c 4.84678,7.21211 9.6786,14.43475 14.32582,21.77766 4.726,7.35455 9.45576,14.70697 14.18394,22.06023 -8.81805,9.50554 -17.63502,19.01208 -26.45312,28.51758 -1.63461,-19.82709 -3.39565,-39.6438 -4.94628,-59.47669 -0.42014,-6.36129 -0.84022,-12.72259 -1.26075,-19.08386 1.38346,2.06836 2.76692,4.13672 4.15039,6.20508 z m 119.72656,15.27734 c 23.33052,5.44365 46.67378,10.83843 69.99219,16.33008 2.88912,0.8654 4.77593,3.70306 5.17325,6.59644 8.99955,36.19832 17.99905,72.39665 26.99862,108.59497 -11.03971,0 -22.07943,0 -33.11914,0 -9.26493,-25.00574 -18.48123,-50.03052 -27.80329,-75.01419 -1.47469,-3.42349 -4.92468,-5.81846 -8.62075,-6.15046 -6.07339,-0.82044 -12.13881,-1.66704 -18.25295,-2.47136 -1.42193,-0.13356 -2.84503,-0.43966 -4.26637,-0.46751 -1.09167,0.26393 -1.54396,1.80226 -0.63476,2.53125 0.75898,0.64007 1.84389,0.40598 2.74898,0.64886 6.97908,1.00295 13.98096,1.86011 20.95519,2.88341 2.61882,0.40536 4.72028,2.44475 5.62089,4.87654 4.31055,11.80838 8.71747,23.58558 13.06565,35.38177 2.70966,7.32304 5.41866,14.64633 8.12882,21.96919 -30.27492,-3.41641 -60.5497,-6.83399 -90.82422,-10.25391 3.45456,-25.57559 6.91102,-51.15093 10.36523,-76.72656 6.37347,-9.6805 12.7438,-19.36308 19.11524,-29.04492 0.45247,0.10546 0.90494,0.21093 1.35742,0.3164 z m -124.89453,6.98242 c 1.4887,17.69213 2.97921,35.38411 4.46875,53.07618 -6.56888,7.0815 -13.13822,14.16257 -19.70703,21.24414 -2.87006,-23.42119 -5.73888,-46.84254 -8.60938,-70.26368 7.88234,-2.14974 15.76472,-4.29933 23.64649,-6.45117 0.067,0.79818 0.13411,1.59636 0.20117,2.39453 z m 98.18164,39.52344 c -0.45293,5.27554 -0.71287,10.56968 -1.31379,15.83097 -1.95288,14.25741 -3.85831,28.52198 -5.79168,42.78231 -11.44813,-1.29242 -22.89613,-2.58597 -34.34375,-3.88281 9.97331,-15.14933 19.89867,-30.32807 29.94151,-45.43009 4.0136,-5.40419 8.02714,-10.80843 12.04091,-16.21249 -0.17773,2.30404 -0.35547,4.60807 -0.5332,6.91211 z M 43.919922,231.79492 c 8.475725,0.0441 16.952712,-0.0251 25.428056,0.0428 9.117421,0.0329 17.805189,6.12563 21.108352,14.59723 1.486748,3.62031 1.811574,7.58795 1.674158,11.46387 0.07387,3.92925 -0.110735,7.97613 -1.696013,11.63308 -3.256605,8.22084 -11.548643,14.23647 -20.423061,14.52109 -3.622686,0.1473 -7.249376,-0.0116 -10.873914,0.0497 -6.436671,-0.0286 -12.877625,0.0904 -19.311388,-0.0953 -8.609595,-0.70475 -16.517311,-6.6784 -19.578065,-14.75348 -1.393534,-3.54742 -1.721881,-7.40663 -1.580386,-11.18591 -0.07686,-3.95275 0.105323,-8.02443 1.699289,-11.7042 3.269185,-8.21053 11.557079,-14.2334 20.43336,-14.50142 1.038464,-0.0628 2.079543,-0.0668 3.119612,-0.0675 z m 265.888668,30.00196 c 43.32183,4.8892 86.64328,9.78213 129.96485,14.67382 1.77644,4.8091 3.55578,9.61714 5.32812,14.42774 -0.1089,8.30861 -0.21964,16.61721 -0.33203,24.92578 -42.12695,0 -84.25391,0 -126.38086,0 -1.65772,-3.86594 -2.8124,-7.94128 -4.70535,-11.70512 -2.09245,-3.72402 -5.97362,-6.65211 -10.34499,-6.79855 -5.68282,-0.59446 -11.36714,-1.17384 -17.05122,-1.7561 7.43321,-11.30211 14.86691,-22.6039 22.30273,-33.90429 0.40625,0.0456 0.8125,0.0911 1.21875,0.13672 z M 30.792969,287.0918 c 16.222928,0.0468 32.446572,-0.028 48.66941,0.0438 4.596235,-0.19942 9.191553,1.39165 12.791197,4.23065 4.422025,3.4026 7.282561,8.74531 7.58167,14.32542 0.186624,2.97184 0.0093,5.95262 0.0671,8.92865 -0.01056,0.62277 0.220906,1.48758 -0.7,1.2 -30.085026,0 -60.170052,0 -90.2550784,0 0.1729509,-3.56378 -0.112164,-7.13671 0.1678969,-10.69533 0.5790204,-7.73239 6.2758285,-14.67381 13.6134685,-17.04167 2.583787,-0.90052 5.353728,-1.00821 8.064338,-0.99151 z m 147.250001,0.40234 c 42.07378,4.30915 84.14723,8.62146 126.2207,12.93359 3.84655,0.69068 6.69501,3.98528 7.89649,7.5586 0.97868,2.61126 1.95769,5.22241 2.93554,7.83398 -46.41862,0 -92.83724,0 -139.25586,0 0,-9.51692 0,-19.03385 0,-28.55078 0.73438,0.0749 1.46875,0.14974 2.20313,0.22461 z m 272.01953,4.63867 c 10.64062,0 21.28125,0 31.92188,0 6.44958,7.89607 12.89936,15.79197 19.3496,23.6875 -17.85481,0 -35.70963,0 -53.56445,0 0.10695,-7.89583 0.21215,-15.79168 0.32031,-23.6875 0.65756,0 1.31511,0 1.97266,0 z" /></g></g><path
     id="path1-1"
     class=""
     d="m 143.16925,146.69371 c -0.86109,0.0121 -1.70922,0.0481 -2.55215,0.11516 -1.42079,0.10826 -2.87285,0.30823 -4.24854,0.57145 -0.98842,0.19163 -1.95582,0.41786 -2.90333,0.67844 -1.97722,0.54592 -3.90923,1.25506 -5.77094,2.11587 -3.70886,1.70827 -7.17029,4.06605 -10.14964,6.88617 -1.77273,1.72301 -3.50048,3.49127 -5.25441,5.23381 -1.52049,1.51534 -3.02857,3.04284 -4.56095,4.54536 -0.85725,0.75142 -2.29546,0.65062 -3.04885,-0.20218 -3.16496,-3.15967 -6.314264,-6.33531 -9.494194,-9.47983 -1.609728,-1.53571 -3.35532,-2.92841 -5.206934,-4.16158 -0.354405,-0.2346 -0.770466,-0.50227 -1.155744,-0.73866 -3.748343,-2.30667 -7.908114,-3.93762 -12.221438,-4.80967 -0.162573,-0.0319 -0.476161,-0.0925 -0.642236,-0.12378 -0.427845,-0.0784 -0.917008,-0.15782 -1.310742,-0.21836 -0.435845,-0.0629 -0.932601,-0.12733 -1.333512,-0.1734 -0.911069,-0.10083 -1.825437,-0.16995 -2.741181,-0.2096 -0.223134,-0.007 -0.537404,-0.0193 -0.795659,-0.0233 -0.584809,-0.0113 -1.169839,-0.011 -1.754599,0.003 -0.453049,0.0116 -1.007064,0.0352 -1.46138,0.0642 -5.600062,0.34467 -11.12074,1.94644 -16.021316,4.68159 -7.037129,3.91262 -12.791525,10.10541 -16.123174,17.44045 -1.150104,2.51454 -2.017505,5.15695 -2.59636,7.86043 -0.03424,0.17609 -0.09111,0.44932 -0.134025,0.66267 -0.22746,1.17313 -0.401084,2.36068 -0.519758,3.56327 -0.04942,0.47296 -0.08781,0.99859 -0.118772,1.50505 -0.175388,3.00112 0.0056,6.02227 0.531425,8.98204 0.03989,0.21204 0.0947,0.51528 0.144191,0.76218 0.170003,0.85776 0.385543,1.76333 0.604889,2.57277 0.09514,0.33254 0.175609,0.6363 0.271982,0.94712 1.196276,3.99481 3.066107,7.78606 5.499963,11.17187 0.23304,0.32273 0.511639,0.69988 0.772707,1.03595 1.138946,1.48809 2.406677,2.87259 3.744111,4.18373 7.926269,7.93916 15.861724,15.86918 23.791649,23.80469 5.546206,5.54325 11.084771,11.09446 16.635754,16.63273 0.496759,0.43527 1.375521,0.25159 1.626023,-0.36899 0.193708,-0.41344 0.07412,-0.91821 -0.261729,-1.22107 -13.717775,-13.72198 -27.437325,-27.4438 -41.151271,-41.17019 -4.686413,-4.78428 -7.975782,-10.9154 -9.374314,-17.46477 -1.501305,-6.94902 -0.902115,-14.34027 1.733997,-20.94551 2.229278,-5.6252 5.925891,-10.65097 10.602663,-14.48675 4.599093,-3.78587 10.155235,-6.40612 16.013459,-7.49999 7.222228,-1.37118 14.86658,-0.50195 21.564889,2.54213 4.095818,1.85236 7.823606,4.49856 10.95949,7.71636 2.675863,2.67611 5.375796,5.38383 8.068326,8.06473 0.4755,0.49042 0.96575,0.99142 1.60017,1.27377 1.43594,0.70453 3.26617,0.54023 4.51885,-0.46912 0.59102,-0.46814 1.07656,-1.05139 1.62331,-1.56818 2.78539,-2.77946 5.55484,-5.57522 8.35595,-8.33875 4.81837,-4.59497 10.94223,-7.81218 17.47248,-9.12598 7.38323,-1.50652 15.242,-0.66188 22.10249,2.47178 7.75744,3.51924 14.18166,9.89116 17.7406,17.63287 3.0625,6.60339 4.03298,14.14694 2.77812,21.31457 -1.17404,6.80253 -4.35785,13.25056 -9.08488,18.28579 -1.24842,1.33052 -2.57053,2.58921 -3.85043,3.88919 -18.17815,18.18435 -36.35408,36.37102 -54.53646,54.55108 -1.47844,1.44046 -3.56649,2.22504 -5.62809,2.10456 -1.82932,-0.0838 -3.61599,-0.86699 -4.90502,-2.17004 -3.258799,-3.28811 -6.496211,-6.59801 -9.759185,-9.88204 -0.468028,-0.45544 -1.339736,-0.30882 -1.624893,0.28289 -0.224282,0.4283 -0.112285,0.98625 0.261275,1.2944 1.433711,1.48046 2.892652,2.9367 4.335507,4.40841 1.871837,1.89179 3.729304,3.79835 5.615466,5.67564 1.94989,1.79225 4.66681,2.70528 7.30351,2.46066 2.09966,-0.16832 4.12602,-1.06316 5.67198,-2.49277 0.79052,-0.7501 1.54064,-1.54213 2.31849,-2.30559 18.57554,-18.58304 37.15428,-37.16293 55.7258,-55.74995 4.52908,-4.62797 7.8393,-10.43777 9.49223,-16.69977 0.34335,-1.26916 0.61813,-2.60196 0.82127,-3.87241 0.18765,-1.19418 0.3182,-2.39465 0.39352,-3.57901 0.0728,-1.16089 0.0914,-2.33965 0.0601,-3.48617 -0.0516,-1.74867 -0.22041,-3.51244 -0.5061,-5.21869 -1.04009,-6.29602 -3.69939,-12.31849 -7.67369,-17.31307 -2.46025,-3.10199 -5.40319,-5.82036 -8.68882,-8.0293 -0.29949,-0.19489 -0.65881,-0.43696 -0.98837,-0.63901 -3.08142,-1.93426 -6.44662,-3.41406 -9.95298,-4.38386 -0.28723,-0.0773 -0.67274,-0.18082 -0.97455,-0.25373 -1.21113,-0.30368 -2.48533,-0.54766 -3.69159,-0.72188 -0.5232,-0.074 -1.03568,-0.13907 -1.5413,-0.1904 -1.48062,-0.15335 -2.94434,-0.21746 -4.44316,-0.20137 z"
     style="fill:#879b90;fill-opacity:1;stroke-width:0.298931" /><path
     id="path2-6"
     class=""
     d="m 68.769195,155.7504 c -0.962126,0.0122 -1.961388,0.0723 -2.939686,0.18158 -0.346856,0.0407 -0.767743,0.0953 -1.14181,0.15202 -4.976638,0.75159 -9.740173,2.8467 -13.657274,6.00698 -3.926964,3.14869 -7.035107,7.32203 -8.858991,12.01807 -2.114131,5.36936 -2.56854,11.37282 -1.295315,17.00058 0.808489,3.62531 2.322585,7.09158 4.44389,10.1414 0.14069,0.1985 0.331786,0.46995 0.496824,0.69243 1.232267,1.69821 2.711502,3.19343 4.205939,4.65864 18.559465,18.57056 37.121934,37.13825 55.684578,55.70561 0.39343,0.39114 1.09543,0.40051 1.47897,-0.0116 0.50534,-0.46741 0.97078,-0.97684 1.46683,-1.45452 18.63283,-18.64014 37.26912,-37.27689 55.89736,-55.92156 1.30295,-1.33552 2.47202,-2.80084 3.49077,-4.36378 0.15915,-0.24483 0.35853,-0.56002 0.52498,-0.83666 2.80264,-4.62146 4.24864,-10.04347 4.15509,-15.44527 -0.0125,-0.75533 -0.0545,-1.50998 -0.12254,-2.26233 -0.0153,-0.13717 -0.0436,-0.4284 -0.0579,-0.56389 -0.10243,-0.90306 -0.24726,-1.80097 -0.43077,-2.69107 -0.0332,-0.15193 -0.0861,-0.40249 -0.13054,-0.59357 -0.27915,-1.22153 -0.65648,-2.46248 -1.08562,-3.61132 -1.87611,-5.06809 -5.23426,-9.56106 -9.51975,-12.84673 -3.95084,-3.04682 -8.70863,-5.03197 -13.65428,-5.6919 -0.70369,-0.0986 -1.46651,-0.16725 -2.14055,-0.20998 -1.36452,-0.0828 -2.73447,-0.0698 -4.09747,0.0339 -0.25272,0.0197 -0.59086,0.0502 -0.87563,0.0814 -3.07423,0.33072 -6.09545,1.15706 -8.90561,2.44784 -0.25966,0.12189 -0.59135,0.27689 -0.87523,0.42058 -1.92012,0.95987 -3.76259,2.15909 -5.39883,3.51165 -0.77149,0.63948 -1.55897,1.32096 -2.24782,2.07676 -0.40175,0.53086 -0.12875,1.4049 0.52025,1.5855 0.40859,0.14117 0.87589,-0.003 1.1494,-0.33441 1.12757,-1.08478 2.31644,-2.10898 3.60544,-2.99855 3.95676,-2.76109 8.67413,-4.41597 13.48973,-4.7239 5.21126,-0.35657 10.52843,0.8197 15.06762,3.41535 5.29563,3.00068 9.5307,7.84341 11.75053,13.51539 2.17016,5.48702 2.4632,11.69076 0.82447,17.35911 -1.2822,4.48346 -3.76953,8.60965 -7.11925,11.85232 -1.82485,1.8259 -3.64956,3.65195 -5.4745,5.47776 -13.12026,0.001 -26.24068,-0.003 -39.36086,0.006 -0.4913,0.0346 -0.8714,0.44294 -0.98639,0.90368 -2.34011,6.26789 -4.68086,12.53555 -7.02053,18.80361 -2.58267,-13.79472 -5.15832,-27.59088 -7.7471,-41.38437 -0.13731,-0.64725 -0.96276,-1.01962 -1.52853,-0.65929 -0.455818,0.24639 -0.543994,0.78898 -0.724821,1.22603 -2.636925,7.03485 -5.274223,14.06956 -7.910909,21.1045 -11.936628,0 -23.873255,0 -35.809883,0 -2.158402,-2.17106 -4.34298,-4.31587 -6.479513,-6.50864 -3.631808,-3.89597 -6.051324,-8.90109 -6.848736,-14.16749 -0.883942,-5.71638 0.110877,-11.71533 2.854569,-16.81304 2.910047,-5.45154 7.751692,-9.84989 13.476416,-12.18581 6.27542,-2.60085 13.541896,-2.66834 19.876232,-0.22477 3.688834,1.4108 7.030481,3.67856 9.770173,6.517 2.942893,2.9378 5.870863,5.89089 8.826515,8.8157 0.515145,0.48132 1.071747,0.91757 1.657464,1.30976 0.145881,0.0942 0.37318,0.24292 0.557029,0.35057 1.900654,1.14128 4.102914,1.79776 6.346504,1.87708 3.43952,0.13969 6.92612,-1.09916 9.46057,-3.43845 0.93927,-0.87321 1.82018,-1.80588 2.73481,-2.7045 0.26128,-0.27311 0.587,-0.55787 0.57384,-0.97164 0.0531,-0.62351 -0.55325,-1.18249 -1.17054,-1.07709 -0.51249,0.0478 -0.79674,0.5263 -1.15182,0.83594 -0.93936,0.91677 -1.82641,1.89073 -2.8242,2.7454 -2.28604,1.87969 -5.33586,2.78123 -8.27712,2.46743 -2.6582,-0.26478 -5.20115,-1.52007 -7.029081,-3.46826 -3.085352,-3.06688 -6.141994,-6.16284 -9.237887,-9.21895 -3.482114,-3.31027 -7.801575,-5.73263 -12.448915,-6.95601 -0.451004,-0.117 -0.983691,-0.2463 -1.472085,-0.34587 -0.952078,-0.20011 -1.931602,-0.34994 -2.87502,-0.45158 -0.625888,-0.0656 -1.205232,-0.10774 -1.836214,-0.13546 -0.497945,-0.0213 -1.087805,-0.0299 -1.617263,-0.0251 z m 32.150305,38.33912 c 2.45133,13.09579 4.89626,26.19293 7.35551,39.28713 0.1374,0.63905 0.94628,1.01244 1.51097,0.66434 0.47486,-0.24065 0.55896,-0.80502 0.74545,-1.24988 2.63557,-7.05779 5.27213,-14.11521 7.90708,-21.17323 12.15382,0 24.30764,0 36.46146,0 -16.15121,16.15557 -32.30152,32.31203 -48.45257,48.46776 -16.151051,-16.15573 -32.301371,-32.31219 -48.452582,-48.46776 11.509419,-0.002 23.019026,0.004 34.528328,-0.006 0.487919,-0.0366 0.866662,-0.44263 0.980773,-0.90126 2.340361,-6.24296 4.680118,-12.48615 7.020901,-18.72895 0.13156,0.70276 0.26312,1.40552 0.39468,2.10828 z"
     style="fill:#879b90;fill-opacity:1;stroke-width:0.298931" /></svg>
