<?xml version="1.0" encoding="UTF-8" standalone="no"?>
<svg
   version="1.1"
   width="512"
   height="512"
   x="0"
   y="0"
   viewBox="0 0 512 512"
   style="enable-background:new 0 0 512 512"
   xml:space="preserve"
   class=""
   id="svg2"
   sodipodi:docname="masajterapeutic.svg"
   inkscape:version="1.3.2 (091e20e, 2023-11-25, custom)"
   xmlns:inkscape="http://www.inkscape.org/namespaces/inkscape"
   xmlns:sodipodi="http://sodipodi.sourceforge.net/DTD/sodipodi-0.dtd"
   xmlns="http://www.w3.org/2000/svg"
   xmlns:svg="http://www.w3.org/2000/svg"><defs
     id="defs2" /><sodipodi:namedview
     id="namedview2"
     pagecolor="#ffffff"
     bordercolor="#000000"
     borderopacity="0.25"
     inkscape:showpageshadow="2"
     inkscape:pageopacity="0.0"
     inkscape:pagecheckerboard="0"
     inkscape:deskcolor="#d1d1d1"
     inkscape:zoom="1.158716"
     inkscape:cx="127.29608"
     inkscape:cy="207.55733"
     inkscape:window-width="1920"
     inkscape:window-height="1017"
     inkscape:window-x="-8"
     inkscape:window-y="-8"
     inkscape:window-maximized="1"
     inkscape:current-layer="g2" /><g
     transform="matrix(1.0000000000000004,0,0,1.0000000000000004,74.99999999999994,-1.1368683772161603e-13)"
     id="g2"><path
       id="path1"
       class=""
       d="m 117.18164,6.0058594 c -1.06442,0.044461 -1.60897,1.2441691 -1.40411,2.1882811 0.045,8.6374355 -0.1057,17.2779235 0.10696,25.9131925 0.11012,2.011559 0.31341,3.93113 0.60404,5.871788 0.35657,2.359911 0.81984,4.555441 1.43221,6.879103 2.52682,9.47641 7.22102,18.37733 13.70641,25.743586 2.46688,2.827553 5.03128,5.568446 7.5291,8.368893 -26.83253,8.432978 -53.684452,16.805803 -80.49636,25.302937 -1.719221,0.58404 -3.440984,1.25496 -5.031576,1.92689 -6.523271,2.77761 -12.650285,6.47625 -18.167376,10.92838 -0.638593,0.52777 -1.49469,1.22606 -2.197837,1.84701 -12.419816,10.7771 -21.252015,25.55029 -25.0348114,41.54062 -0.5463601,2.35344 -0.9975326,4.5555 -1.342155,6.94437 -0.194833,1.31111 -0.3623702,2.64323 -0.485744,3.90237 -0.6375075,6.08147 -0.3147642,12.20319 -0.4042968,18.30469 0.012324,3.50226 -0.013498,7.00787 0.068359,10.50781 0.3297888,1.10377 1.9836736,1.42943 2.6152344,0.41602 0.613942,-0.91179 0.1957566,-2.05756 0.321519,-3.07811 0.058026,-7.594 -0.128124,-15.19291 0.1467283,-22.78338 1.0916622,-19.59528 9.9417312,-38.69693 24.4066842,-51.99967 8.541951,-7.91051 18.973197,-13.74236 30.165663,-16.93712 23.938152,-7.50714 47.864238,-15.057152 71.818518,-22.509568 2.70863,-0.642244 5.42532,-1.249044 8.14284,-1.852311 8.78946,5.968822 19.01603,9.849552 29.59507,10.967276 1.22928,0.132322 2.77671,0.252137 4.14517,0.312021 0.51726,0.01953 1.39155,0.04936 2.04603,0.0507 12.01803,0.146122 24.05353,-3.157681 34.28731,-9.467129 0.96502,-0.575382 1.90918,-1.184791 2.86392,-1.776928 13.80543,4.122184 27.51036,8.567552 41.26966,12.839862 13.6728,4.30374 27.36739,8.53899 41.01089,12.93234 20.10719,6.99003 37.14396,22.43893 45.88326,41.8713 4.59236,10.13468 6.90182,21.30474 6.58814,32.43306 -0.015,28.95821 0.0506,57.91714 -0.1173,86.87479 -0.20709,10.02315 -4.30816,19.91934 -11.33191,27.08576 -2.88876,2.91961 -5.99105,5.61913 -8.96187,8.45481 -25.56681,23.85867 -51.13188,47.71866 -76.72694,71.54628 -2.3932,2.10486 -5.3628,3.46327 -8.37785,4.42551 -5.33924,1.64603 -11.18691,1.54254 -16.46165,-0.30391 -7.59844,-2.49022 -15.17798,-5.03896 -22.76857,-7.55433 1.14615,2.67175 3.64701,4.63296 6.45657,5.29773 5.11406,1.68513 10.34086,3.48879 15.35788,5.07922 6.90978,2.44357 14.72895,2.14288 21.43255,-0.81867 3.04248,-1.27844 5.83474,-3.13677 8.14124,-5.50158 9.85799,-9.24444 19.75718,-18.44382 29.63715,-27.66608 7.68453,2.38658 15.52042,4.60492 22.55487,8.61728 6.27235,3.41584 11.93826,7.86491 17.03497,12.84757 0.97229,0.59916 2.43061,-0.23054 2.23438,-1.41016 -0.11349,-1.06765 -1.21877,-1.55255 -1.83341,-2.31343 -8.21307,-7.9433 -18.29705,-13.85594 -29.10631,-17.50206 -2.65868,-0.98295 -5.31731,-1.96606 -7.9763,-2.94818 17.10156,-15.96077 34.2401,-31.88072 51.29037,-47.89561 8.07474,-8.13837 12.65674,-19.60098 12.43052,-31.06295 -0.001,-6.21905 0.12703,-12.43674 0.0893,-18.6559 -0.006,-23.72001 0.0379,-47.44072 -0.0391,-71.16029 -0.53693,-18.18889 -8.02796,-35.91942 -20.08978,-49.46527 -10.2947,-11.65054 -23.95394,-20.26948 -38.8885,-24.58422 -24.94002,-7.829479 -49.88019,-15.658494 -74.82012,-23.488262 4.74403,-5.155236 9.81806,-10.088863 13.62109,-16.017579 0.3163,-0.48242 0.805,-1.253519 1.16769,-1.856143 6.21678,-10.25723 9.502,-22.281856 9.25816,-34.280916 0.0387,-7.274917 0.0205,-14.552023 -0.0157,-21.8257377 0.0948,-1.2613086 -1.65256,-1.9939982 -2.49027,-1.0619609 -0.7681,0.7846315 -0.35356,2.0046743 -0.47098,2.9887087 -0.0566,8.0131149 0.0864,16.0291799 -0.0953,24.0407219 -0.70491,16.030274 -8.14539,31.595556 -20.05081,42.331265 -10.69253,9.738897 -24.90525,15.553434 -39.37765,15.926181 -13.8555,0.447835 -27.82517,-3.955263 -38.86063,-12.359769 -12.18816,-9.190182 -20.82812,-23.028109 -23.46904,-38.085975 -0.92681,-5.092941 -1.07407,-10.285165 -0.97042,-15.448796 -0.0106,-6.247906 0.0491,-12.498504 -0.0566,-18.7445318 -0.18123,-0.643201 -0.86417,-1.1540616 -1.53906,-1.0917968 z M 179.19727,162.79102 c -0.69437,0.0242 -1.51753,0.0364 -2.05932,0.0653 -1.01535,0.0535 -2.09366,0.13256 -3.01686,0.21594 -3.60501,0.32633 -7.33864,1.00686 -10.73242,1.92773 -13.09884,3.52151 -24.98894,11.32863 -33.44336,21.93359 -1.20762,1.48835 -2.45856,3.20362 -3.56054,4.86719 -5.30693,8.03898 -8.78768,17.28148 -10.04883,26.83399 -0.0616,0.48356 -0.16514,1.32421 -0.2211,1.94633 -0.60122,6.025 -0.24454,12.08593 -0.342,18.12827 0.0145,13.13636 -0.0557,26.27428 0.0675,39.4096 0.61999,14.46729 6.34402,28.65334 15.95215,39.48935 2.51422,2.86794 5.08446,5.68442 7.60596,8.54598 -8.69913,1.95548 -17.39858,3.90955 -26.09766,5.86523 -14.877643,-19.95081 -29.757691,-39.89983 -44.636718,-59.84961 -0.01251,-23.57105 0.03009,-47.14488 -0.03778,-70.7142 -0.193448,-1.11471 -1.75536,-1.63964 -2.516907,-0.75064 -0.753132,0.84538 -0.314128,2.06844 -0.433806,3.08554 -0.02132,23.31444 -0.02368,46.63002 0.01388,69.94376 0.208432,1.13771 1.560749,1.38462 2.070477,2.32337 3.474962,4.45063 6.764352,9.04239 10.169037,13.54677 11.239635,15.06113 22.455013,30.14202 33.731193,45.17478 1.06257,0.84391 2.41306,0.0352 3.5671,-0.11747 5.48282,-1.23371 10.96541,-2.46846 16.44852,-3.70089 -2.85588,5.13394 -5.80979,10.21545 -8.65409,15.35386 -0.54021,0.91606 0.10617,1.86426 0.94572,2.31822 10.12692,6.89677 20.22918,13.83411 30.34704,20.74589 -0.35077,-2.91115 -2.26207,-5.46847 -4.78078,-6.90185 -7.74961,-5.30274 -15.49829,-10.60685 -23.24851,-15.9087 3.1376,-5.51577 6.27339,-11.03258 9.41015,-16.54883 2.63284,-0.59037 5.26596,-1.17953 7.89844,-1.77148 5.12927,3.219 10.49464,6.14118 16.27722,8.00729 10.52667,3.51855 21.96985,4.21532 32.85559,2.06693 0.45946,-0.0969 1.27298,-0.25529 1.86769,-0.40111 1.62624,-0.36215 3.45661,-0.88504 4.90184,-1.33327 5.52833,-1.69767 10.73425,-4.29743 15.64724,-7.32363 1.50561,-0.82741 3.32009,-0.57246 4.84607,0.053 1.69262,0.48505 3.37511,1.00372 5.05943,1.51668 2.97896,5.24602 5.96136,10.49009 8.94336,15.73438 -8.36561,5.76051 -16.78093,11.4072 -25.0869,17.25149 -1.6212,1.40666 -2.64263,3.44421 -2.92873,5.56101 10.3738,-7.11198 20.784,-14.17424 31.11328,-21.34766 0.6888,-0.76825 0.27416,-1.87118 -0.28294,-2.58116 -2.74347,-4.82912 -5.48585,-9.65887 -8.23073,-14.4872 6.26063,1.38148 12.50463,2.85114 18.77693,4.17087 1.28527,0.20348 1.91452,-1.22224 2.58635,-2.04977 15.07571,-19.59612 30.13743,-39.20284 45.15625,-58.83789 0.44028,-1.42298 0.0658,-2.93943 0.19336,-4.40196 -0.0123,-22.79579 0.0297,-45.59436 -0.0378,-68.38842 -0.19811,-1.16421 -1.8618,-1.65561 -2.58917,-0.67447 -0.6607,0.88951 -0.241,2.07857 -0.36165,3.09961 -0.0259,23.04556 -0.005,46.09115 -0.0114,69.13672 -15.0993,19.6651 -30.19717,39.3313 -45.29687,58.99609 -8.69867,-1.95005 -17.39682,-3.90244 -26.09571,-5.85156 5.30312,-5.93714 11.02002,-11.64576 14.96098,-18.63345 6.05214,-10.31029 9.04583,-22.33907 8.73635,-34.27827 -0.0147,-16.2388 0.0505,-32.47873 -0.059,-48.71679 -0.10566,-2.97256 -0.44498,-5.93436 -0.96839,-8.86172 -0.0862,-0.40497 -0.21801,-1.1692 -0.34101,-1.71743 -2.48671,-11.91189 -8.46129,-23.05127 -16.97764,-31.73969 -3.0114,-3.07459 -6.31993,-5.85792 -9.87862,-8.27921 -0.27978,-0.17703 -0.90689,-0.60079 -1.32031,-0.87109 -10.36028,-6.72861 -22.69518,-10.34817 -35.04844,-10.27724 -0.26771,6.2e-4 -0.53542,0.001 -0.80312,0.002 z m 1,2.99023 c 15.78895,-0.0708 31.48204,6.3148 42.75557,17.36661 10.89867,10.55305 17.74934,25.25105 18.5221,40.42787 0.26033,5.26344 0.0488,10.53578 0.11929,15.80318 -0.0146,12.85448 0.0498,25.71048 -0.0659,38.56395 -0.62395,15.49405 -7.48067,30.60962 -18.66506,41.34123 -10.37958,10.06524 -24.39406,16.32113 -38.84148,17.16551 -14.0067,0.88849 -28.2951,-3.16365 -39.6588,-11.42454 -12.29735,-8.83883 -21.21081,-22.32788 -24.26961,-37.18255 -1.19068,-5.55321 -1.44537,-11.25609 -1.31626,-16.91946 0.0136,-15.43752 -0.048,-30.87617 0.058,-46.31293 0.58064,-15.89639 7.73856,-31.41109 19.39129,-42.22939 10.48193,-9.84244 24.49965,-15.87187 38.87976,-16.51569 1.02969,-0.049 2.06017,-0.0748 3.09104,-0.0838 z M 7.3457031,240.01562 C 6.2737507,240.12508 5.8077028,241.32486 6,242.26992 c 0.02464,9.94984 -0.073697,19.90166 0.075136,29.85016 0.623113,11.45394 6.0953757,22.51858 14.7271377,30.05705 16.203253,15.11351 32.406721,30.22679 48.609835,45.34045 -6.969765,2.36723 -14.132828,4.33228 -20.675781,7.7793 -15.664926,7.9792 -28.360582,21.50382 -35.544712,37.52995 -3.6793458,8.09785 -6.0012101,16.81226 -6.8224754,25.66926 -0.03761,0.42196 -0.095227,1.07807 -0.1248924,1.56713 -0.4574663,6.77351 -0.1574961,13.56609 -0.2443886,20.3485 0.010735,21.45139 -0.032373,42.90556 0.037921,64.35521 0.1905203,1.11733 1.7527759,1.63953 2.514954,0.7526 0.7577021,-0.84223 0.3147328,-2.06742 0.4355019,-3.08359 0.041481,-26.24776 -0.039969,-52.49625 0.055674,-78.74356 0.5414991,-19.08744 8.4160104,-37.90587 21.8138934,-51.54036 8.942289,-9.15529 20.283946,-15.93391 32.585444,-19.46717 2.870438,-0.90159 5.741321,-1.80177 8.61144,-2.70438 10.923671,10.17338 21.807288,20.39057 32.770682,30.51927 7.20995,5.28908 16.89734,7.04269 25.48165,4.48513 3.88315,-1.12767 7.66718,-2.56177 11.52149,-3.78108 2.69501,-0.93253 5.47345,-1.67426 8.06826,-2.8647 1.67518,-0.93927 2.97487,-2.47743 3.7419,-4.22776 -8.25372,2.71844 -16.46475,5.56878 -24.75721,8.16502 -7.61364,2.04275 -16.16841,0.44383 -22.43606,-4.363 C 100.51596,372.48245 94.679636,366.94966 88.783895,361.4815 66.152363,340.36077 43.490893,319.27455 20.896141,298.11552 13.473941,290.78588 9.0901043,280.47653 9.0242547,270.03864 8.94603,260.39758 9.0705324,250.75463 8.9492188,241.11328 8.7647272,240.44142 8.0265617,239.98087 7.3457031,240.01562 Z M 347.00195,401.0918 c -1.02713,0.0965 -1.61546,1.32533 -1.17056,2.2279 0.81084,2.84208 1.58395,5.69671 2.10192,8.60951 1.06201,5.58338 1.34185,11.27449 1.41586,16.94631 0.67815,25.30599 1.36305,50.61179 2.05317,75.91745 0.20447,1.19779 2.01965,1.66438 2.67383,0.57031 0.6003,-0.89598 0.14435,-2.01407 0.23922,-3.01118 -0.71505,-26.41716 -1.39452,-52.83557 -2.13176,-79.25194 -0.24874,-6.49776 -1.30571,-12.95401 -3.07563,-19.20825 -0.29758,-0.84805 -0.38375,-1.90061 -1.08261,-2.52472 -0.29817,-0.19794 -0.66834,-0.2859 -1.02344,-0.27539 z"
       style="fill:#e0c184;fill-opacity:1" /><path
       id="path2"
       class=""
       d="m 77.650391,441.03516 c -2.885546,0.085 -5.350228,2.76064 -5.205079,5.64297 0.01074,19.40533 -0.02149,38.81183 0.01612,58.21645 0.133249,2.93307 2.952367,5.37872 5.876553,5.08988 2.850238,-0.13268 5.246889,-2.78986 5.107329,-5.63524 -0.01036,-19.40537 0.02071,-38.81177 -0.01553,-58.2165 -0.155612,-2.92245 -2.858406,-5.30622 -5.779386,-5.09756 z m 201.484379,0.082 c -2.49347,0.42773 -4.49563,2.7167 -4.52426,5.25599 -0.0482,12.17759 -0.007,24.35906 -0.0207,36.53815 0.0173,7.26748 -0.0346,14.53796 0.0259,21.80356 0.0461,2.75619 2.4624,5.19554 5.2203,5.25541 2.80658,0.20384 5.49496,-2.10831 5.69851,-4.91763 0.12682,-3.17419 0.02,-6.3585 0.0553,-9.53665 -0.0104,-16.46097 0.0207,-32.92298 -0.0155,-49.3833 -0.13238,-3.01406 -3.13196,-5.53546 -6.12909,-5.04261 -0.10348,0.009 -0.20697,0.0181 -0.31045,0.0271 z"
       style="fill:#e0c184;fill-opacity:1" /></g></svg>
