<svg xmlns="http://www.w3.org/2000/svg" version="1.1" xmlns:xlink="http://www.w3.org/1999/xlink" width="512" height="512" x="0" y="0" viewBox="0 0 512 512" style="enable-background:new 0 0 512 512" xml:space="preserve" class=""><g><path d="M149.404 266.065C220.096 288.547 256 374.073 256 374.073s-78.711 49.076-149.404 26.594C35.904 378.185 0 292.658 0 292.658s78.711-49.075 149.404-26.593z" style="" fill="#dfd7c6" data-original="#c3ea21" class="" opacity="1"></path><path d="M234.332 223.876C277.876 283.933 256 374.073 256 374.073s-92.475-7.23-136.019-67.287-21.668-150.197-21.668-150.197 92.475 7.231 136.019 67.287z" style="" fill="#cbbc9e" data-original="#8adb53" class="" opacity="1"></path><path d="M362.597 266.065C291.904 288.547 256 374.073 256 374.073s78.711 49.076 149.404 26.594C476.096 378.185 512 292.658 512 292.658s-78.711-49.075-149.403-26.593z" style="" fill="#b09763" data-original="#206b34" class="" opacity="1"></path><path d="M277.668 223.876C234.124 283.933 256 374.073 256 374.073s92.475-7.23 136.019-67.287 21.668-150.197 21.668-150.197-92.475 7.231-136.019 67.287z" style="" fill="#ab976d" data-original="#369151" class="" opacity="1"></path><path d="M326.623 239.756c0 74.181-70.623 134.317-70.623 134.317s-70.623-60.136-70.623-134.317S256 105.439 256 105.439s70.623 60.136 70.623 134.317z" style="" fill="#baab8d" data-original="#4fc16e" class="" opacity="1"></path></g></svg>