<svg xmlns="http://www.w3.org/2000/svg" version="1.1" xmlns:xlink="http://www.w3.org/1999/xlink" width="512" height="512" x="0" y="0" viewBox="0 0 24 24" style="enable-background:new 0 0 512 512" xml:space="preserve" class=""><g><path d="M17.094 14.457C20.041 13.701 22 12.229 22 10.5c0-2.237-3.281-4.045-7.738-4.426C15.337 5.439 16 4.528 16 3.5 16 1.538 13.584 0 10.5 0S5 1.538 5 3.5c0 1.337 1.122 2.477 2.813 3.068C4.918 7.331 3 8.79 3 10.5c0 1.65 1.785 3.067 4.511 3.849C3.068 15.075 0 16.861 0 19c0 2.804 5.271 5 12 5s12-2.196 12-5c0-2.04-2.792-3.759-6.906-4.543ZM6 3.5C6 2.145 8.061 1 10.5 1S15 2.145 15 3.5 12.939 6 10.5 6 6 4.855 6 3.5Zm-2 7C4 8.81 7.416 7 12.5 7S21 8.81 21 10.5 17.585 14 12.5 14 4 12.19 4 10.5ZM12 23c-6.482 0-11-2.108-11-4s4.518-4 11-4 11 2.108 11 4-4.518 4-11 4Z" fill="#b09763" opacity="1" data-original="#000000" class=""></path></g></svg>