<svg xmlns="http://www.w3.org/2000/svg" version="1.1" xmlns:xlink="http://www.w3.org/1999/xlink" width="512" height="512" x="0" y="0" viewBox="0 0 24 24" style="enable-background:new 0 0 512 512" xml:space="preserve" class=""><g><path d="M22.27 1.77 21.15.79C20.13-.23 18.4-.28 17.3.84l-1.87 2.45a2.686 2.686 0 0 0 0 3.8l1.49 1.53c-1.62 3.8-4.61 6.8-8.29 8.3L7.1 15.43c-.51-.51-1.18-.79-1.9-.79s-1.39.28-1.85.75L.81 17.35C-.24 18.4-.24 20.11.79 21.13l1.02 1.17c1.1 1.1 2.58 1.71 4.19 1.71 7.75 0 18.02-10.28 18.02-18.02 0-1.6-.61-3.09-1.73-4.21ZM5.98 23c-1.34 0-2.57-.5-3.46-1.39L1.5 20.43c-.66-.66-.66-1.73-.05-2.35l2.54-1.96c.32-.32.74-.5 1.2-.5s.88.18 1.2.5l1.77 1.73c.14.14.34.18.53.11 4.17-1.59 7.56-4.98 9.29-9.28.07-.18.03-.39-.11-.54l-1.73-1.77c-.66-.66-.66-1.73.04-2.44l1.87-2.45c.66-.66 1.73-.66 2.42.02l1.12.98C22.5 3.39 23 4.62 23 5.96c0 7.16-9.86 17.02-17.02 17.02Z" fill="#879b90" opacity="1" data-original="#000000" class=""></path></g></svg>